<svg width="59" height="45" viewBox="0 0 59 45" fill="none" xmlns="http://www.w3.org/2000/svg">
<g clip-path="url(#clip0_420_341)">
<path d="M8.79961 18.6001C7.99961 19.0001 7.19961 18.8001 6.59961 18.3001C5.99961 17.9001 5.49961 17.2001 5.19961 16.2001C5.09961 15.9001 5.09961 15.5001 5.09961 15.0001C5.09961 14.7001 5.09961 14.5001 5.09961 14.2001C5.19961 13.4001 5.49961 12.5001 5.99961 11.6001C6.99961 9.9001 8.69961 8.4001 10.4996 7.2001C12.3996 6.0001 14.4996 4.9001 16.5996 4.1001C20.7996 2.5001 25.1996 2.0001 28.3996 2.0001C29.1996 2.0001 29.8996 2.1001 30.5996 2.1001C31.1996 2.1001 31.7996 2.2001 32.2996 2.3001C33.1996 2.4001 33.6996 2.5001 33.6996 2.5001C33.6996 2.5001 34.1996 2.6001 35.0996 2.7001C35.5996 2.8001 36.0996 2.9001 36.6996 3.1001C36.9996 3.2001 37.2996 3.3001 37.6996 3.3001C38.1996 3.4001 38.4996 3.6001 38.8996 3.7001C40.3996 4.1001 42.1996 4.9001 43.9996 5.8001C44.3996 6.1001 44.8996 6.3001 45.3996 6.6001C45.8996 6.8001 46.2996 7.1001 46.7996 7.4001C47.6996 8.0001 48.6996 8.6001 49.4996 9.4001C50.2996 10.1001 50.9996 11.0001 51.4996 12.0001C51.8996 13.0001 52.0996 14.1001 51.7996 15.1001C51.4996 16.1001 50.8996 17.0001 49.9996 17.5001C49.1996 18.1001 48.0996 18.5001 47.1996 18.8001C45.8996 19.2001 44.7996 19.5001 44.2996 19.7001C42.2996 20.2001 41.1996 20.6001 39.3996 20.8001C41.0996 20.6001 42.2996 20.5001 44.3996 20.1001C44.9996 20.0001 46.0996 19.8001 47.3996 19.4001C48.2996 19.2001 49.3996 18.8001 50.3996 18.2001C51.3996 17.6001 52.2996 16.6001 52.5996 15.4001C52.9996 14.2001 52.7996 12.8001 52.2996 11.7001C51.7996 10.5001 50.9996 9.5001 50.0996 8.7001C49.2996 7.7001 48.3996 7.0001 47.4996 6.4001C46.9996 6.0001 46.4996 5.7001 45.9996 5.5001C45.4996 5.2001 45.0996 4.9001 44.5996 4.7001C42.6996 3.7001 40.8996 2.9001 39.2996 2.5001C38.8996 2.4001 38.4996 2.2001 38.1996 2.1001C37.7996 2.0001 37.4996 1.9001 37.1996 1.8001C36.4996 1.6001 35.8996 1.5001 35.4996 1.4001C34.5996 1.2001 33.9996 1.1001 33.9996 1.1001C33.9996 1.1001 33.4996 1.0001 32.4996 0.900098C31.9996 0.900098 31.4996 0.800098 30.7996 0.700098C30.0996 0.700098 29.3996 0.600098 28.4996 0.600098C25.1996 0.600098 20.5996 1.1001 16.1996 2.9001C13.9996 3.8001 11.8996 5.0001 9.99961 6.3001C8.19961 7.8001 6.49961 9.5001 5.49961 11.4001C5.29961 11.9001 4.99961 12.4001 4.89961 12.9001C4.79961 13.1001 4.79961 13.4001 4.69961 13.6001C4.69961 13.8001 4.59961 14.0001 4.59961 14.3001C4.59961 14.6001 4.59961 14.9001 4.59961 15.2001C4.69961 15.7001 4.69961 16.2001 4.79961 16.5001C5.09961 17.6001 5.79961 18.2001 6.39961 18.6001C7.19961 18.8001 7.99961 19.0001 8.79961 18.6001Z" fill="black"/>
<path d="M9.29883 19C10.9988 19.3 12.0988 19.8 14.1988 20.2C14.4988 20.3 15.0988 20.4 16.2988 20.5C16.8988 20.6 17.9988 20.7 18.9988 20.8C19.8988 20.9 20.6988 20.9 20.6988 20.9C20.6988 20.9 21.2988 20.9 22.1988 21C22.9988 21 23.9988 21 24.7988 21C26.3988 21 27.3988 20.9 27.8988 20.9C29.9988 20.8 31.1988 20.4 32.8988 20.3C31.1988 20.4 29.9988 20.1 27.8988 20C27.3988 20 26.3988 19.9 24.7988 19.8C23.3988 19.7 20.7988 19.6 20.7988 19.6C20.7988 19.6 17.6988 19.4 16.3988 19.3C15.1988 19.2 14.5988 19.2 14.2988 19.2C12.1988 19.1 10.9988 19.3 9.29883 19Z" fill="black"/>
<path d="M34.5 18.4002C35.2 18.4002 35.7 18.6002 36.5 18.6002C36.7 18.6002 37.2 18.6002 37.7 18.7002C38.3 18.7002 38.9 18.7002 39.5 18.7002C40.7 18.6002 41.9 18.5002 41.9 18.5002C41.9 18.5002 43 18.4002 44.3 18.1002C44.9 18.0002 45.5 17.8002 46.1 17.7002C46.6 17.6002 47.1 17.4002 47.3 17.3002C48.1 17.0002 48.5 16.6002 49.1 16.2002C48.5 16.5002 48 16.5002 47.2 16.6002C46.8 16.7002 45.4 16.7002 44.2 16.9002C43 17.0002 41.9 17.2002 41.9 17.2002C41.9 17.2002 40.8 17.4002 39.6 17.5002C38.4 17.7002 37.1 17.9002 36.6 18.0002C35.6 18.1002 35.2 18.3002 34.5 18.4002Z" fill="black"/>
<path d="M46.1992 9.3999C46.4992 9.4999 46.5992 9.7999 46.7992 10.0999C46.9992 10.3999 48.2992 11.7999 48.2992 11.7999C48.2992 11.7999 49.4992 13.1999 49.6992 13.4999C49.9992 13.7999 50.1992 13.8999 50.2992 14.1999C50.1992 13.8999 50.3992 13.5999 50.2992 13.1999C50.2992 13.0999 50.2992 12.8999 50.1992 12.5999C50.0992 12.2999 49.9992 12.0999 49.8992 11.7999C49.5992 11.2999 49.2992 10.8999 49.2992 10.8999C49.2992 10.8999 48.8992 10.3999 48.4992 10.0999C48.2992 9.8999 47.9992 9.7999 47.6992 9.6999C47.4992 9.5999 47.1992 9.4999 47.1992 9.4999C46.7992 9.3999 46.4992 9.4999 46.1992 9.3999Z" fill="black"/>
<path d="M18.8991 13.2002C18.7991 13.3002 18.5991 13.2002 18.3991 13.2002C18.2991 13.2002 17.9991 13.4002 17.7991 13.6002C17.5991 13.8002 17.5991 14.1002 17.5991 14.1002C17.5991 14.1002 17.4991 14.3002 17.5991 14.6002C17.5991 14.7002 17.6991 14.9002 17.6991 15.0002C17.6991 15.1002 17.7991 15.2002 17.8991 15.2002C18.0991 15.4002 18.2991 15.4002 18.2991 15.5002C18.2991 15.4002 18.4991 15.3002 18.5991 15.1002C18.6991 15.0002 18.7991 14.8002 18.8991 14.7002C18.9991 14.6002 18.9991 14.4002 18.9991 14.4002C18.9991 14.4002 18.9991 14.3002 19.0991 14.1002C19.0991 13.9002 19.0991 13.7002 19.0991 13.6002C18.8991 13.5002 18.7991 13.3002 18.8991 13.2002Z" fill="black"/>
<path d="M23.5992 8.2002C23.4992 8.3002 23.2992 8.3002 23.0992 8.4002C22.9992 8.5002 22.6992 8.7002 22.4992 8.9002C22.2992 9.1002 22.2992 9.4002 22.2992 9.4002C22.2992 9.4002 22.1992 9.7002 22.1992 9.9002C22.1992 10.2002 22.2992 10.5002 22.2992 10.6002C22.3992 10.8002 22.5992 10.9002 22.5992 11.1002C22.5992 11.0002 22.7992 10.9002 22.9992 10.8002C23.0992 10.7002 23.2992 10.5002 23.3992 10.3002C23.4992 10.1002 23.5992 9.9002 23.5992 9.9002C23.5992 9.9002 23.6992 9.7002 23.6992 9.5002C23.6992 9.3002 23.6992 9.0002 23.6992 8.9002C23.5992 8.6002 23.4992 8.4002 23.5992 8.2002Z" fill="black"/>
<path d="M26.8996 12.8003C26.8996 12.9003 26.6996 12.9003 26.4996 13.0003C26.3996 13.1003 26.1996 13.2003 26.1996 13.4003C26.0996 13.6003 26.0996 13.7003 26.0996 13.7003C26.0996 13.7003 26.0996 13.9003 26.0996 14.1003C26.0996 14.3003 26.1996 14.5003 26.2996 14.6003C26.3996 14.7003 26.5996 14.8003 26.5996 14.9003C26.5996 14.8003 26.7996 14.8003 26.9996 14.7003C27.0996 14.6003 27.2996 14.5003 27.2996 14.3003C27.3996 14.1003 27.3996 14.0003 27.3996 14.0003C27.3996 14.0003 27.3996 13.8003 27.3996 13.6003C27.3996 13.4003 27.2996 13.2003 27.1996 13.1003C27.0996 13.0003 26.8996 12.9003 26.8996 12.8003Z" fill="black"/>
<path d="M35.7987 12.5C35.7987 12.6 35.6987 12.8 35.6987 13C35.6987 13.1 35.5987 13.4 35.6987 13.6C35.6987 13.8 35.7987 14 35.7987 14C35.7987 14 35.8987 14.2 35.9987 14.3C36.0987 14.5 36.3987 14.6 36.4987 14.6C36.6987 14.7 36.8987 14.7 36.9987 14.8C36.9987 14.7 37.0987 14.5 37.1987 14.3C37.1987 14.2 37.2987 13.9 37.1987 13.7C37.1987 13.5 37.0987 13.3 37.0987 13.3C37.0987 13.3 36.9987 13.1 36.8987 12.9C36.6987 12.7 36.4987 12.6 36.3987 12.6C36.0987 12.6 35.8987 12.6 35.7987 12.5Z" fill="black"/>
<path d="M33.7988 16.5C33.7988 16.6 33.5988 16.7 33.4988 16.9C33.4988 17 33.2988 17.2 33.2988 17.4C33.2988 17.6 33.2988 17.8 33.2988 17.8C33.2988 17.8 33.2988 18 33.3988 18.2C33.4988 18.4 33.6988 18.6 33.6988 18.6C33.8988 18.7 34.0988 18.8 34.0988 18.9C34.0988 18.8 34.2988 18.7 34.3988 18.5C34.3988 18.4 34.5988 18.2 34.5988 18C34.5988 17.8 34.5988 17.6 34.5988 17.6C34.5988 17.6 34.5988 17.4 34.4988 17.2C34.3988 17 34.1988 16.8 34.1988 16.8C34.0988 16.6 33.8988 16.6 33.7988 16.5Z" fill="black"/>
<path d="M40.9996 10.5C40.9996 10.7 40.7996 10.8 40.6996 11C40.6996 11.1 40.5996 11.2 40.5996 11.3C40.5996 11.4 40.5996 11.6 40.5996 11.8C40.5996 12.1 40.7996 12.4 40.7996 12.4C40.7996 12.4 40.8996 12.7 41.0996 12.9C41.2996 13.2 41.6996 13.3 41.7996 13.4C41.9996 13.5 42.2996 13.4 42.3996 13.5C42.2996 13.4 42.2996 13.2 42.2996 13C42.2996 12.9 42.1996 12.6 42.1996 12.4C42.0996 12.2 41.9996 12 41.9996 12C41.9996 12 41.8996 11.8 41.7996 11.6C41.6996 11.4 41.4996 11.2 41.3996 11.1C41.1996 10.7 40.9996 10.6 40.9996 10.5Z" fill="black"/>
<path d="M14.2 9.5C14.1 9.6 13.9 9.7 13.7 9.8C13.6 9.9 13.3 10.1 13.1 10.3C12.9 10.5 12.8 10.8 12.8 10.8C12.8 10.8 12.7 11 12.6 11.3C12.5 11.4 12.5 11.8 12.5 11.9C12.5 12.1 12.6 12.3 12.6 12.5C12.7 12.4 12.9 12.4 13.1 12.3C13.2 12.2 13.5 12 13.7 11.8C13.9 11.6 14 11.3 14 11.3C14 11.3 14.1 11.1 14.2 10.8C14.3 10.5 14.3 10.2 14.3 10C14.3 9.8 14.2 9.6 14.2 9.5Z" fill="black"/>
<path d="M9.1003 12.8003C9.0003 12.9003 8.8003 12.8003 8.5003 12.9003C8.4003 12.9003 8.0003 13.1003 7.8003 13.3003C7.6003 13.5003 7.5003 13.7003 7.5003 13.7003C7.5003 13.7003 7.3003 13.9003 7.3003 14.3003C7.2003 14.6003 7.3003 15.0003 7.3003 15.1003C7.4003 15.3003 7.5003 15.5003 7.5003 15.6003C7.6003 15.5003 7.8003 15.4003 8.0003 15.3003C8.1003 15.2003 8.3003 15.0003 8.5003 14.8003C8.7003 14.6003 8.8003 14.4003 8.8003 14.4003C8.8003 14.4003 8.9003 14.2003 9.0003 14.0003C9.1003 13.8003 9.2003 13.5003 9.2003 13.3003C9.1003 13.1003 9.0003 12.9003 9.1003 12.8003Z" fill="black"/>
<path d="M31.8004 8.6001C31.8004 8.7001 31.6004 8.7001 31.4004 8.7001C31.3004 8.7001 31.1004 8.9001 31.0004 9.0001C30.9004 9.2001 30.9004 9.3001 30.9004 9.3001C30.9004 9.3001 30.9004 9.5001 30.9004 9.7001C30.9004 9.9001 31.1004 10.1001 31.2004 10.1001C31.3004 10.2001 31.5004 10.3001 31.6004 10.3001C31.6004 10.2001 31.8004 10.1001 31.9004 10.0001C32.0004 9.9001 32.1004 9.8001 32.2004 9.7001C32.3004 9.6001 32.3004 9.5001 32.3004 9.5001C32.3004 9.5001 32.3004 9.4001 32.3004 9.2001C32.3004 9.1001 32.2004 8.9001 32.1004 8.8001C32.0004 8.8001 31.8004 8.7001 31.8004 8.6001Z" fill="black"/>
<path d="M41.1992 7.1001C41.2992 7.2001 41.1992 7.4001 41.1992 7.6001C41.1992 7.7001 41.2992 8.0001 41.3992 8.1001C41.3992 8.3001 41.4992 8.4001 41.4992 8.4001C41.4992 8.4001 41.5992 8.5001 41.7992 8.6001C41.9992 8.7001 42.1992 8.7001 42.2992 8.8001C42.4992 8.8001 42.6992 8.7001 42.7992 8.8001C42.6992 8.7001 42.7992 8.5001 42.7992 8.3001C42.7992 8.2001 42.6992 7.9001 42.5992 7.8001C42.5992 7.6001 42.4992 7.5001 42.4992 7.5001C42.4992 7.5001 42.3992 7.4001 42.1992 7.3001C41.9992 7.2001 41.7992 7.2001 41.6992 7.1001C41.3992 7.1001 41.2992 7.2001 41.1992 7.1001Z" fill="black"/>
<path d="M46.9996 14.1001C46.9996 14.2001 46.7996 14.3001 46.6996 14.5001C46.6996 14.5001 46.5996 14.6001 46.5996 14.8001C46.5996 14.9001 46.5996 15.0001 46.5996 15.2001C46.5996 15.4001 46.7996 15.6001 46.7996 15.6001C46.7996 15.6001 46.8996 15.8001 47.0996 15.9001C47.2996 16.1001 47.5996 16.1001 47.6996 16.1001C47.8996 16.1001 48.0996 16.0001 48.1996 16.0001C48.0996 15.9001 48.1996 15.7001 48.1996 15.5001C48.1996 15.4001 48.1996 15.2001 48.0996 15.0001C47.9996 14.8001 47.9996 14.7001 47.9996 14.7001C47.9996 14.7001 47.8996 14.6001 47.7996 14.5001C47.6996 14.4001 47.4996 14.3001 47.3996 14.2001C47.2996 14.3001 47.0996 14.2001 46.9996 14.1001Z" fill="black"/>
<path d="M6.20037 25.7002C5.90037 26.0002 5.50037 26.1002 5.10037 26.5002C4.90037 26.7002 4.20038 27.4002 3.90038 28.2002C3.50038 28.9002 3.50037 29.7002 3.50037 29.7002C3.50037 29.7002 3.40038 30.5002 3.70038 31.4002C3.80038 31.8002 4.00037 32.3002 4.30037 32.6002C4.50037 32.9002 4.80038 33.1002 4.90038 33.3002C5.30038 33.7002 5.60038 33.7002 6.00038 33.9002C5.60038 33.7002 5.50038 33.3002 5.30038 32.8002C5.20038 32.6002 4.90038 31.8002 4.80038 31.1002C4.70038 30.4002 4.80038 29.8002 4.80038 29.8002C4.80038 29.8002 4.80038 29.2002 5.00038 28.5002C5.20038 27.8002 5.50037 27.0002 5.60037 26.8002C5.90037 26.3002 5.90037 26.0002 6.20037 25.7002Z" fill="black"/>
<path d="M52.9 25.2002C53.4 25.6002 53.5 26.1002 53.7 26.7002C53.8 27.1002 54.1 28.2002 54.1 29.2002C54.1 29.7002 54.1 30.2002 54 30.5002C53.9 30.9002 53.9 31.0002 53.9 31.0002C53.9 31.0002 53.8 31.2002 53.7 31.4002C53.5 31.6002 53.2 32.0002 52.8 32.3002C52 32.9002 51 33.5002 50.6 33.7002C50 34.1002 49.6 34.4002 49 34.6002C49.6 34.4002 50.1 34.5002 50.8 34.3002C51.2 34.2002 52.4 33.9002 53.4 33.2002C53.9 32.9002 54.4 32.5002 54.7 32.1002C55 31.7002 55.1 31.4002 55.1 31.4002C55.1 31.4002 55.2 31.0002 55.3 30.6002C55.4 30.2002 55.4 29.6002 55.3 29.0002C55.1 27.8002 54.5 26.7002 54.3 26.3002C53.8 25.7002 53.4 25.5002 52.9 25.2002Z" fill="black"/>
<path d="M5.19922 34.1001C5.69922 34.3001 5.99922 34.7001 6.49922 35.1001C6.69922 35.2001 6.99922 35.4001 7.39922 35.6001C7.79922 35.8001 8.29922 36.0001 8.69922 36.2001C9.59922 36.6001 10.4992 36.8001 10.4992 36.8001C10.4992 36.8001 11.3992 37.1001 12.3992 37.2001C13.3992 37.4001 14.4992 37.4001 14.8992 37.4001C15.5992 37.4001 15.9992 37.3001 16.4992 37.3001C15.9992 37.2001 15.5992 36.9001 14.9992 36.7001C14.6992 36.6001 13.5992 36.2001 12.6992 35.9001C11.7992 35.6001 10.8992 35.4001 10.8992 35.4001C10.8992 35.4001 9.99922 35.2001 9.09922 34.9001C8.19922 34.6001 7.09922 34.4001 6.79922 34.3001C6.19922 34.2001 5.69922 34.3001 5.19922 34.1001Z" fill="black"/>
<path d="M21.1992 36.9003C22.8992 37.1003 24.0992 37.5003 26.1992 37.7003C26.5992 37.7003 27.0992 37.8003 28.2992 37.9003C29.0992 38.0003 30.4992 38.0003 31.5992 38.0003C32.7992 38.0003 33.6992 38.0003 33.6992 38.0003C33.6992 38.0003 34.4992 38.0003 35.4992 37.9003C36.4992 37.8003 37.6992 37.7003 38.5992 37.6003C40.1992 37.4003 41.1992 37.2003 41.6992 37.1003C43.7992 36.7003 44.8992 36.2003 46.5992 35.8003C44.8992 36.1003 43.6992 36.0003 41.5992 36.2003C41.0992 36.2003 40.0992 36.3003 38.4992 36.4003C36.7992 36.5003 33.5992 36.7003 33.5992 36.7003C33.5992 36.7003 32.6992 36.7003 31.4992 36.8003C30.3992 36.8003 28.9992 36.9003 28.1992 36.9003C26.9992 36.9003 26.3992 36.9003 26.0992 36.9003C24.0992 36.9003 22.8992 37.1003 21.1992 36.9003Z" fill="black"/>
<path d="M53.5988 33.2002C53.6988 33.8002 53.5988 34.3002 53.4988 34.9002C53.4988 35.3002 53.0988 36.3002 52.6988 37.3002C52.5988 37.5002 52.4988 37.8002 52.3988 38.0002C52.2988 38.2002 52.1988 38.3002 52.0988 38.4002C51.8988 38.7002 51.6988 38.8002 51.6988 38.8002C51.6988 38.8002 51.0988 39.4002 50.1988 40.0002C49.2988 40.6002 48.2988 41.1002 47.8988 41.3002C47.2988 41.6002 46.8988 41.9002 46.2988 42.1002C46.8988 42.0002 47.3988 42.1002 48.0988 42.0002C48.4988 41.9002 49.6988 41.7002 50.7988 41.2002C51.2988 40.9002 51.7988 40.6002 52.0988 40.4002C52.3988 40.1002 52.5988 39.9002 52.5988 39.9002C52.5988 39.9002 52.5988 39.8002 52.6988 39.8002C52.7988 39.7002 52.8988 39.6002 52.9988 39.4002C53.0988 39.2002 53.2988 39.0002 53.3988 38.7002C53.4988 38.5002 53.5988 38.2002 53.6988 37.9002C53.8988 37.4002 53.9988 36.8002 54.0988 36.2002C54.1988 35.7002 54.0988 35.2002 54.0988 35.0002C53.9988 34.1002 53.6988 33.7002 53.5988 33.2002Z" fill="black"/>
<path d="M5.19856 34.3003C4.79856 35.1003 4.79856 35.9003 4.99856 36.6003C5.19856 37.4003 5.59856 38.1003 6.19856 39.0003C6.39856 39.2003 6.49856 39.4003 6.69856 39.7003C6.79856 39.8003 6.99856 40.0003 7.09856 40.1003C7.29856 40.3003 7.49856 40.4003 7.79856 40.6003C8.79856 41.3003 10.1986 42.0003 11.7986 42.6003C13.3986 43.2003 15.1986 43.6003 16.8986 43.9003C18.5986 44.2003 20.0986 44.3003 21.1986 44.4003C22.2986 44.5003 22.9986 44.5003 22.9986 44.5003C22.9986 44.5003 25.2986 44.6003 28.1986 44.7003C31.0986 44.8003 34.6986 44.7003 37.2986 44.4003C38.8986 44.2003 39.8986 44.0003 40.3986 43.9003C42.4986 43.5003 43.5986 43.0003 45.1986 42.6003C43.4986 43.1003 42.2986 43.1003 40.2986 43.3003C39.7986 43.3003 38.7986 43.4003 37.1986 43.5003C34.6986 43.6003 31.1986 43.5003 28.1986 43.4003C25.2986 43.3003 22.9986 43.2003 22.9986 43.2003C22.9986 43.2003 22.2986 43.2003 21.1986 43.1003C20.0986 43.0003 18.5986 42.9003 16.9986 42.7003C15.3986 42.5003 13.6986 42.1003 12.0986 41.6003C10.4986 41.1003 9.09856 40.5003 8.19856 39.9003C7.89856 39.8003 7.79856 39.6003 7.59856 39.5003C7.39856 39.4003 7.29856 39.3003 7.19856 39.1003C6.99856 38.9003 6.79856 38.7003 6.69856 38.6003C5.99856 37.9003 5.49856 37.2003 5.19856 36.5003C4.89856 35.9003 4.79856 35.1003 5.19856 34.3003Z" fill="black"/>
<path d="M7.19922 26.2002C8.19922 27.7002 8.59922 28.8002 9.69922 30.5002C9.89922 30.8002 10.1992 31.3002 10.7992 32.3002C11.1992 32.9002 11.6992 33.8002 12.2992 34.8002C12.4992 35.0002 12.5992 35.3002 12.7992 35.5002C12.9992 35.8002 13.2992 36.2002 13.8992 36.2002C14.3992 36.3002 14.6992 36.1002 14.9992 36.1002C15.2992 36.0002 15.4992 35.9002 15.7992 35.8002C17.8992 35.1002 19.5992 34.5002 19.5992 34.5002C19.5992 34.5002 20.9992 34.0002 22.7992 33.3002C24.5992 32.6002 26.7992 31.7002 28.2992 31.0002C29.7992 30.4002 30.5992 29.9002 31.0992 29.7002C32.9992 28.8002 33.9992 28.1002 35.5992 27.4002C33.9992 28.1002 32.7992 28.3002 30.8992 29.0002C30.3992 29.2002 29.4992 29.5002 27.9992 30.0002C24.7992 31.1002 19.1992 33.1002 19.1992 33.1002C19.1992 33.1002 17.4992 33.7002 15.3992 34.4002C14.8992 34.6002 14.1992 34.8002 14.0992 34.8002C13.9992 34.8002 13.9992 34.8002 13.7992 34.6002C13.6992 34.4002 13.4992 34.2002 13.2992 33.9002C12.5992 33.0002 11.9992 32.2002 11.5992 31.6002C10.8992 30.6002 10.4992 30.2002 10.2992 29.9002C8.99922 28.5002 8.19922 27.6002 7.19922 26.2002Z" fill="black"/>
<path d="M3.79952 15.5002C3.49952 15.2002 3.09952 15.0002 2.69952 14.9002C2.59952 14.9002 2.49952 14.8002 2.39952 14.8002C2.29952 14.8002 2.19952 14.8002 1.99952 14.7002C1.79952 14.7002 1.69952 14.7002 1.49952 14.7002C1.39952 14.7002 1.29952 14.7002 1.19952 14.7002C1.09952 14.7002 0.999523 14.7002 0.999523 14.8002C1.09952 15.0002 1.29952 15.2002 1.49952 15.5002C1.59952 15.7002 1.59952 15.7002 1.69952 15.8002C1.69952 15.9002 1.79952 16.0002 1.79952 16.0002C1.89952 16.3002 1.89952 16.6002 1.69952 17.0002C1.59952 17.1002 1.49952 17.3002 1.39952 17.5002C1.29952 17.6002 1.19952 17.8002 0.999523 17.9002C0.899523 18.0002 0.799523 18.1002 0.699523 18.3002C0.599523 18.5002 0.499523 18.7002 0.499523 18.9002C0.399523 19.1002 0.499523 19.5002 0.499523 19.8002C0.599523 20.1002 0.699523 20.3002 0.699523 20.3002C0.699523 20.3002 0.799523 20.5002 0.899523 20.7002C0.999523 20.9002 1.19952 21.2002 1.39952 21.3002C1.59952 21.5002 1.79952 21.6002 1.99952 21.7002C2.19952 21.8002 2.39952 21.9002 2.59952 21.9002C2.99952 22.0002 3.29952 22.1002 3.59952 22.1002C4.09952 22.2002 4.49952 22.2002 4.79952 22.2002C5.79952 22.3002 6.49952 22.4002 7.19952 22.7002C7.89952 23.0002 8.59952 23.3002 9.09952 24.0002C8.59952 23.3002 8.09952 22.8002 7.49952 22.2002C6.89952 21.7002 6.09952 21.2002 4.99952 21.0002C4.79952 21.0002 4.39952 20.9002 3.89952 20.8002C3.69952 20.8002 3.39952 20.7002 3.19952 20.6002C3.09952 20.6002 2.99952 20.5002 2.79952 20.4002C2.69952 20.3002 2.59952 20.3002 2.49952 20.2002C2.29952 20.0002 2.09952 19.6002 2.09952 19.6002C2.09952 19.6002 1.99952 19.5002 1.99952 19.3002C1.99952 19.2002 1.99952 19.0002 1.99952 18.9002C1.99952 18.8002 1.99952 18.8002 2.09952 18.7002C2.09952 18.6002 2.19952 18.6002 2.19952 18.5002C2.29952 18.3002 2.39952 18.1002 2.49952 18.0002C2.69952 17.7002 2.79952 17.4002 2.89952 17.2002C3.09952 16.6002 2.99952 15.8002 2.69952 15.4002C2.49952 15.6002 2.49952 15.5002 2.39952 15.5002L2.29952 15.4002L2.19952 15.3002L2.09952 15.2002C2.09952 15.2002 2.19952 15.2002 2.19952 15.1002C2.19952 15.1002 2.29952 15.1002 2.39952 15.1002C2.49952 15.1002 2.59952 15.1002 2.69952 15.1002C3.09952 15.1002 3.49952 15.3002 3.79952 15.5002Z" fill="black"/>
<path d="M6.69922 22.0999C6.79922 22.5999 6.69922 22.9999 6.99922 23.5999C7.09922 23.6999 7.29922 24.0999 7.59922 24.2999C7.89922 24.5999 8.39922 24.8999 8.89922 24.9999C9.39922 25.0999 9.89922 25.0999 10.1992 25.0999C10.4992 25.0999 10.7992 24.9999 10.7992 24.9999C10.7992 24.9999 11.6992 24.7999 12.3992 24.1999C13.1992 23.5999 13.6992 22.7999 13.8992 22.5999C14.1992 22.0999 14.2992 21.6999 14.5992 21.3999C14.2992 21.6999 13.8992 21.7999 13.3992 22.1999C13.0992 22.3999 12.3992 22.8999 11.6992 23.2999C10.9992 23.6999 10.3992 23.8999 10.3992 23.8999C10.3992 23.8999 9.79922 24.0999 9.09922 23.9999C8.49922 23.6999 7.69922 23.2999 7.49922 23.0999C7.09922 22.7999 6.79922 22.5999 6.69922 22.0999Z" fill="black"/>
<path d="M13.4004 23.4999C13.6004 22.9999 14.2004 22.9999 14.6004 23.1999C14.7004 23.2999 14.9004 23.3999 15.2004 23.6999C15.5004 23.9999 15.7004 24.3999 16.2004 24.7999C16.6004 25.1999 17.4004 25.4999 17.9004 25.3999C18.4004 25.2999 18.6004 25.1999 18.6004 25.1999C18.6004 25.1999 18.9004 25.0999 19.2004 24.7999C19.5004 24.5999 19.9004 24.1999 20.2004 23.8999C20.5004 23.5999 20.9004 23.2999 21.2004 23.1999C21.5004 23.0999 21.7004 23.1999 21.9004 23.1999C22.5004 23.3999 23.0004 23.6999 23.5004 23.4999C23.2004 23.5999 23.0004 23.3999 22.8004 23.1999C22.6004 22.9999 22.5004 22.7999 22.2004 22.4999C22.1004 22.3999 21.6004 21.9999 21.0004 22.0999C20.4004 22.0999 19.8004 22.3999 19.4004 22.7999C18.9004 23.0999 18.6004 23.3999 18.4004 23.5999C18.2004 23.7999 18.0004 23.7999 18.0004 23.7999C18.0004 23.7999 17.8004 23.8999 17.7004 23.8999C17.5004 23.8999 17.3004 23.8999 16.9004 23.6999C16.6004 23.4999 16.2004 23.0999 15.8004 22.7999C15.4004 22.4999 15.0004 22.2999 14.7004 22.2999C14.3004 22.1999 13.9004 22.3999 13.7004 22.5999C13.6004 22.9999 13.5004 23.1999 13.4004 23.4999Z" fill="black"/>
<path d="M23.4004 24.5001C24.0004 23.8001 24.6004 23.5001 25.3004 23.2001C25.7004 23.1001 26.0004 23.0001 26.4004 23.0001C26.6004 23.0001 26.8004 23.0001 27.0004 23.0001C27.3004 23.0001 27.3004 23.0001 27.3004 23.0001V23.1001C27.3004 23.2001 27.3004 23.3001 27.2004 23.4001C27.1004 23.6001 27.1004 23.7001 27.0004 23.9001C26.9004 24.1001 26.7004 24.4001 26.9004 25.0001C27.0004 25.3001 27.4004 25.6001 27.7004 25.7001C28.0004 25.8001 28.3004 25.8001 28.5004 25.8001C29.0004 25.8001 29.6004 25.7001 30.2004 25.5001C31.3004 25.1001 32.3004 24.5001 33.2004 24.0001C34.1004 23.5001 34.9004 23.1001 35.5004 23.0001C35.8004 22.9001 35.9004 23.0001 35.8004 23.0001C35.8004 23.1001 35.8004 22.8001 35.8004 23.5001C35.8004 23.7001 35.8004 23.9001 35.8004 24.2001C35.8004 24.5001 36.0004 24.8001 36.2004 25.1001C36.8004 25.6001 37.5004 25.7001 38.1004 25.5001C38.4004 25.4001 38.8004 25.2001 39.0004 25.1001C39.2004 24.9001 39.4004 24.7001 39.6004 24.6001C40.0004 24.2001 40.3004 23.9001 40.6004 23.8001C41.2004 23.5001 42.2004 23.9001 42.9004 24.1001C43.6004 24.4001 44.3004 24.6001 44.9004 24.6001C45.5004 24.7001 45.9004 24.6001 46.1004 24.6001C47.2004 24.4001 48.0004 24.0001 48.6004 23.6001C49.3004 23.2001 49.8004 22.7001 50.5004 22.1001C49.8004 22.7001 49.2004 23.0001 48.5004 23.3001C47.8004 23.6001 47.0004 23.8001 46.1004 23.9001C45.9004 23.9001 45.5004 23.9001 45.1004 23.8001C44.6004 23.7001 44.1004 23.5001 43.4004 23.2001C43.0004 23.0001 42.6004 22.8001 42.1004 22.7001C41.6004 22.6001 40.9004 22.5001 40.3004 22.7001C39.6004 22.9001 39.2004 23.4001 38.8004 23.7001C38.4004 24.0001 38.1004 24.3001 37.9004 24.3001C37.6004 24.4001 37.3004 24.3001 37.3004 24.2001C37.3004 24.2001 37.2004 24.1001 37.3004 23.8001C37.3004 23.5001 37.4004 23.2001 37.3004 22.8001C37.2004 22.5001 37.1004 22.3001 37.1004 22.3001C37.1004 22.3001 37.0004 22.1001 36.6004 21.9001C36.2004 21.7001 35.7004 21.7001 35.3004 21.8001C34.5004 22.0001 33.6004 22.4001 32.6004 23.0001C31.7004 23.6001 30.7004 24.2001 29.8004 24.6001C29.3004 24.8001 28.9004 24.9001 28.5004 24.9001C28.3004 24.9001 28.1004 24.9001 28.0004 24.9001C27.9004 24.9001 27.9004 24.9001 27.9004 24.8001C27.9004 24.8001 27.9004 24.5001 27.9004 24.3001C28.0004 24.1001 28.0004 23.9001 28.1004 23.7001C28.1004 23.5001 28.2004 23.4001 28.2004 23.2001C28.2004 23.0001 28.2004 22.9001 28.1004 22.7001C28.0004 22.6001 28.0004 22.5001 27.9004 22.4001C27.8004 22.4001 27.7004 22.4001 27.6004 22.3001C27.3004 22.3001 27.3004 22.3001 27.1004 22.3001C26.8004 22.3001 26.6004 22.4001 26.4004 22.4001C26.0004 22.5001 25.6004 22.7001 25.2004 22.8001C24.5004 23.4001 24.0004 23.9001 23.4004 24.5001Z" fill="black"/>
<path d="M50.4004 22.8001C50.8004 22.5001 51.1004 22.4001 51.5004 22.4001C51.7004 22.4001 51.9004 22.4001 52.0004 22.4001C52.1004 22.4001 52.1004 22.6001 52.1004 22.8001C52.2004 23.7001 53.3004 24.6001 54.6004 24.2001C54.8004 24.1001 55.1004 24.0001 55.4004 23.7001C55.7004 23.4001 56.1004 23.0001 56.4004 22.4001C56.5004 22.2001 56.6004 21.8001 56.7004 21.4001C56.7004 21.2001 56.8004 21.1001 56.8004 21.1001C56.8004 21.0001 56.8004 21.1001 56.9004 21.0001C57.0004 20.9001 57.4004 20.9001 57.7004 20.7001C58.0004 20.5001 58.2004 20.3001 58.2004 20.3001C58.2004 20.3001 58.3004 20.1001 58.4004 19.8001C58.5004 19.5001 58.5004 19.1001 58.4004 18.7001C58.3004 18.3001 58.2004 18.0001 58.0004 17.7001C57.8004 17.4001 57.7004 17.1001 57.5004 16.9001C57.2004 16.5001 56.9004 16.2001 56.5004 16.0001C56.4004 15.9001 56.3004 15.9001 56.2004 15.9001L56.3004 15.8001C56.5004 15.6001 56.6004 15.2001 56.6004 15.0001C56.6004 14.5001 56.2004 14.2001 55.8004 14.1001C55.6004 14.1001 55.3004 14.2001 55.2004 14.2001C55.1004 14.3001 55.0004 14.3001 54.9004 14.4001C54.5004 14.6001 54.2004 14.8001 53.8004 14.9001C53.4004 15.1001 53.1004 15.2001 52.7004 15.3001C52.5004 15.4001 52.3004 15.4001 52.1004 15.3001C51.9004 15.3001 51.7004 15.1001 51.8004 14.9001C51.7004 15.1001 51.9004 15.3001 52.1004 15.4001C52.3004 15.5001 52.5004 15.5001 52.7004 15.5001C53.1004 15.5001 53.5004 15.5001 53.9004 15.4001C54.3004 15.4001 54.7004 15.3001 55.1004 15.2001C55.2004 15.2001 55.3004 15.1001 55.4004 15.1001C55.5004 15.1001 55.4004 15.1001 55.5004 15.1001C55.5004 15.1001 55.4004 15.3001 55.3004 15.3001C55.2004 15.5001 55.1004 15.7001 55.1004 15.9001C55.1004 16.1001 55.2004 16.4001 55.4004 16.6001C55.5004 16.7001 55.6004 16.8001 55.8004 16.8001C55.9004 16.8001 55.9004 16.9001 55.9004 16.9001C56.1004 17.0001 56.3004 17.2001 56.4004 17.5001C56.5004 17.7001 56.7004 18.0001 56.8004 18.2001C56.9004 18.4001 57.0004 18.7001 57.1004 18.9001C57.2004 19.1001 57.1004 19.3001 57.1004 19.3001C57.1004 19.4001 57.1004 19.4001 57.1004 19.4001C57.1004 19.4001 57.1004 19.4001 57.0004 19.5001C56.9004 19.6001 56.7004 19.6001 56.2004 19.8001C56.0004 19.9001 55.7004 20.2001 55.6004 20.5001C55.5004 20.8001 55.4004 21.0001 55.4004 21.2001C55.3004 21.5001 55.3004 21.8001 55.2004 22.0001C54.8004 22.9001 54.4004 23.2001 54.2004 23.3001C53.6004 23.6001 52.7004 23.3001 52.5004 22.7001C52.4004 22.6001 52.4004 22.2001 52.1004 22.2001C51.8004 22.2001 51.7004 22.3001 51.5004 22.3001C51.1004 22.4001 50.8004 22.6001 50.4004 22.8001Z" fill="black"/>
<path d="M30.9004 31.4C32.6004 31.5 33.8004 32 35.8004 32.5C36.1004 32.6 36.7004 32.7 37.8004 33C39.2004 33.4 42.4004 34.2 42.4004 34.2C42.4004 34.2 43.1004 34.4 44.0004 34.6C44.4004 34.7 44.9004 34.8 45.4004 34.9C45.7004 35 46.0004 35 46.3004 35C46.7004 35 47.0004 34.8 47.2004 34.6C47.6004 34.2 47.7004 33.8 47.8004 33.5C47.9004 33.2 48.1004 33 48.2004 32.8C48.4004 32.4 48.6004 32.1 48.8004 31.9C49.3004 31.1 49.8004 30.4 50.4004 29.9C50.9004 29.3 51.5004 28.9 52.2004 28.5C50.7004 29.3 49.5004 29.8 48.0004 31.4C47.8004 31.6 47.6004 31.9 47.3004 32.3C47.2004 32.5 47.0004 32.8 46.8004 33.1C46.6004 33.4 46.5004 33.7 46.3004 33.8C46.2004 33.9 46.2004 33.9 46.1004 33.9C46.0004 33.9 45.8004 33.9 45.6004 33.8C45.1004 33.7 44.7004 33.5 44.2004 33.4C43.3004 33.2 42.6004 33 42.6004 33C42.6004 33 41.8004 32.8 40.8004 32.5C39.8004 32.3 38.6004 32 37.9004 31.9C36.7004 31.7 36.1004 31.6 35.8004 31.6C33.9004 31.3 32.7004 31.5 30.9004 31.4Z" fill="black"/>
<path d="M37.5996 30.2002C39.2996 30.0002 40.4996 30.3002 42.5996 30.2002C42.9996 30.2002 43.4996 30.2002 44.6996 30.1002C45.0996 30.1002 46.1996 29.9002 46.1996 29.9002C46.1996 29.9002 47.0996 29.8002 47.5996 29.7002C49.1996 29.4002 50.0996 29.0002 50.5996 28.7002C52.5996 27.8002 53.3996 26.8002 54.6996 25.7002C53.9996 26.3002 53.3996 26.6002 52.6996 26.9002C51.9996 27.2002 51.1996 27.4002 50.2996 27.7002C49.7996 27.8002 48.8996 28.1002 47.3996 28.4002C46.8996 28.5002 46.0996 28.6002 46.0996 28.6002C46.0996 28.6002 45.0996 28.7002 44.5996 28.8002C43.3996 29.0002 42.8996 29.0002 42.4996 29.1002C40.3996 29.4002 39.2996 29.9002 37.5996 30.2002Z" fill="black"/>
<path d="M4.90039 22.8003C4.90039 23.3003 4.90039 23.8003 5.20039 24.4003C5.30039 24.6003 5.50039 24.9003 5.90039 25.2003C6.30039 25.5003 6.80039 25.7003 7.20039 25.9003C8.10039 26.2003 8.90039 26.5003 8.90039 26.5003C8.90039 26.5003 9.90039 26.7003 10.9004 26.7003C11.4004 26.7003 11.9004 26.7003 12.4004 26.6003C12.8004 26.5003 13.1004 26.4003 13.3004 26.4003C13.9004 26.2003 14.2004 26.0003 14.8004 26.1003C14.3004 26.0003 13.9004 25.8003 13.3004 25.7003C13.1004 25.7003 12.8004 25.7003 12.4004 25.7003C12.0004 25.7003 11.6004 25.6003 11.1004 25.6003C10.3004 25.4003 9.50039 25.2003 9.50039 25.2003C9.50039 25.2003 8.60039 24.9003 7.70039 24.7003C7.30039 24.6003 6.80039 24.5003 6.50039 24.3003C6.20039 24.2003 5.90039 24.0003 5.80039 23.9003C5.30039 23.6003 5.00039 23.3003 4.90039 22.8003Z" fill="black"/>
<path d="M13.9004 24.5C14.8004 26 15.2004 27.2 16.9004 28.6C17.2004 28.8 17.6004 29.2 18.8004 29.8C18.9004 29.9 19.2004 30 19.2004 30C19.2004 30 19.3004 30 19.4004 30.1C19.5004 30.1 19.5004 30.2 19.6004 30.2C20.9004 30.8 22.1004 30.9 22.7004 31C24.9004 31.1 26.1004 30.5 27.7004 30C26.9004 30.2 26.1004 30.2 25.4004 30.2C24.6004 30.1 23.9004 30 22.9004 29.8C22.4004 29.7 21.3004 29.5 20.1004 29C20.1004 29 20.0004 29 19.9004 28.9C19.8004 28.9 19.7004 28.8 19.7004 28.8C19.7004 28.8 19.5004 28.7 19.4004 28.6C18.4004 28.1 17.9004 27.8 17.6004 27.6C16.8004 27.1 16.1004 26.6 15.5004 26.1C14.9004 25.7 14.4004 25.2 13.9004 24.5Z" fill="black"/>
<path d="M27.5 31.2C29.2 31 30.4 31.3 32.6 31C33 30.9 33.5 30.9 34.7 30.5H34.8C34.8 30.5 34.8 30.5 34.9 30.5C34.9 30.5 34.9 30.5 35 30.5C36.4 30 37.4 29.2 37.8 28.8C38.6 28 39 27.2 39.3 26.4C39.6 25.6 39.6 24.9 39.7 24C39.6 24.9 39.3 25.5 38.8 26.1C38.3 26.7 37.8 27.2 37 27.8C36.6 28.1 35.7 28.7 34.5 29.1C34.5 29.1 34.5 29.1 34.4 29.1H34.3H34.2C33.1 29.5 32.6 29.6 32.3 29.7C31.3 30 30.5 30.2 29.8 30.4C29.1 30.8 28.4 31 27.5 31.2Z" fill="black"/>
<path d="M20.0996 25.8C20.2996 25.8 20.3996 25.9 20.4996 26C20.5996 26.1 20.5996 26.3 20.6996 26.5C20.7996 26.6 20.8996 26.9 21.0996 27.1C21.2996 27.3 21.6996 27.6 21.9996 27.7C22.6996 28 23.3996 28 23.3996 28C23.3996 28 24.0996 28 24.7996 27.8C25.4996 27.6 26.0996 27.2 26.2996 27.1C26.6996 26.8 26.7996 26.5 27.0996 26.4C26.7996 26.5 26.4996 26.4 25.9996 26.5C25.7996 26.5 25.0996 26.6 24.4996 26.7C23.8996 26.8 23.3996 26.7 23.3996 26.7C23.3996 26.7 22.8996 26.7 22.3996 26.6C21.8996 26.5 21.2996 26.2 21.1996 26.1C20.7996 25.9 20.3996 25.7 20.0996 25.8Z" fill="black"/>
<path d="M28.7988 27.1002C29.0988 27.2002 29.2988 27.4002 29.6988 27.6002C29.7988 27.6002 29.9988 27.7002 30.2988 27.8002C30.5988 27.9002 30.8988 27.9002 31.1988 28.0002C31.7988 28.1002 32.3988 28.0002 32.3988 28.0002C32.3988 28.0002 32.9988 27.9002 33.5988 27.7002C33.8988 27.6002 34.1988 27.4002 34.3988 27.3002C34.5988 27.2002 34.7988 27.0002 34.8988 26.9002C35.1988 26.6002 35.2988 26.3002 35.5988 26.2002C35.2988 26.3002 34.9988 26.3002 34.5988 26.3002C34.0988 26.4002 32.1988 26.7002 32.1988 26.7002C32.1988 26.7002 30.1988 27.0002 29.7988 27.0002C29.3988 27.0002 29.0988 27.2002 28.7988 27.1002Z" fill="black"/>
<path d="M39 27.2999C39.3 27.3999 39.5 27.5999 40 27.6999C40.1 27.6999 40.3 27.7999 40.6 27.7999C40.9 27.7999 41.2 27.8999 41.6 27.7999C42.3 27.6999 42.8 27.4999 42.8 27.4999C42.8 27.4999 43.4 27.2999 43.9 26.8999C44.2 26.6999 44.4 26.4999 44.6 26.2999C44.8 26.0999 44.9 25.8999 45 25.7999C45.2 25.3999 45.3 25.0999 45.5 24.8999C45.2 25.0999 44.9 25.0999 44.6 25.2999C44.4 25.3999 43.8 25.5999 43.3 25.7999C42.8 25.9999 42.3 26.1999 42.3 26.1999C42.3 26.1999 41.8 26.3999 41.3 26.4999C40.8 26.6999 40.2 26.7999 40 26.8999C39.6 27.0999 39.3 27.2999 39 27.2999Z" fill="black"/>
<path d="M43.7988 28.0999C44.1988 27.9999 44.5988 28.0999 45.1988 27.9999C45.4988 27.9999 46.3988 27.7999 47.1988 27.5999C47.9988 27.3999 48.6988 27.0999 48.6988 27.0999C48.6988 27.0999 49.3988 26.7999 50.0988 26.3999C50.7988 25.9999 51.5988 25.4999 51.7988 25.2999C52.1988 24.8999 52.3988 24.5999 52.7988 24.3999C52.3988 24.5999 51.9988 24.5999 51.4988 24.6999C51.1988 24.7999 50.2988 24.9999 49.5988 25.2999C48.7988 25.5999 48.1988 25.8999 48.1988 25.8999C48.1988 25.8999 47.4988 26.1999 46.7988 26.4999C46.0988 26.7999 45.2988 27.2999 44.9988 27.3999C44.3988 27.5999 44.1988 27.8999 43.7988 28.0999Z" fill="black"/>
<path d="M10.1992 16.6001C10.6992 16.8001 10.9992 17.1001 11.5992 17.4001C11.7992 17.5001 12.0992 17.7001 12.4992 17.8001C12.8992 18.0001 13.3992 18.2001 13.8992 18.3001C14.8992 18.6001 15.7992 18.8001 15.7992 18.8001C15.7992 18.8001 16.6992 19.0001 17.7992 19.0001C18.2992 19.0001 18.8992 18.9001 19.2992 18.8001C19.7992 18.7001 20.0992 18.6001 20.2992 18.5001C20.9992 18.3001 21.2992 18.0001 21.7992 17.8001C21.2992 17.9001 20.8992 17.9001 20.1992 17.8001C19.9992 17.8001 19.6992 17.8001 19.2992 17.8001C18.8992 17.8001 18.3992 17.7001 17.8992 17.7001C16.9992 17.6001 16.0992 17.5001 16.0992 17.5001C16.0992 17.5001 15.1992 17.3001 14.2992 17.2001C13.3992 17.0001 12.2992 16.8001 11.8992 16.8001C11.0992 16.7001 10.6992 16.7001 10.1992 16.6001Z" fill="black"/>
</g>
<defs>
<clipPath id="clip0_420_341">
<rect width="58.1" height="43.9" fill="white" transform="translate(0.5 0.700195)"/>
</clipPath>
</defs>
</svg>
