<svg width="77" height="47" viewBox="0 0 77 47" fill="none" xmlns="http://www.w3.org/2000/svg">
<g clip-path="url(#clip0_420_582)">
<path d="M11.9012 34.6998C11.4012 33.7998 11.1012 32.9998 10.9012 32.1998C10.7012 31.2998 10.5012 30.3998 10.4012 29.1998C10.4012 28.8998 10.3012 28.3998 10.4012 27.7998C10.4012 27.4998 10.4012 27.1998 10.4012 26.7998C10.4012 26.1998 10.5012 25.4998 10.7012 24.7998C11.2012 21.8998 12.7012 18.6998 14.9012 16.1998C17.0012 13.6998 19.7012 11.8998 21.7012 10.7998C22.7012 10.2998 23.6012 9.8998 24.2012 9.5998C24.8012 9.2998 25.2012 9.1998 25.2012 9.1998C25.2012 9.1998 26.0012 8.8998 27.4012 8.4998C28.8012 8.0998 30.8012 7.4998 33.1012 7.0998C35.4012 6.6998 37.9012 6.4998 40.4012 6.5998C41.7012 6.5998 42.9012 6.6998 44.0012 6.8998C45.1012 7.0998 46.2012 7.3998 47.2012 7.5998C48.9012 8.0998 50.0012 8.4998 50.5012 8.7998C52.7012 9.6998 54.0012 10.1998 55.6012 11.3998C54.0012 10.1998 52.9012 9.3998 50.7012 8.2998C50.2012 7.9998 49.1012 7.4998 47.4012 6.8998C46.4012 6.4998 45.3012 6.1998 44.2012 5.8998C43.1012 5.5998 41.8012 5.4998 40.5012 5.3998C38.0012 5.1998 35.3012 5.2998 32.9012 5.6998C30.5012 6.0998 28.5012 6.5998 27.0012 6.9998C25.5012 7.3998 24.6012 7.7998 24.6012 7.7998C24.6012 7.7998 24.2012 7.8998 23.6012 8.1998C23.0012 8.4998 22.1012 8.8998 21.0012 9.4998C18.8012 10.6998 16.1012 12.5998 13.9012 15.3998C12.8012 16.7998 11.8012 18.2998 11.2012 19.8998C10.5012 21.4998 10.1012 23.1998 9.90119 24.6998C9.80119 25.3998 9.70119 26.1998 9.80119 26.7998C9.80119 27.1998 9.80119 27.4998 9.80119 27.7998C9.80119 28.3998 9.90119 28.8998 10.0012 29.1998C10.4012 31.5998 11.0012 32.8998 11.9012 34.6998Z" fill="black"/>
<path d="M75.3003 0.5C73.7003 1.3 72.6003 1.9 70.9003 3.3C70.7003 3.5 70.3003 3.8 69.9003 4.1C69.8003 4.3 69.5003 4.5 69.3003 4.7C68.7003 5.3 68.1003 5.8 67.4003 6.5C66.1003 7.7 64.6003 9.1 62.8003 10C61.0003 10.9 59.0003 11.4 57.0003 11.8C55.0003 12.1 53.0003 12.3 51.1003 12.7C49.2003 13 47.5003 13.5 46.1003 14.2C44.7003 14.8 43.7003 15.6 43.0003 16.1C42.3003 16.6 42.0003 17 42.0003 17C42.0003 17 41.6003 17.3 41.0003 17.9C40.4003 18.5 39.5003 19.4 38.6003 20.6C37.7003 21.8 36.8003 23.4 36.4003 25.4C36.0003 27.3 36.0003 29.6 37.0003 31.6C37.9003 33.7 39.9003 35.1 42.0003 35.7C44.1003 36.3 46.3003 36.2 48.0003 35.7C49.4003 35.3 50.5003 34.8 51.0003 34.5C52.9003 33.5 53.9003 32.6 55.3003 31.6C53.8003 32.7 52.8003 33.3 50.8003 34.1C50.3003 34.3 49.2003 34.8 47.8003 35.1C46.1003 35.5 44.1003 35.4 42.2003 34.8C40.4003 34.2 38.7003 32.8 38.0003 31.1C37.2003 29.3 37.2003 27.3 37.6003 25.7C38.0003 24 38.8003 22.5 39.7003 21.4C40.5003 20.3 41.3003 19.4 41.9003 18.9C42.5003 18.3 42.8003 18 42.8003 18C42.8003 18 43.1003 17.7 43.8003 17.2C44.4003 16.7 45.4003 16 46.6003 15.4C47.9003 14.8 49.5003 14.3 51.3003 14C53.1003 13.6 55.1003 13.4 57.2003 13C59.3003 12.6 61.4003 12 63.3003 10.9C65.2003 9.8 66.6003 8.4 67.9003 7.1C68.8003 6.1 69.6003 5.2 70.3003 4.5C70.7003 4.1 71.0003 3.8 71.2003 3.6C72.8003 2.1 73.7003 1.3 75.3003 0.5Z" fill="black"/>
<path d="M55.5 31.4002C56.5 29.9002 57.3 28.9002 58.4 27.1002C58.6 26.8002 58.9 26.3002 59.6 25.2002C60.6 23.6002 62.3 20.8002 63.7 18.6002C64.4 17.5002 65.2 16.5002 65.7 15.7002C66.2 15.0002 66.6 14.5002 66.6 14.5002C66.6 14.5002 66.9 14.1002 67.4 13.6002C67.9 13.0002 68.6 12.2002 69.4 11.4002C70.2 10.6002 71.2 9.70021 72.2 8.90021C73.2 8.10021 74.3 7.40021 75.1 6.70021C75.7 6.10021 76.2 5.50021 76.4 4.90021C76.6 4.30021 76.6 3.90021 76.6 3.60021C76.6 2.40021 75.8 1.40021 75 1.30021C74.6 1.20021 74.2 1.30021 73.8 1.40021C73.2 1.50021 72.9 1.80021 72.8 2.30021C72.9 1.90021 73.3 1.60021 73.7 1.50021C74 1.40021 74.4 1.40021 74.8 1.50021C75.5 1.80021 75.9 2.50021 75.8 3.50021C75.7 4.00021 75.6 4.90021 74.3 5.90021C73.6 6.50021 72.4 7.10021 71.4 7.90021C70.3 8.70021 69.3 9.60021 68.4 10.4002C67.5 11.3002 66.8 12.1002 66.3 12.7002C65.8 13.3002 65.5 13.7002 65.5 13.7002C65.5 13.7002 65.2 14.2002 64.6 14.9002C64.1 15.6002 63.3 16.7002 62.6 17.9002C61.1 20.2002 59.7 23.1002 58.8 24.8002C58.2 25.9002 58 26.4002 57.8 26.8002C56.8 28.7002 56.4 29.8002 55.5 31.4002Z" fill="black"/>
<path d="M15.1012 32.8C14.2012 32.5 13.7012 31.8 13.5012 31.1C13.3012 30.4 13.3012 29.5 13.8012 28.6C13.9012 28.4 14.1012 28 14.5012 27.6C14.7012 27.4 14.9012 27.2 15.1012 27C15.6012 26.6 16.3012 26.2 16.9012 25.9C18.3012 25.3 20.0012 24.7 21.7012 23.9C23.4012 23.1 25.0012 22.3 26.6012 21.3C27.5012 20.8 28.1012 20.1 28.8012 19.6C29.5012 19.1 30.1012 18.5 30.8012 18.1C31.0012 18 31.1012 17.9 31.3012 17.8C31.4012 17.8 31.4012 17.7 31.5012 17.7C31.5012 17.7 31.5012 17.8 31.5012 17.9C31.5012 18.4 31.3012 19 31.0012 19.5C30.4012 20.6 29.8012 21.4 29.4012 21.9C28.9012 22.5 28.7012 22.8 28.7012 22.8C28.7012 22.8 28.4012 23.1 28.0012 23.7C27.5012 24.3 26.8012 25 26.0012 26.2C25.3012 27.3 24.5012 29.2 25.4012 31.1C25.9012 32 26.7012 32.6 27.4012 33.1C28.1012 33.6 28.7012 34.2 29.2012 34.9C29.5012 35.2 29.7012 35.6 29.9012 36C30.1012 36.4 30.3012 36.8 30.4012 37.1C30.5012 37.4 30.4012 37.5 30.1012 37.7C29.8012 37.9 29.4012 38 29.0012 38C27.3012 38.3 25.5012 38.4 24.0012 38.4C22.6012 38.4 21.4012 38.2 20.9012 38.1C18.8012 37.8 17.6012 37.5 15.9012 36.9C17.6012 37.6 18.7012 38.1 20.8012 38.6C21.4012 38.7 22.5012 39 24.0012 39.1C25.6012 39.2 27.4012 39.2 29.2012 39C29.6012 39 30.2012 38.9 30.7012 38.6C31.0012 38.5 31.2012 38.3 31.4012 37.9C31.6012 37.6 31.6012 37.2 31.5012 36.9C31.3012 36.3 31.2012 35.9 30.9012 35.5C30.7012 35.1 30.4012 34.6 30.1012 34.3C29.5012 33.5 28.9012 32.8 28.1012 32.3C27.4012 31.7 26.8012 31.3 26.6012 30.7C26.3012 30.1 26.3012 29.4 26.5012 28.8C26.6012 28.2 26.9012 27.6 27.2012 27.1C27.9012 26.1 28.6012 25.4 29.1012 24.8C29.6012 24.2 29.9012 23.9 29.9012 23.9C29.9012 23.9 30.2012 23.6 30.6012 23C31.1012 22.4 31.7012 21.6 32.4012 20.3C32.7012 19.7 33.1012 19 33.0012 17.9C33.0012 17.8 33.0012 17.6 32.9012 17.5C32.9012 17.4 32.8012 17.1 32.7012 17C32.5012 16.7 32.1012 16.5 31.8012 16.5C31.6012 16.5 31.4012 16.5 31.2012 16.6C31.1012 16.6 31.0012 16.7 30.8012 16.7C30.6012 16.8 30.4012 16.9 30.2012 17C29.5012 17.5 28.8012 18 28.1012 18.6C27.4012 19.2 26.8012 19.8 26.1012 20.2C24.6012 21.2 23.0012 22.1 21.4012 22.9C19.8012 23.7 18.2012 24.4 16.7012 25.1C16.0012 25.5 15.3012 26 14.8012 26.4C14.6012 26.6 14.3012 26.9 14.2012 27.1C13.8012 27.6 13.6012 28 13.5012 28.3C13.1012 29.4 13.1012 30.3 13.5012 31.1C13.6012 31.9 14.2012 32.6 15.1012 32.8Z" fill="black"/>
<path d="M32.7012 38.3999C34.6012 37.6999 36.0012 37.5999 38.3012 37.3999C38.7012 37.3999 39.3012 37.2999 40.7012 37.3999C41.6012 37.4999 42.8012 37.5999 44.0012 37.8999C45.3012 38.1999 46.6012 38.5999 47.9012 38.8999C49.2012 39.1999 50.5012 39.2999 51.4012 39.2999C52.3012 39.2999 52.9012 39.2999 52.9012 39.2999C52.9012 39.2999 53.4012 39.2999 54.1012 39.1999C54.9012 39.0999 55.9012 38.8999 57.1012 38.5999C58.3012 38.2999 59.5012 37.7999 60.7012 37.0999C61.8012 36.3999 62.8012 35.4999 63.4012 34.6999C64.0012 33.8999 64.3012 33.1999 64.5012 32.5999C64.7012 31.9999 64.8012 31.5999 64.8012 31.2999C65.0012 29.9999 64.8012 28.9999 64.5012 28.1999C64.2012 27.2999 63.7012 26.5999 63.1012 25.8999C63.8012 26.5999 64.1012 27.4999 64.2012 28.2999C64.3012 29.1999 64.3012 30.0999 64.0012 31.1999C63.9012 31.4999 63.8012 31.8999 63.6012 32.3999C63.4012 32.8999 63.0012 33.4999 62.5012 34.0999C61.9012 34.7999 61.0012 35.4999 60.0012 36.0999C59.0012 36.6999 57.8012 37.0999 56.7012 37.3999C55.6012 37.6999 54.6012 37.7999 53.9012 37.8999C53.2012 37.9999 52.7012 37.9999 52.7012 37.9999C52.7012 37.9999 52.2012 37.9999 51.3012 37.9999C50.5012 37.9999 49.3012 37.8999 48.1012 37.6999C46.8012 37.4999 45.5012 37.0999 44.1012 36.8999C42.7012 36.6999 41.5012 36.5999 40.5012 36.6999C39.1012 36.6999 38.4012 36.8999 38.0012 36.8999C35.8012 36.9999 34.5012 37.6999 32.7012 38.3999Z" fill="black"/>
<path d="M7.20078 28.5C6.10078 28.7 5.20078 28.9 4.30078 29.4C3.40078 29.8 2.50078 30.4 1.70078 31.6C1.50078 31.9 1.20078 32.4 1.00078 33.1C1.00078 33.3 0.900781 33.5 0.900781 33.6C0.900781 33.8 0.900781 34 0.800781 34.2C0.800781 34.2 0.800781 34.4 0.800781 34.6V35C0.800781 35.3 0.900781 35.6 1.00078 35.9C1.10078 36.2 1.20078 36.5 1.30078 36.8C1.40078 37.1 1.60078 37.3 1.80078 37.6C3.30078 39.6 5.50078 41.1 8.00078 42.3C10.4008 43.5 13.1008 44.3 15.7008 44.9C21.0008 46.1 26.1008 46.5 29.8008 46.8C33.6008 47 36.0008 47 36.0008 47C36.0008 47 36.6008 47 37.7008 47C38.8008 47 40.3008 47 42.2008 46.9C46.0008 46.7 51.1008 46.4 56.4008 45.3C59.0008 44.8 61.7008 44.1 64.2008 43.1C64.8008 42.8 65.4008 42.6 66.0008 42.3C66.3008 42.2 66.6008 42 66.9008 41.9C67.2008 41.7 67.5008 41.6 67.7008 41.4C68.3008 41.1 68.8008 40.6 69.3008 40.3C69.5008 40.1 69.8008 39.8 70.0008 39.6C70.2008 39.4 70.4008 39 70.5008 38.9C71.5008 37.4 71.7008 35.8 71.6008 35.1C71.6008 33.7 71.0008 32.7 70.4008 31.9C69.8008 31.1 69.1008 30.5 68.1008 29.9C69.0008 30.5 69.7008 31.2 70.2008 32C70.7008 32.8 71.1008 33.8 71.0008 35.1C71.0008 35.8 70.7008 37.2 69.7008 38.5C69.6008 38.6 69.4008 38.9 69.2008 39.1C69.0008 39.3 68.8008 39.5 68.6008 39.7C68.1008 40 67.6008 40.4 67.1008 40.7C66.8008 40.8 66.6008 41 66.3008 41.1C66.0008 41.2 65.7008 41.4 65.4008 41.5C64.8008 41.8 64.2008 42 63.6008 42.2C61.1008 43 58.5008 43.6 55.9008 44.1C50.7008 45 45.7008 45.3 41.9008 45.4C40.0008 45.4 38.5008 45.5 37.4008 45.5C36.3008 45.5 35.7008 45.5 35.7008 45.5C35.7008 45.5 33.3008 45.5 29.6008 45.3C25.9008 45.1 20.8008 44.8 15.7008 43.7C13.1008 43.2 10.5008 42.4 8.20078 41.4C5.80078 40.4 3.70078 39 2.20078 37.3C2.10078 37.1 1.90078 36.9 1.70078 36.6C2.00078 36 1.80078 35.8 1.80078 35.5C1.70078 35.3 1.60078 35 1.60078 34.8V34.4C1.60078 34.3 1.60078 34.1 1.60078 34.1C1.60078 33.9 1.60078 33.7 1.60078 33.6C1.60078 33.4 1.70078 33.3 1.70078 33.1C1.80078 32.5 2.10078 32 2.20078 31.7C2.80078 30.7 3.60078 30 4.40078 29.5C5.20078 29 6.10078 28.6 7.20078 28.5Z" fill="black"/>
<path d="M8.80024 31.5C7.70024 31.7 6.80024 32 6.10024 32.7C5.80024 33.1 5.50024 33.6 5.40024 34.2C5.30024 34.8 5.60024 35.5 6.00024 36C6.20024 36.3 6.60024 36.8 7.10024 37.2C7.40024 37.4 7.70024 37.7 8.10024 37.8C8.70024 38.2 9.50024 38.5 10.3002 38.8C13.5002 40.1 17.5002 41.2 21.3002 41.9C25.1002 42.7 28.8002 43.2 31.5002 43.5C32.9002 43.6 34.0002 43.7 34.8002 43.8C35.6002 43.8 36.0002 43.8 36.0002 43.8C36.0002 43.8 36.3002 43.8 36.7002 43.8C37.2002 43.8 37.9002 43.8 38.7002 43.8C40.4002 43.8 42.9002 43.7 45.5002 43.4C48.2002 43.1 51.1002 42.7 54.0002 42C56.8002 41.3 59.5002 40.5 61.7002 39.5C62.6002 39.1 63.4002 38.7 63.9002 38.3C64.5002 38 64.9002 37.7 65.1002 37.5C66.2002 36.7 67.0002 35.8 67.2002 34.8C67.3002 34.3 67.3002 33.8 67.2002 33.3C67.1002 32.8 67.0002 32.3 66.7002 31.9C67.3002 32.8 67.2002 33.9 66.9002 34.8C66.6002 35.7 65.8002 36.4 64.7002 37C64.4002 37.2 64.0002 37.4 63.5002 37.7C62.9002 38 62.2002 38.3 61.3002 38.7C59.2002 39.5 56.5002 40.2 53.7002 40.7C50.9002 41.2 48.0002 41.6 45.3002 41.8C42.7002 42.1 40.3002 42.1 38.6002 42.1C37.8002 42.1 37.1002 42.1 36.6002 42.1C36.1002 42.1 35.9002 42.1 35.9002 42.1C35.9002 42.1 35.5002 42.1 34.7002 42.1C33.9002 42 32.8002 42 31.5002 41.9C28.8002 41.7 25.2002 41.2 21.4002 40.5C17.6002 39.8 13.7002 38.9 10.5002 37.9C9.70024 37.6 8.90024 37.3 8.30024 37.1C7.90024 37 7.70024 36.8 7.40024 36.6C6.90024 36.2 6.50024 35.9 6.30024 35.6C5.50024 34.7 5.50024 33.5 6.10024 32.8C6.90024 32.1 7.80024 31.6 8.80024 31.5Z" fill="black"/>
<path d="M44.0004 11.6998C43.4004 11.6998 43.0004 11.4998 42.3004 11.5998C42.1004 11.5998 41.7004 11.6998 41.2004 11.7998C40.7004 11.9998 40.2004 12.1998 39.7004 12.4998C38.8004 13.0998 38.1004 13.8998 38.1004 13.8998C38.1004 13.8998 37.4004 14.5998 36.9004 15.5998C36.3004 16.4998 36.0004 17.5998 35.8004 17.9998C35.6004 18.6998 35.6004 19.0998 35.4004 19.5998C35.7004 19.0998 36.0004 18.7998 36.4004 18.2998C36.6004 17.9998 37.3004 17.0998 37.9004 16.2998C38.5004 15.4998 39.1004 14.7998 39.1004 14.7998C39.1004 14.7998 39.7004 14.0998 40.4004 13.4998C41.1004 12.8998 42.1004 12.3998 42.4004 12.1998C43.1004 11.9998 43.4004 11.7998 44.0004 11.6998Z" fill="black"/>
<path d="M48.5 10.3C48.6 10.3 48.7 10.4 48.8 10.5C48.9 10.5 49 10.6 49.2 10.7C49.3 10.7 49.4 10.7 49.4 10.7C49.4 10.7 49.5 10.7 49.6 10.6C49.7 10.5 49.8 10.4 49.9 10.3C50 10.2 50.1 10 50.1 10C50 10 50 9.8 49.9 9.7C49.8 9.6 49.7 9.5 49.5 9.5C49.3 9.5 49.2 9.5 49.2 9.5C49.2 9.5 49 9.5 48.9 9.6C48.7 9.7 48.6 9.9 48.6 10C48.6 10.1 48.6 10.3 48.5 10.3Z" fill="black"/>
<path d="M13.4004 22.0002C13.7004 21.6002 14.0004 21.3002 14.4004 20.9002C14.6004 20.7002 15.3004 19.9002 15.9004 19.3002C16.5004 18.6002 17.1004 18.1002 17.1004 18.1002C17.1004 18.1002 17.7004 17.5002 18.3004 16.9002C18.9004 16.3002 19.6004 15.6002 19.9004 15.3002C20.3004 14.9002 20.5004 14.5002 21.0004 14.2002C20.6004 14.4002 20.2004 14.5002 19.6004 14.7002C19.5004 14.8002 19.1004 14.9002 18.8004 15.1002C18.4004 15.3002 18.0004 15.6002 17.7004 15.9002C16.9004 16.5002 16.4004 17.1002 16.4004 17.1002C16.4004 17.1002 15.8004 17.7002 15.3004 18.5002C15.0004 18.9002 14.8004 19.3002 14.6004 19.7002C14.4004 20.1002 14.3004 20.4002 14.2004 20.5002C13.6004 21.1002 13.6004 21.5002 13.4004 22.0002Z" fill="black"/>
<path d="M45.4 19.7002C45 19.9002 44.7 19.9002 44.1 20.1002C44 20.2002 43.7 20.3002 43.4 20.5002C43.1 20.7002 42.7 20.9002 42.4 21.2002C41.8 21.7002 41.3 22.3002 41.3 22.3002C41.3 22.3002 40.8 22.9002 40.4 23.6002C40.2 24.0002 40 24.3002 39.9 24.7002C39.8 25.0002 39.7 25.3002 39.7 25.5002C39.6 26.0002 39.7 26.4002 39.5 26.8002C39.7 26.4002 39.9 26.2002 40.3 25.8002C40.5 25.6002 41 24.9002 41.4 24.3002C41.9 23.7002 42.3 23.2002 42.3 23.2002C42.3 23.2002 42.7 22.7002 43.3 22.1002C43.8 21.6002 44.4 21.0002 44.6 20.8002C44.8 20.2002 45 19.9002 45.4 19.7002Z" fill="black"/>
<path d="M50.6999 16.0999C50.5999 16.0999 50.4999 15.9999 50.3999 15.8999C50.2999 15.8999 50.0999 15.7999 49.8999 15.8999C49.6999 15.9999 49.5999 16.0999 49.5999 16.0999C49.5999 16.0999 49.4999 16.1999 49.3999 16.3999C49.2999 16.5999 49.3999 16.7999 49.3999 16.8999C49.4999 16.9999 49.5999 17.1999 49.5999 17.1999C49.5999 17.0999 49.7999 17.1999 49.9999 17.1999C50.0999 17.1999 50.1999 17.1999 50.2999 17.0999C50.3999 17.0999 50.3999 16.9999 50.3999 16.9999C50.3999 16.9999 50.4999 16.9999 50.4999 16.8999C50.4999 16.7999 50.4999 16.5999 50.4999 16.5999C50.5999 16.2999 50.5999 16.0999 50.6999 16.0999Z" fill="black"/>
</g>
<defs>
<clipPath id="clip0_420_582">
<rect width="75.7" height="46.3" fill="white" transform="translate(0.800781 0.5)"/>
</clipPath>
</defs>
</svg>
