<svg width="66" height="64" viewBox="0 0 66 64" fill="none" xmlns="http://www.w3.org/2000/svg">
<g clip-path="url(#clip0_420_632)">
<path d="M22.5996 47.2003C24.1996 47.2003 25.3996 47.3003 27.2996 47.0003C27.5996 46.9003 27.9996 46.9003 28.3996 46.8003C28.5996 46.7003 28.8996 46.7003 29.1996 46.6003C29.8996 46.4003 30.6996 46.1003 31.5996 45.8003C34.8996 44.6003 38.4996 42.2003 41.2996 39.4003C44.1996 36.6003 46.3996 33.5003 47.8996 31.1003C49.3996 28.7003 50.2996 27.2003 50.2996 27.2003C50.2996 27.2003 50.4996 26.8003 50.8996 26.1003C51.2996 25.4003 51.8996 24.4003 52.3996 23.0003C52.6996 22.3003 52.8996 21.6003 53.0996 20.7003C53.1996 20.3003 53.1996 19.8003 53.1996 19.4003C53.1996 19.2003 53.1996 19.0003 53.1996 18.8003C54.7996 18.3003 56.5996 17.8003 58.3996 17.3003C60.2996 16.7003 62.1996 16.2003 64.0996 15.6003L65.0996 15.3003L65.3996 15.2003L65.5996 15.1003H65.6996L65.5996 15.0003C65.4996 14.8003 65.2996 14.6003 65.1996 14.4003C64.7996 14.0003 64.7996 13.9003 64.5996 13.7003L64.0996 13.2003C63.4996 12.5003 62.6996 11.8003 62.0996 11.3003C61.8996 11.2003 61.6996 11.0003 61.5996 10.9003L61.4996 10.8003C61.4996 10.8003 61.4996 10.8003 61.3996 10.9003L61.2996 11.1003L61.0996 11.4003C60.8996 11.6003 60.7996 11.8003 60.5996 12.0003C60.2996 12.4003 59.9996 12.6003 59.7996 12.8003C58.3996 14.1003 57.3996 14.7003 55.7996 15.2003C57.2996 14.7003 58.3996 14.3003 59.9996 13.1003C60.1996 12.9003 60.4996 12.7003 60.8996 12.3003C61.0996 12.1003 61.2996 11.9003 61.4996 11.7003C61.5996 11.6003 61.5996 11.6003 61.5996 11.6003L61.7996 11.8003C62.3996 12.3003 62.9996 13.0003 63.5996 13.7003L63.9996 14.2003L64.2996 14.6003H64.1996L63.7996 14.7003C61.8996 15.2003 59.8996 15.7003 57.9996 16.2003C55.9996 16.7003 54.0996 17.2003 52.2996 17.7003L51.9996 17.8003C51.8996 17.8003 51.6996 17.8003 51.7996 18.0003L51.8996 18.6003C51.8996 18.9003 51.8996 18.9003 51.8996 19.0003C51.8996 19.1003 51.8996 19.2003 51.8996 19.3003C51.8996 19.7003 51.7996 20.1003 51.7996 20.4003C51.6996 21.1003 51.3996 21.8003 51.1996 22.4003C50.6996 23.6003 50.0996 24.6003 49.6996 25.3003C49.2996 26.0003 49.0996 26.4003 49.0996 26.4003C49.0996 26.4003 48.1996 28.0003 46.6996 30.3003C45.1996 32.6003 43.0996 35.7003 40.3996 38.5003C37.6996 41.3003 34.3996 43.7003 31.1996 45.1003C30.3996 45.4003 29.5996 45.8003 28.9996 46.0003C28.6996 46.1003 28.4996 46.2003 28.1996 46.2003C27.6996 46.3003 27.2996 46.4003 27.0996 46.5003C25.2996 47.0003 24.1996 47.2003 22.5996 47.2003Z" fill="black"/>
<path d="M48.6992 13.0002C49.5992 11.6002 50.3992 10.8002 51.4992 9.2002C51.6992 8.9002 51.9992 8.5002 52.5992 7.5002C52.9992 6.9002 53.8992 5.4002 53.8992 5.4002C53.8992 5.4002 54.5992 4.2002 54.9992 3.5002C55.0992 3.3002 55.1992 3.1002 55.2992 2.9002C55.3992 2.8002 55.3992 2.7002 55.3992 2.6002C56.4992 4.3002 57.4992 4.9002 58.6992 6.0002C57.4992 4.8002 57.0992 3.8002 56.1992 2.1002C56.1992 2.0002 56.0992 2.0002 56.0992 1.9002C56.0992 1.8002 55.9992 1.7002 55.9992 1.6002C55.8992 1.2002 55.7992 0.800195 55.4992 0.200195C55.3992 0.400195 55.2992 0.500195 55.1992 0.700195C55.0992 1.0002 54.9992 1.2002 54.7992 1.5002C54.5992 1.9002 54.2992 2.3002 53.9992 2.8002C53.5992 3.5002 52.8992 4.7002 52.8992 4.7002C52.8992 4.7002 51.8992 6.2002 51.5992 6.9002C51.0992 7.9002 50.7992 8.4002 50.6992 8.7002C49.7992 10.4002 49.4992 11.5002 48.6992 13.0002Z" fill="black"/>
<path d="M26.5996 17.3003C27.9996 16.4003 29.0996 16.1003 30.8996 15.5003C31.1996 15.4003 31.6996 15.2003 32.7996 14.9003C33.0996 14.8003 33.3996 14.7003 33.7996 14.6003C34.1996 14.5003 34.5996 14.4003 34.9996 14.3003C35.7996 14.1003 36.3996 14.0003 36.3996 14.0003C36.3996 14.0003 36.9996 13.9003 37.6996 13.8003C38.3996 13.7003 39.2996 13.6003 39.8996 13.5003C41.3996 13.3003 42.2996 13.2003 42.7996 13.2003C44.6996 13.0003 45.8996 12.8003 47.4996 12.8003C45.8996 12.7003 44.7996 12.4003 42.7996 12.3003C42.2996 12.3003 41.3996 12.2003 39.8996 12.3003C39.2996 12.3003 38.3996 12.4003 37.5996 12.5003C36.8996 12.6003 36.2996 12.7003 36.2996 12.7003C36.2996 12.7003 35.5996 12.8003 34.7996 13.0003C33.9996 13.2003 32.9996 13.5003 32.4996 13.7003C31.3996 14.1003 30.8996 14.4003 30.5996 14.5003C28.7996 15.5003 27.8996 16.4003 26.5996 17.3003Z" fill="black"/>
<path d="M46.5 33.5C47.1 34.1 47.5 34.6 48 35.2C48.3 35.5 48.5 35.8 48.7 36.1C48.8 36.3 49 36.4 49.1 36.6L49 36.7C48.9 36.8 48.8 36.9 48.7 37C48.5 37.2 48.2 37.5 47.7 37.8C47.3 38.1 46.6 38.7 46 39.2C45.4 39.7 44.8 40 44.8 40C44.8 40 44.4 40.3 43.8 40.7C43.2 41.1 42.5 41.5 42 41.8C40.7 42.5 39.9 42.9 39.4 43.1C37.6 43.9 36.6 44.4 35 44.8C36.6 44.5 37.8 44.6 39.7 44C40.2 43.9 41.1 43.6 42.5 42.9C43.1 42.6 43.8 42.2 44.4 41.9C45 41.5 45.5 41.2 45.5 41.2C45.5 41.2 46.1 40.8 46.7 40.3C47.3 39.8 48 39.2 48.4 38.8C48.8 38.4 49.1 38.1 49.3 37.8C49.6 37.5 49.7 37.3 49.9 37.1C50 36.9 50.3 36.7 50 36.6C49.9 36.4 49.7 36.3 49.5 36.1C49.3 36 49.2 35.8 49 35.7C48.7 35.5 48.4 35.3 48.1 35C47.6 34.4 47.1 34 46.5 33.5Z" fill="black"/>
<path d="M27.2 17.2C27 16.4 26.8 15.8 26.6 15.1C26.5 14.8 26.4 14.4 26.2 14C26.1 13.8 26 13.6 25.9 13.4C25.8 13.2 25.8 13 25.5 12.7C25.3 12.6 25 12.6 24.8 12.7C24.6 12.8 24.4 12.9 24.2 13C24 13.1 23.8 13.3 23.5 13.5C23 13.9 22.5 14.5 22 15C19.9 17.2 17.6 19.9 15.8 22.8C14 25.7 12.6 28.7 11.7 30.9C11.3 32 10.9 32.9 10.7 33.6C10.5 34.3 10.4 34.7 10.4 34.7C10.4 34.7 10 36.2 9.8 38.7C9.8 39.3 9.7 39.9 9.7 40.6C9.6 41.3 9.6 42 9.5 42.8C9.5 43.6 9.5 44.4 9.6 45.3C9.7 45.7 9.8 46.2 10 46.7C10.3 47.2 10.8 47.5 11.3 47.7C12.3 48 13.1 47.9 14 47.9C14.9 47.8 15.7 47.7 16.6 47.6C18.2 47.4 19.9 47.2 21.3 46.9C22.6 46.6 23.6 46.4 24.1 46.2C25 45.9 25.8 45.7 26.5 45.4C27.2 45.1 27.8 44.8 28.3 44.1C27.8 44.8 27.1 45 26.4 45.2C25.7 45.4 25 45.5 24 45.7C23.5 45.8 22.4 46 21.2 46.2C20.5 46.3 19.7 46.4 18.9 46.5C18.1 46.6 17.3 46.6 16.4 46.7C15.6 46.8 14.7 46.9 13.9 46.9C13.1 46.9 12.2 46.9 11.6 46.7C11.3 46.6 11 46.4 10.9 46.2C10.8 46 10.7 45.6 10.6 45.2C10.5 44.5 10.5 43.7 10.6 43C10.7 41.5 10.9 40.1 11 38.9C11.2 36.6 11.6 35.1 11.6 35.1C11.6 35.1 11.7 34.7 11.9 34.1C12.1 33.5 12.4 32.6 12.9 31.5C13.8 29.3 15.1 26.4 16.8 23.5C18.5 20.6 20.6 17.8 22.5 15.6C23 15.1 23.5 14.5 23.9 14.1C24.1 13.9 24.3 13.7 24.5 13.6C24.9 13.3 25.3 13.1 25.3 13.2C25.4 13.2 25.5 13.5 25.6 13.7C25.7 13.9 25.8 14.1 25.9 14.2C26.1 14.6 26.3 14.9 26.4 15.2C26.7 15.8 27 16.4 27.2 17.2Z" fill="black"/>
<path d="M17.5 30.5001C17.3 30.4001 17.4 30.1001 17.5 30.0001C17.5 30.0001 17.6 29.9001 17.6 29.8001C17.7 29.7001 17.7 29.7001 17.7 29.8001L17.8 29.9001H17.9C17.9 29.9001 18 29.9001 18 30.0001C18 30.1001 18 30.2001 18 30.2001C18 30.4001 17.9 30.6001 17.6 30.6001C17.8 30.7001 18 30.8001 18.3 30.8001C18.4 30.8001 18.6 30.7001 18.7 30.5001C18.9 30.3001 19 30.0001 18.9 29.6001C18.8 29.2001 18.6 29.0001 18.4 28.9001C18.2 28.8001 18.1 28.7001 18.1 28.7001C18.1 28.7001 18 28.6001 17.7 28.6001C17.5 28.6001 17.1 28.6001 16.9 28.9001C16.6 29.1001 16.5 29.5001 16.5 29.7001C16.5 30.0001 16.6 30.1001 16.7 30.2001C17 30.4001 17.3 30.4001 17.5 30.5001Z" fill="black"/>
<path d="M31.0996 37.7001C31.6996 38.2001 31.9996 38.9001 32.3996 39.5001C32.6996 40.2001 32.9996 40.8001 33.2996 41.7001C33.2996 41.8001 33.3996 42.0001 33.4996 42.3001C33.4996 42.4001 33.5996 42.6001 33.5996 42.7001C33.5996 42.8001 33.5996 42.9001 33.5996 42.9001C33.5996 43.0001 33.5996 43.0001 33.5996 43.1001V43.2001C33.5996 43.2001 33.4996 43.2001 33.4996 43.3001L34.2996 43.9001C34.1996 42.4001 33.9996 41.6001 33.7996 41.2001C33.0996 39.2001 32.1996 38.4001 31.2996 37.1001C31.7996 37.8001 31.9996 38.4001 32.1996 39.1001C32.3996 39.8001 32.5996 40.5001 32.6996 41.4001C32.7996 41.8001 32.8996 42.6001 32.9996 43.9001L33.7996 44.5001C33.8996 44.4001 34.0996 44.4001 34.1996 44.3001H34.2996C34.3996 44.3001 34.3996 44.2001 34.3996 44.2001C34.4996 44.1001 34.5996 44.1001 34.5996 44.1001C34.5996 44.1001 34.6996 44.0001 34.7996 43.9001C34.8996 43.8001 34.8996 43.7001 34.9996 43.6001C35.0996 43.4001 35.0996 43.2001 35.0996 43.0001C35.0996 42.8001 35.0996 42.7001 35.0996 42.5001C35.0996 42.2001 34.9996 42.0001 34.9996 41.9001C34.8996 41.5001 34.7996 41.3001 34.6996 41.2001C34.1996 40.3001 33.6996 39.7001 33.1996 39.1001C32.2996 38.7001 31.6996 38.2001 31.0996 37.7001Z" fill="black"/>
<path d="M23.3984 22.4003C23.6984 22.3003 23.9984 22.4003 24.2984 22.5003C24.4984 22.5003 24.9984 22.7003 25.3984 22.9003C25.7984 23.1003 25.9984 23.4003 25.9984 23.4003C25.9984 23.4003 26.2984 23.7003 26.4984 24.1003C26.7984 24.5003 26.9984 25.0003 27.0984 25.2003C27.2984 25.5003 27.4984 25.7003 27.4984 26.0003C27.4984 25.7003 27.6984 25.5003 27.6984 25.1003C27.6984 24.9003 27.6984 24.2003 27.4984 23.6003C27.2984 23.0003 26.7984 22.6003 26.7984 22.6003C26.7984 22.6003 26.6984 22.5003 26.4984 22.3003C26.2984 22.2003 25.9984 22.0003 25.6984 21.9003C25.3984 21.8003 24.9984 21.8003 24.6984 21.8003C24.3984 21.8003 24.1984 21.9003 24.0984 21.9003C23.7984 22.0003 23.5984 22.2003 23.3984 22.4003Z" fill="black"/>
<path d="M30.5996 24.7002C30.7996 24.7002 30.9996 24.8002 31.0996 25.0002C31.1996 25.1002 31.4996 25.3002 31.5996 25.5002C31.7996 25.7002 31.8996 25.8002 31.8996 25.8002C31.8996 25.8002 31.9996 26.0002 32.0996 26.2002C32.1996 26.4002 32.2996 26.8002 32.2996 26.9002C32.2996 27.1002 32.3996 27.3002 32.2996 27.5002C32.3996 27.4002 32.6996 27.3002 32.8996 27.1002C32.9996 27.0002 33.2996 26.5002 33.2996 26.0002C33.2996 25.5002 32.9996 25.1002 32.9996 25.1002C32.9996 25.1002 32.7996 24.7002 32.2996 24.5002C31.8996 24.3002 31.2996 24.3002 31.1996 24.4002C30.8996 24.4002 30.7996 24.6002 30.5996 24.7002Z" fill="black"/>
<path d="M32.2988 30.4003C32.6988 30.3003 32.9988 30.4003 33.3988 30.5003C33.5988 30.5003 34.2988 30.7003 34.7988 30.9003C35.2988 31.1003 35.6988 31.5003 35.6988 31.5003C35.6988 31.5003 36.0988 31.8003 36.3988 32.3003C36.6988 32.8003 36.9988 33.4003 36.9988 33.6003C37.0988 34.0003 37.2988 34.3003 37.1988 34.7003C37.2988 34.3003 37.4988 34.1003 37.5988 33.6003C37.5988 33.5003 37.6988 33.2003 37.5988 32.9003C37.5988 32.6003 37.4988 32.2003 37.2988 31.8003C36.9988 31.1003 36.3988 30.6003 36.3988 30.6003C36.3988 30.6003 35.7988 30.1003 35.0988 29.9003C34.6988 29.8003 34.2988 29.8003 33.9988 29.8003C33.6988 29.8003 33.3988 29.9003 33.2988 29.9003C32.7988 30.0003 32.5988 30.3003 32.2988 30.4003Z" fill="black"/>
<path d="M35.7988 34.0004C35.9988 34.1004 36.0988 34.3004 36.2988 34.5004C36.3988 34.6004 36.6988 34.9004 36.8988 35.2004C37.0988 35.5004 37.2988 35.7004 37.2988 35.7004C37.2988 35.7004 37.4988 36.0004 37.6988 36.3004C37.8988 36.6004 38.0988 37.0004 38.0988 37.1004C38.1988 37.3004 38.3988 37.5004 38.3988 37.7004C38.3988 37.5004 38.6988 37.3004 38.7988 37.0004C38.7988 36.9004 38.8988 36.7004 38.8988 36.5004C38.8988 36.3004 38.8988 36.0004 38.7988 35.8004C38.6988 35.3004 38.3988 35.0004 38.3988 35.0004C38.3988 35.0004 38.1988 34.6004 37.6988 34.3004C37.4988 34.2004 37.2988 34.0004 37.0988 34.0004C36.8988 33.9004 36.6988 33.9004 36.5988 33.9004C36.1988 33.9004 35.9988 34.1004 35.7988 34.0004Z" fill="black"/>
<path d="M33.7988 21.4C34.2988 21 34.8988 21.2 35.2988 21.6C35.3988 21.7 35.5988 21.8 35.6988 22.1C35.7988 22.3 35.8988 22.6 35.9988 23C36.0988 23.3 36.0988 23.7 36.0988 24C36.0988 24.2 36.0988 24.3 36.0988 24.4C36.0988 24.6 36.0988 24.7 36.1988 24.8C36.2988 25 36.3988 25.1 36.4988 25.2C36.7988 25.4 37.0988 25.4 37.3988 25.3C37.6988 25.2 37.7988 25.1 37.9988 25C38.0988 25 38.0988 25 38.0988 25C38.0988 25 38.1988 24.9 38.3988 25C38.5988 25 38.9988 25.2 39.3988 25.5C39.7988 25.8 40.0988 26.2 40.2988 26.6C40.4988 27 40.5988 27.4 40.6988 27.5C40.8988 28.2 40.9988 28.6 40.7988 29.2C40.9988 28.6 41.2988 28.2 41.3988 27.4C41.3988 27.2 41.3988 26.7 41.1988 26.2C41.0988 25.7 40.6988 25.1 40.2988 24.6C39.8988 24.1 39.1988 23.8 38.6988 23.7C38.3988 23.7 38.1988 23.7 37.9988 23.7C37.7988 23.7 37.6988 23.8 37.6988 23.8C37.6988 23.8 37.6988 23.8 37.5988 23.8L37.3988 23.9C37.3988 23.6 37.2988 23.1 37.0988 22.7C36.9988 22.3 36.6988 21.9 36.4988 21.6C36.1988 21.3 35.8988 21.1 35.6988 21.1C34.7988 20.7 34.1988 21 33.7988 21.4Z" fill="black"/>
<path d="M40.0996 17.6003C40.4996 17.4003 40.8996 17.6003 41.0996 17.9003C41.1996 18.0003 41.2996 18.2003 41.2996 18.5003C41.2996 18.6003 41.2996 18.6003 41.2996 18.7003C41.2996 18.8003 41.1996 18.9003 41.1996 19.0003C41.0996 19.4003 41.1996 19.7003 41.3996 19.9003C41.4996 20.0003 41.6996 20.1003 41.8996 20.2003C41.9996 20.2003 42.0996 20.2003 42.1996 20.3003H42.2996C42.3996 20.3003 42.4996 20.4003 42.5996 20.4003C42.7996 20.5003 42.7996 20.5003 42.7996 20.5003C42.7996 20.5003 43.2996 20.7003 43.6996 21.2003C44.0996 21.6003 44.2996 22.4003 44.2996 22.6003C44.3996 23.1003 44.4996 23.4003 44.2996 23.8003C44.4996 23.4003 44.7996 23.2003 44.9996 22.6003C44.9996 22.4003 45.0996 22.1003 45.0996 21.7003C45.0996 21.3003 44.8996 20.8003 44.6996 20.4003C44.4996 20.0003 44.0996 19.7003 43.8996 19.5003C43.5996 19.3003 43.3996 19.2003 43.3996 19.2003C43.3996 19.2003 43.2996 19.1003 42.9996 19.0003C42.8996 19.0003 42.6996 18.9003 42.4996 18.9003C42.4996 18.9003 42.3996 18.9003 42.2996 18.9003C42.2996 18.9003 42.2996 18.7003 42.2996 18.6003C42.2996 18.5003 42.2996 18.3003 42.1996 18.2003C42.0996 17.7003 41.5996 17.3003 41.3996 17.2003C40.7996 17.1003 40.3996 17.3003 40.0996 17.6003Z" fill="black"/>
<path d="M46.3984 15.8004C46.4984 15.6004 46.6984 15.7004 46.8984 15.8004C46.9984 15.8004 47.0984 16.0004 47.2984 16.1004C47.3984 16.2004 47.4984 16.3004 47.4984 16.3004C47.4984 16.3004 47.5984 16.5004 47.6984 16.7004C47.7984 17.0004 48.0984 17.3004 48.1984 17.4004C48.3984 17.6004 48.5984 17.6004 48.7984 17.7004C48.6984 17.5004 48.7984 17.4004 48.8984 17.1004C48.8984 17.0004 48.9984 16.7004 48.8984 16.3004C48.8984 16.0004 48.6984 15.6004 48.6984 15.6004C48.6984 15.6004 48.3984 15.2004 47.9984 15.0004C47.7984 14.9004 47.5984 14.9004 47.2984 14.9004C47.0984 14.9004 46.8984 15.0004 46.8984 15.0004C46.3984 15.4004 46.3984 15.7004 46.3984 15.8004Z" fill="black"/>
<path d="M51.8984 13.4003C52.3984 13.0003 52.7984 12.9003 53.3984 12.5003C53.6984 12.3003 54.6984 11.6003 55.4984 10.8003C56.2984 10.1003 56.9984 9.30029 56.9984 9.30029C56.9984 9.30029 57.0984 9.10029 57.3984 8.80029C57.4984 8.60029 57.6984 8.50029 57.8984 8.20029C57.8984 8.10029 57.9984 8.10029 57.9984 8.00029C57.9984 8.00029 57.9984 8.00029 58.0984 8.10029C58.2984 8.20029 58.4984 8.40029 58.6984 8.50029C59.0984 8.80029 59.3984 9.00029 59.5984 9.10029C60.1984 9.50029 60.6984 9.60029 61.1984 9.90029C60.6984 9.50029 60.4984 9.10029 60.0984 8.60029C59.9984 8.40029 59.6984 8.10029 59.3984 7.80029C59.1984 7.60029 59.0984 7.40029 58.8984 7.30029C58.5984 6.90029 58.2984 6.60029 57.9984 6.30029C57.7984 6.60029 57.5984 6.80029 57.3984 7.00029C57.2984 7.20029 57.0984 7.30029 56.9984 7.50029C56.7984 7.70029 56.6984 7.90029 56.4984 8.00029C56.1984 8.30029 56.0984 8.50029 56.0984 8.50029C56.0984 8.50029 55.3984 9.20029 54.6984 10.0003C53.9984 10.8003 53.1984 11.7003 52.9984 12.0003C52.4984 12.6003 52.2984 13.0003 51.8984 13.4003Z" fill="black"/>
<path d="M15.2988 26.0002C15.6988 25.3002 15.9988 24.6002 16.5988 24.2002C17.0988 23.8002 17.6988 24.0002 18.3988 24.6002C18.6988 24.8002 19.0988 25.1002 19.9988 25.8002C20.6988 26.3002 22.2988 27.7002 22.2988 27.7002C22.2988 27.7002 23.5988 28.9002 24.3988 29.5002C25.4988 30.5002 26.0988 31.1002 26.4988 31.5002C27.8988 32.9002 28.7988 33.5002 29.7988 34.8002C28.8988 33.5002 28.3988 32.4002 27.1988 30.8002C26.8988 30.4002 26.2988 29.7002 25.1988 28.6002C24.7988 28.2002 24.2988 27.7002 23.8988 27.4002C23.4988 27.0002 23.0988 26.7002 23.0988 26.7002C23.0988 26.7002 22.6988 26.3002 22.1988 25.9002C21.6988 25.5002 20.9988 25.0002 20.6988 24.8002C19.7988 24.2002 19.2988 23.9002 18.9988 23.7002C18.5988 23.5002 18.0988 23.2002 17.5988 23.2002C17.0988 23.2002 16.5988 23.5002 16.3988 23.8002C15.7988 24.6002 15.6988 25.3002 15.2988 26.0002Z" fill="black"/>
<path d="M22.3984 4.4C23.9984 4 25.0984 4.1 27.0984 3.9C27.3984 3.9 27.9984 3.9 29.0984 3.8C29.6984 3.8 30.5984 3.8 31.4984 3.8C32.2984 3.8 32.9984 3.9 32.9984 3.9C32.9984 3.9 33.0984 3.9 33.3984 3.9C33.5984 3.9 33.9984 4 34.2984 4C34.6984 4 35.0984 4.1 35.3984 4.1C35.7984 4.1 36.1984 4.2 36.4984 4.3C37.9984 4.5 38.7984 4.7 39.2984 4.8C41.1984 5.2 42.2984 5.4 43.7984 6C42.2984 5.3 41.3984 4.6 39.4984 3.9C39.2984 3.8 38.8984 3.7 38.4984 3.5C37.9984 3.4 37.3984 3.2 36.6984 3C36.3984 2.9 35.9984 2.8 35.5984 2.8C35.1984 2.7 34.7984 2.7 34.3984 2.6C33.9984 2.6 33.6984 2.5 33.4984 2.5C33.2984 2.5 33.0984 2.5 33.0984 2.5C33.0984 2.5 32.8984 2.5 32.5984 2.5C32.2984 2.5 31.8984 2.5 31.4984 2.5C30.5984 2.5 29.5984 2.5 29.0984 2.6C27.9984 2.7 27.3984 2.8 27.0984 2.9C24.9984 3.4 23.9984 4 22.3984 4.4Z" fill="black"/>
<path d="M4.89826 37.1004C4.69826 36.7004 4.19826 36.7004 3.79826 36.9004C3.39826 37.1004 3.19826 37.4004 2.99826 37.8004C2.79826 38.1004 2.59826 38.4004 2.49826 39.0004C2.39826 39.5004 2.69826 40.2004 3.19826 40.5004C3.39826 40.6004 3.69826 40.8004 4.09826 40.8004C4.49826 40.8004 5.19826 40.7004 5.69826 40.1004C5.89826 39.9004 5.99826 39.6004 6.19826 39.3004C6.29826 39.0004 6.29826 38.6004 6.29826 38.2004C6.29826 37.7004 6.19826 37.4004 6.09826 37.2004C5.99826 37.0004 5.89826 36.9004 5.89826 36.9004C5.89826 36.9004 5.59826 36.5004 5.09826 36.2004C4.59826 35.9004 3.89826 35.7004 3.39826 35.8004C2.39826 35.9004 1.79826 36.4004 1.39826 36.8004C0.998261 37.2004 0.898261 37.6004 0.798261 37.9004C0.398261 39.0004 0.698261 39.9004 0.998261 40.6004C1.39826 41.3004 1.89826 41.8004 2.49826 42.3004C1.89826 41.8004 1.59826 41.1004 1.39826 40.4004C1.29826 39.7004 1.29826 39.0004 1.69826 38.3004C1.79826 38.1004 1.99826 37.9004 2.19826 37.6004C2.49826 37.3004 2.89826 37.1004 3.39826 37.0004C3.69826 37.0004 4.09826 37.1004 4.39826 37.3004C4.69826 37.5004 4.79826 37.7004 4.79826 37.7004C4.79826 37.7004 5.09826 38.0004 5.09826 38.3004C5.19826 38.6004 5.09826 39.0004 4.89826 39.2004C4.69826 39.5004 4.39826 39.6004 4.29826 39.6004C4.09826 39.6004 3.99826 39.6004 3.89826 39.5004C3.59826 39.4004 3.39826 39.2004 3.39826 38.8004C3.39826 38.5004 3.49826 38.1004 3.49826 37.8004C3.59826 37.5004 3.69826 37.1004 3.89826 36.9004C4.19826 36.7004 4.69826 36.7004 4.89826 37.1004Z" fill="black"/>
<path d="M8.79861 25.1002C8.59861 25.1002 8.39861 24.9002 7.99861 25.0002C7.89861 25.0002 7.69861 25.1002 7.59861 25.3002C7.39861 25.5002 7.29861 25.8002 7.39861 26.2002C7.49861 26.6002 7.69861 26.8002 7.89861 27.0002C8.09861 27.1002 8.29861 27.1002 8.29861 27.1002C8.29861 27.1002 8.39861 27.1002 8.69861 27.1002C8.89861 27.1002 9.19861 27.0002 9.49861 26.8002C9.79861 26.6002 9.89861 26.2002 9.89861 25.9002C9.89861 25.6002 9.69861 25.3002 9.59861 25.3002C9.29861 25.1002 9.0986 25.3002 8.9986 25.3002C8.8986 25.4002 8.89861 25.5002 8.89861 25.6002C8.99861 25.3002 9.29861 25.6002 9.09861 25.7002C9.09861 25.7002 8.9986 25.7002 8.9986 25.8002C8.8986 25.8002 8.89861 25.8002 8.89861 25.8002C8.79861 25.8002 8.69861 25.8002 8.69861 25.8002C8.69861 25.8002 8.69861 25.8002 8.59861 25.8002C8.49861 25.8002 8.4986 25.5002 8.4986 25.4002C8.3986 25.3002 8.49861 25.1002 8.79861 25.1002Z" fill="black"/>
<path d="M24.0001 52.3003C23.7001 52.2003 23.5001 52.0003 23.0001 52.2003C22.9001 52.3003 22.6001 52.4003 22.4001 52.7003C22.2001 53.0003 22.2001 53.5003 22.3001 53.9003C22.4001 54.3003 22.8001 54.6003 23.1001 54.7003C23.4001 54.8003 23.6001 54.8003 23.6001 54.8003C23.6001 54.8003 23.8001 54.8003 24.1001 54.8003C24.4001 54.7003 24.9001 54.5003 25.1001 54.0003C25.3001 53.6003 25.2001 53.1003 24.9001 52.7003C24.6001 52.3003 24.2001 52.3003 24.1001 52.3003C23.6001 52.4003 23.4001 52.7003 23.3001 53.0003C23.5001 52.7003 23.8001 52.8003 24.0001 53.0003C24.1001 53.0003 24.1001 53.1003 24.1001 53.2003C24.1001 53.3003 24.0001 53.4003 24.0001 53.5003C23.9001 53.6003 23.9001 53.6003 23.8001 53.6003C23.7001 53.6003 23.7001 53.6003 23.7001 53.6003C23.7001 53.6003 23.5001 53.6003 23.3001 53.4003C23.2001 53.3003 23.2001 53.1003 23.2001 53.0003C23.2001 52.9003 23.2001 52.7003 23.3001 52.7003C23.4001 52.5003 23.7001 52.2003 24.0001 52.3003Z" fill="black"/>
<path d="M48.0983 45.8004C47.8983 45.6004 47.6983 45.4004 47.1983 45.4004C47.0983 45.4004 46.7983 45.4004 46.4983 45.7004C46.1983 45.9004 45.9983 46.4004 46.0983 46.8004C46.0983 47.2004 46.3983 47.6004 46.5983 47.8004C46.8983 48.0004 47.0983 48.1004 47.0983 48.1004C47.0983 48.1004 47.2983 48.2004 47.6983 48.1004C47.9983 48.0004 48.3983 47.8004 48.6983 47.5004C48.9983 47.1004 48.9983 46.6004 48.7983 46.2004C48.5983 45.9004 48.2983 45.7004 48.1983 45.7004C47.6983 45.6004 47.3983 45.8004 47.1983 45.9004C47.4983 45.8004 47.6983 46.0004 47.7983 46.2004C47.7983 46.3004 47.8983 46.4004 47.8983 46.5004C47.8983 46.6004 47.7983 46.6004 47.6983 46.7004C47.5983 46.8004 47.4983 46.8004 47.4983 46.8004C47.4983 46.8004 47.4983 46.8004 47.3983 46.8004C47.3983 46.8004 47.2983 46.7004 47.1983 46.6004C47.1983 46.5004 47.0983 46.4004 47.1983 46.3004C47.1983 46.2004 47.2983 46.1004 47.3983 46.0004C47.5983 45.9004 47.8983 45.7004 48.0983 45.8004Z" fill="black"/>
<path d="M36.4992 51.7002C36.2992 52.5002 36.9992 53.2002 37.6992 53.4002C38.4992 53.6002 39.3992 53.4002 40.1992 52.7002C40.2992 52.6002 40.4992 52.4002 40.6992 52.1002C40.8992 51.8002 41.0992 51.3002 41.1992 50.7002C41.1992 50.1002 41.0992 49.2002 40.4992 48.4002C39.8992 47.6002 38.8992 47.2002 37.8992 47.2002C36.9992 47.2002 36.0992 47.5002 35.6992 47.8002C35.1992 48.1002 34.8992 48.4002 34.8992 48.4002C34.8992 48.4002 34.6992 48.6002 34.3992 49.0002C34.0992 49.4002 33.6992 50.0002 33.5992 50.8002C33.3992 51.6002 33.3992 52.5002 33.5992 53.3002C33.7992 54.1002 34.3992 54.8002 34.9992 55.2002C35.6992 55.7002 36.3992 55.8002 36.8992 55.9002C37.3992 55.9002 37.7992 55.9002 38.0992 55.8002C39.1992 55.6002 39.7992 55.1002 40.3992 54.5002C40.8992 54.0002 41.2992 53.4002 41.7992 52.7002C41.3992 53.4002 40.7992 53.9002 40.1992 54.3002C39.5992 54.7002 38.8992 55.0002 37.9992 55.0002C37.7992 55.0002 37.4992 55.0002 36.9992 54.9002C36.5992 54.8002 36.0992 54.7002 35.5992 54.3002C35.1992 54.0002 34.8992 53.5002 34.6992 52.9002C34.4992 52.3002 34.5992 51.6002 34.6992 51.1002C34.7992 50.5002 35.0992 50.1002 35.3992 49.8002C35.5992 49.5002 35.7992 49.3002 35.7992 49.3002C35.7992 49.3002 35.9992 49.1002 36.3992 48.9002C36.7992 48.7002 37.2992 48.4002 37.8992 48.4002C38.4992 48.4002 39.1992 48.6002 39.5992 49.1002C39.9992 49.6002 40.1992 50.2002 40.1992 50.6002C40.1992 51.1002 40.0992 51.4002 39.9992 51.6002C39.8992 51.8002 39.7992 52.0002 39.6992 52.1002C39.0992 52.7002 38.3992 53.1002 37.7992 53.0002C37.4992 53.0002 37.0992 52.9002 36.8992 52.7002C36.5992 52.5002 36.3992 52.1002 36.4992 51.7002Z" fill="black"/>
<path d="M10.0992 12.4004C8.39921 13.8004 7.29921 14.9004 5.69921 17.0004C5.49921 17.3004 5.19921 17.7004 4.79921 18.3004C4.59921 18.6004 4.39921 18.9004 4.19921 19.2004L4.09921 19.5004C3.99921 19.6004 3.99921 19.7004 3.89921 19.9004C3.79921 20.1004 3.59921 20.4004 3.49921 20.6004C3.29921 21.1004 2.89921 21.6004 2.69921 22.2004C0.699209 26.5004 -0.400791 32.3004 0.299209 37.7004C1.09921 43.1004 3.29921 47.9004 5.59921 51.1004C6.09921 51.9004 6.69921 52.5004 7.19921 53.2004C7.69921 53.8004 8.19921 54.3004 8.59921 54.7004C8.99921 55.1004 9.29921 55.4004 9.49921 55.6004C9.69921 55.8004 9.79921 55.9004 9.79921 55.9004C9.79921 55.9004 10.2992 56.3004 11.0992 57.0004C11.2992 57.2004 11.5992 57.4004 11.7992 57.6004C12.0992 57.8004 12.3992 58.0004 12.6992 58.2004C13.2992 58.6004 14.0992 59.1004 14.8992 59.6004C15.2992 59.8004 15.7992 60.1004 16.1992 60.3004C16.6992 60.5004 17.1992 60.7004 17.6992 60.9004C18.6992 61.4004 19.8992 61.7004 20.9992 62.1004C23.3992 62.8004 25.9992 63.2004 28.6992 63.3004C31.3992 63.4004 34.1992 63.2004 36.7992 62.6004C39.3992 62.0004 41.8992 61.0004 43.8992 59.9004C45.4992 59.1004 46.6992 58.3004 47.1992 57.8004C49.2992 56.2004 50.3992 55.1004 51.8992 53.5004C50.3992 55.1004 49.0992 56.0004 46.8992 57.4004C46.2992 57.8004 45.0992 58.5004 43.4992 59.2004C41.4992 60.1004 38.9992 61.0004 36.4992 61.4004C33.9992 61.9004 31.2992 62.0004 28.6992 61.8004C26.0992 61.6004 23.5992 61.1004 21.3992 60.5004C20.2992 60.1004 19.1992 59.8004 18.2992 59.3004C17.7992 59.1004 17.3992 58.9004 16.8992 58.7004C16.4992 58.5004 16.0992 58.2004 15.6992 58.0004C14.8992 57.6004 14.1992 57.1004 13.5992 56.7004C13.2992 56.5004 12.9992 56.3004 12.7992 56.1004C12.5992 55.9004 12.2992 55.7004 12.0992 55.6004C11.2992 54.9004 10.7992 54.6004 10.7992 54.6004C10.7992 54.6004 10.6992 54.5004 10.4992 54.3004C10.2992 54.1004 9.99921 53.8004 9.59921 53.5004C9.19921 53.1004 8.79921 52.7004 8.29921 52.1004C7.89921 51.5004 7.29921 50.9004 6.79921 50.2004C4.69921 47.3004 2.49921 42.7004 1.59921 37.6004C0.699209 32.5004 1.59921 27.0004 3.29921 22.7004C3.49921 22.1004 3.79921 21.6004 3.99921 21.1004C4.09921 20.8004 4.19921 20.6004 4.29921 20.4004C4.39921 20.3004 4.39921 20.2004 4.49921 20.0004L4.69921 19.7004C4.89921 19.4004 4.99921 19.0004 5.19921 18.8004C5.49921 18.2004 5.79921 17.8004 5.99921 17.5004C6.29921 16.9004 6.69921 16.5004 6.99921 16.0004C7.29921 15.5004 7.59921 15.2004 7.89921 14.8004C8.59921 13.8004 9.19921 13.1004 10.0992 12.4004Z" fill="black"/>
<path d="M55.7988 22.3003C56.4988 23.8003 56.6988 24.9003 56.9988 26.8003C57.0988 27.1003 57.1988 27.6003 57.2988 28.7003C57.3988 29.7003 57.4988 31.3003 57.4988 32.7003C57.4988 34.1003 57.2988 35.2003 57.2988 35.2003C57.2988 35.2003 57.1988 36.2003 56.9988 37.4003C56.7988 38.6003 56.4988 40.1003 56.2988 41.2003C55.9988 42.6003 55.6988 43.5003 55.5988 44.0003C55.0988 45.9003 54.8988 47.0003 54.2988 48.5003C54.8988 47.0003 55.5988 46.1003 56.3988 44.2003C56.5988 43.7003 56.8988 42.9003 57.3988 41.4003C57.6988 40.3003 58.0988 38.8003 58.2988 37.6003C58.4988 36.3003 58.5988 35.3003 58.5988 35.3003C58.5988 35.3003 58.6988 34.1003 58.6988 32.6003C58.6988 31.1003 58.4988 29.4003 58.2988 28.4003C58.0988 27.3003 57.8988 26.8003 57.7988 26.4003C57.1988 24.7003 56.4988 23.8003 55.7988 22.3003Z" fill="black"/>
</g>
<defs>
<clipPath id="clip0_420_632">
<rect width="65.6" height="62.9" fill="white" transform="translate(0.0996094 0.200195)"/>
</clipPath>
</defs>
</svg>
