<svg width="35" height="66" viewBox="0 0 35 66" fill="none" xmlns="http://www.w3.org/2000/svg">
<g clip-path="url(#clip0_420_491)">
<path d="M7.40234 12.7C9.10234 12 10.4023 11.9 12.2023 10.5C12.3023 10.4 12.5023 10.2 12.8023 10C13.1023 9.7 13.4023 9.4 13.7023 8.8C14.0023 8.2 14.4023 7.4 14.4023 6.4C14.4023 5.4 14.0023 4.3 13.5023 3.6C13.2023 3.2 12.9023 2.9 12.5023 2.6C12.3023 2.5 12.2023 2.3 12.0023 2.2C11.9023 2.2 11.9023 2.1 11.8023 2.1C11.8023 2.1 12.1023 2 12.6023 1.8C13.1023 1.6 13.8023 1.5 14.6023 1.5C15.4023 1.5 16.4023 1.6 17.2023 1.8C18.1023 2 18.8023 2.4 19.4023 2.8C20.6023 3.7 21.0023 4.6 21.1023 5.1C21.4023 6 21.3023 6.9 21.1023 7.6C20.9023 8.3 20.4023 9 19.7023 9.5C20.5023 9 21.0023 8.4 21.4023 7.7C21.8023 7 22.1023 6.1 21.9023 4.9C21.8023 4.6 21.7023 4.2 21.5023 3.7C21.2023 3.2 20.8023 2.6 20.1023 2C19.5023 1.3 18.6023 0.8 17.6023 0.5C16.6023 0.2 15.6023 0 14.6023 0C13.6023 0 12.8023 0.1 12.2023 0.3C11.6023 0.5 11.2023 0.7 11.2023 0.7C11.2023 0.7 11.2023 0.7 10.9023 0.9C10.8023 1 10.6023 1.1 10.3023 1.3C10.1023 1.5 9.80234 1.7 9.40234 2C9.40234 2 9.30234 2.1 9.20234 2.2C9.20234 2.2 9.10234 2.3 9.00234 2.3H8.90234C8.90234 2.3 8.80234 2.3 8.90234 2.4C9.30234 2.5 10.0023 2.7 10.6023 2.9C10.7023 3 10.9023 3 11.1023 3.1C11.2023 3.2 11.3023 3.2 11.3023 3.2C11.4023 3.3 11.6023 3.4 11.7023 3.5C12.0023 3.7 12.2023 3.9 12.5023 4.2C13.0023 4.8 13.3023 5.5 13.3023 6.3C13.3023 7 13.1023 7.7 12.9023 8.2C12.4023 9.2 11.9023 9.6 11.7023 9.8C11.0023 10.5 10.3023 11 9.60234 11.4C8.90234 12 8.20234 12.3 7.40234 12.7Z" fill="black"/>
<path d="M22 3.7002C23.6 4.5002 24.6 5.2002 26.2 6.6002C26.5 6.8002 26.9 7.2002 27.7 8.1002C28.1 8.6002 28.6 9.2002 28.9 9.9002C29.2 10.6002 29.4 11.5002 29.2 12.3002C29 13.1002 28.5 13.9002 27.8 14.5002C27.1 15.1002 26.3 15.6002 25.4 15.9002C23.7 16.5002 21.9 16.8002 20.6 17.0002C19.3 17.2002 18.5 17.4002 18.5 17.4002C18.5 17.4002 15.9 17.9002 12.5 18.4002C12.1 18.5002 11.6 18.5002 11.2 18.6002C10.7 18.7002 10.3 18.7002 9.8 18.8002C8.9 19.0002 7.9 19.3002 7 19.7002C5.2 20.5002 3.6 21.6002 2.8 23.0002C2.5 23.4002 2.4 23.7002 2.3 24.1002C2.2 24.4002 2.1 24.8002 2 25.0002C2 25.3002 2 25.5002 2 25.7002C2 25.9002 2 26.1002 2 26.2002C2.1 27.3002 2.6 28.1002 3.1 28.8002C3.6 29.4002 4.2 30.0002 5 30.4002C4.2 29.9002 3.7 29.4002 3.3 28.7002C2.9 28.0002 2.6 27.2002 2.6 26.2002C2.6 26.1002 2.6 25.9002 2.6 25.7002C2.6 25.5002 2.7 25.3002 2.7 25.1002C2.8 24.9002 2.8 24.6002 3 24.3002C3.1 24.0002 3.3 23.7002 3.5 23.4002C4.3 22.3002 5.8 21.3002 7.5 20.7002C8.3 20.4002 9.2 20.1002 10.1 20.0002C10.5 19.9002 11 19.9002 11.4 19.8002C11.9 19.8002 12.3 19.7002 12.7 19.7002C16.2 19.3002 18.8 18.8002 18.8 18.8002C18.8 18.8002 19.6 18.6002 20.9 18.4002C22.2 18.1002 23.9 17.9002 25.9 17.1002C27.8 16.4002 29.8 14.7002 30.2 12.4002C30.4 11.3002 30.1 10.2002 29.7 9.4002C29.3 8.6002 28.7 7.9002 28.2 7.4002C27.3 6.5002 26.8 6.2002 26.5 6.0002C24.7 4.9002 23.6 4.5002 22 3.7002Z" fill="black"/>
<path d="M30.2016 12.6001C30.7016 13.3001 31.1016 14.0001 31.3016 14.8001C31.6016 15.6001 31.8016 16.3001 32.0016 17.4001C32.1016 17.7001 32.2016 18.3001 32.3016 19.5001C32.3016 19.8001 32.3016 20.2001 32.3016 20.6001C32.3016 21.0001 32.3016 21.3001 32.3016 21.3001C32.3016 21.3001 32.3016 21.6001 32.2016 21.9001C32.2016 22.2001 32.1016 22.7001 32.0016 23.0001C31.8016 23.7001 31.6016 24.3001 31.4016 24.8001C31.2016 25.3001 31.0016 25.6001 30.9016 25.8001C30.4016 26.7001 30.0016 27.4001 29.5016 28.0001C29.0016 28.6001 28.4016 29.1001 27.6016 29.5001C29.2016 28.8001 30.5016 28.3001 31.9016 26.4001C32.1016 26.2001 32.3016 25.8001 32.6016 25.3001C32.9016 24.8001 33.2016 24.2001 33.4016 23.3001C33.5016 23.0001 33.6016 22.5001 33.6016 22.1001C33.7016 21.7001 33.7016 21.4001 33.7016 21.4001C33.7016 21.4001 33.7016 21.0001 33.7016 20.6001C33.7016 20.1001 33.6016 19.6001 33.6016 19.3001C33.4016 18.0001 33.2016 17.4001 33.0016 17.1001C32.4016 14.8001 31.3016 14.0001 30.2016 12.6001Z" fill="black"/>
<path d="M19.3031 9.8999C17.5031 10.1999 16.3031 9.9999 14.1031 10.2999C13.7031 10.2999 13.1031 10.3999 11.9031 10.4999C11.2031 10.5999 10.1031 10.6999 9.20313 10.9999C8.20313 11.2999 7.50312 11.6999 7.50312 11.6999C7.50312 11.6999 6.80312 11.9999 6.10312 12.5999C5.40312 13.1999 4.80312 14.1999 4.60312 14.9999C4.30312 15.8999 4.20313 16.5999 4.30313 17.1999C4.30313 17.7999 4.40313 18.1999 4.50313 18.4999C4.80313 19.5999 5.50312 20.3999 6.10312 20.8999C6.70312 21.3999 7.40312 21.7999 8.20312 22.1999C7.40312 21.8999 6.80313 21.2999 6.40313 20.5999C5.90313 19.9999 5.60313 19.1999 5.40313 18.2999C5.30313 17.7999 5.20312 16.8999 5.80312 15.4999C6.00312 14.8999 6.50312 14.1999 7.10312 13.6999C7.60312 13.1999 8.20312 12.9999 8.20312 12.9999C8.20312 12.9999 8.80313 12.6999 9.70313 12.3999C10.5031 12.0999 11.6031 11.8999 12.2031 11.7999C13.4031 11.4999 14.0031 11.3999 14.3031 11.2999C16.4031 10.7999 17.5031 10.1999 19.3031 9.8999Z" fill="black"/>
<path d="M0.601562 29.4999C2.40156 29.3999 3.60156 29.4999 5.80156 29.4999C6.20156 29.4999 6.80156 29.4999 8.00156 29.4999C10.8016 29.4999 17.4016 29.3999 17.4016 29.3999C17.4016 29.3999 23.0016 29.3999 26.0016 29.3999C27.6016 29.3999 28.7016 29.3999 29.2016 29.3999C31.4016 29.3999 32.6016 29.1999 34.4016 29.3999C32.6016 29.1999 31.4016 28.8999 29.3016 28.5999C28.8016 28.4999 27.7016 28.3999 26.1016 28.2999C24.6016 28.0999 22.4016 27.9999 20.6016 27.8999C18.8016 27.8999 17.4016 27.8999 17.4016 27.8999C17.4016 27.8999 15.7016 27.8999 13.7016 27.9999C11.7016 28.0999 9.30156 28.2999 7.90156 28.3999C6.70156 28.4999 6.10156 28.5999 5.70156 28.6999C3.60156 28.9999 2.40156 29.2999 0.601562 29.4999Z" fill="black"/>
<path d="M1.10156 29.7002C1.20156 31.5002 1.10156 32.7002 1.20156 34.9002C1.20156 35.3002 1.20156 35.9002 1.30156 37.1002C1.30156 38.0002 1.40156 39.2002 1.50156 40.5002C1.50156 40.7002 1.50156 41.0002 1.50156 41.2002C1.50156 41.4002 1.50156 41.5002 1.60156 41.7002V42.0002V42.1002C1.60156 42.1002 1.60156 42.1002 1.70156 42.1002H1.80156C2.30156 42.1002 2.80156 42.1002 3.30156 42.0002C4.00156 42.0002 4.60156 42.0002 5.30156 41.9002C7.90156 41.8002 10.0016 41.9002 10.0016 41.9002C10.0016 41.9002 11.8016 41.9002 14.1016 41.9002C16.4016 41.9002 19.2016 41.9002 21.2016 41.8002C22.9016 41.7002 23.9016 41.6002 24.4016 41.6002C26.6016 41.4002 27.8016 41.1002 29.6016 41.0002C27.8016 41.1002 26.6016 41.0002 24.4016 40.9002C23.9016 40.9002 22.8016 40.9002 21.2016 40.8002C19.2016 40.7002 16.4016 40.6002 14.1016 40.6002C11.8016 40.5002 10.0016 40.6002 10.0016 40.6002C10.0016 40.6002 7.80156 40.6002 5.20156 40.7002C4.50156 40.7002 3.90156 40.8002 3.20156 40.8002H2.70156C2.70156 40.8002 2.70156 40.9002 2.70156 40.7002V40.5002C2.50156 39.2002 2.40156 38.0002 2.30156 37.1002C2.10156 35.9002 2.10156 35.3002 2.00156 34.9002C1.60156 32.7002 1.30156 31.5002 1.10156 29.7002Z" fill="black"/>
<path d="M30 40.2999C30.7 40.3999 31.1 40.5999 32 40.6999C32.1 40.6999 32.3 40.6999 32.5 40.6999C32.7 40.6999 32.9 40.6999 33.3 40.5999C33.5 40.4999 33.8 40.2999 33.9 39.9999C34 39.6999 34 39.4999 34 39.3999C34 39.0999 34 38.7999 34 38.4999C34 37.2999 34 36.1999 34 36.1999C34 36.1999 34 35.0999 34 33.8999C34 32.6999 33.9 31.2999 33.9 30.8999C33.8 30.0999 33.7 29.5999 33.8 28.8999C33.7 29.5999 33.4 29.9999 33.2 30.7999C33.1 31.1999 32.8 32.5999 32.7 33.7999C32.6 34.9999 32.6 36.1999 32.6 36.1999C32.6 36.1999 32.6 37.2999 32.7 38.5999C32.7 38.8999 32.8 39.1999 32.8 39.4999C32.8 39.6999 32.8 39.6999 32.8 39.6999C32.9 39.6999 32.9 39.7999 32.9 39.6999C32.8 39.5999 32.9 39.6999 32.8 39.6999C32.7 39.7999 32.4 39.7999 32.2 39.8999C32 39.9999 31.8 39.9999 31.7 39.9999C31.2 40.1999 30.7 40.3999 30 40.2999Z" fill="black"/>
<path d="M11.0031 29.2002C11.0031 29.7002 10.8031 30.1002 10.6031 30.7002C10.6031 31.0002 10.4031 32.0002 10.3031 33.0002C10.2031 33.9002 10.2031 34.8002 10.2031 34.8002C10.2031 34.8002 10.2031 35.6002 10.2031 36.6002C10.2031 37.5002 10.4031 38.6002 10.4031 38.9002C10.5031 39.5002 10.7031 39.9002 10.7031 40.4002C10.7031 39.9002 10.9031 39.5002 11.1031 38.9002C11.2031 38.6002 11.4031 37.5002 11.4031 36.6002C11.5031 35.7002 11.5031 34.8002 11.5031 34.8002C11.5031 34.8002 11.5031 34.0002 11.5031 33.0002C11.5031 32.1002 11.3031 31.0002 11.3031 30.7002C11.2031 30.1002 11.0031 29.7002 11.0031 29.2002Z" fill="black"/>
<path d="M17.0023 29.2002C17.0023 29.7002 16.8023 30.0002 16.6023 30.7002C16.5023 31.0002 16.3023 32.0002 16.2023 32.9002C16.1023 33.8002 16.0023 34.6002 16.0023 34.6002C16.0023 34.6002 15.9023 35.4002 15.9023 36.3002C15.9023 37.2002 15.9023 38.2002 16.0023 38.5002C16.1023 39.1002 16.2023 39.5002 16.2023 40.0002C16.3023 39.5002 16.5023 39.2002 16.7023 38.6002C16.8023 38.3002 17.1023 37.3002 17.2023 36.4002C17.3023 35.5002 17.4023 34.7002 17.4023 34.7002C17.4023 34.7002 17.5023 33.9002 17.4023 33.0002C17.4023 32.1002 17.3023 31.1002 17.2023 30.8002C17.2023 30.0002 17.0023 29.7002 17.0023 29.2002Z" fill="black"/>
<path d="M22.8023 29.5C22.8023 30 22.5023 30.3 22.4023 30.9C22.3023 31.2 22.1023 32.2 22.0023 33.1C21.9023 34 21.9023 34.8 21.9023 34.8C21.9023 34.8 21.9023 35.6 21.9023 36.5C21.9023 37.4 22.0023 38.4 22.1023 38.7C22.2023 39.3 22.4023 39.7 22.4023 40.2C22.4023 39.7 22.7023 39.4 22.8023 38.8C22.9023 38.5 23.1023 37.5 23.2023 36.6C23.3023 35.7 23.3023 34.9 23.3023 34.9C23.3023 34.9 23.3023 34.1 23.3023 33.2C23.3023 32.3 23.2023 31.3 23.1023 31C23.0023 30.3 22.8023 30 22.8023 29.5Z" fill="black"/>
<path d="M29.0016 29.1001C29.0016 29.6001 28.7016 29.9001 28.6016 30.5001C28.5016 30.8001 28.3016 31.8001 28.2016 32.6001C28.1016 33.5001 28.1016 34.3001 28.1016 34.3001C28.1016 34.3001 28.1016 35.1001 28.1016 36.0001C28.1016 36.9001 28.2016 37.8001 28.3016 38.2001C28.4016 38.8001 28.6016 39.1001 28.6016 39.6001C28.6016 39.1001 28.9016 38.8001 29.0016 38.2001C29.1016 37.9001 29.3016 36.9001 29.4016 36.1001C29.5016 35.2001 29.5016 34.4001 29.5016 34.4001C29.5016 34.4001 29.5016 33.6001 29.5016 32.7001C29.5016 31.8001 29.4016 30.9001 29.3016 30.5001C29.2016 30.0001 29.0016 29.6001 29.0016 29.1001Z" fill="black"/>
<path d="M5.50313 28.7998C5.50313 29.2998 5.40313 29.6998 5.20312 30.3998C5.10312 30.6998 5.00312 31.7998 4.80312 32.6998C4.70312 33.6998 4.70312 34.5998 4.70312 34.5998C4.70312 34.5998 4.70312 35.4998 4.80312 36.4998C4.90312 36.9998 5.00312 37.4998 5.20312 37.8998C5.40313 38.2998 5.50313 38.6998 5.60313 38.7998C6.00313 39.3998 6.30313 39.5998 6.60313 40.0998C6.30313 39.5998 6.30313 39.1998 6.20312 38.5998C6.10312 38.2998 6.00313 37.2998 6.00313 36.3998C6.00313 35.4998 6.00313 34.5998 6.00313 34.5998C6.00313 34.5998 6.00313 33.7998 6.00313 32.7998C6.00313 32.2998 6.00313 31.7998 5.90313 31.3998C5.90313 30.9998 5.80312 30.5998 5.80312 30.3998C5.80312 29.6998 5.60313 29.3998 5.50313 28.7998Z" fill="black"/>
<path d="M5.20312 41.8999C5.50313 43.6999 5.60313 44.8999 5.90313 46.9999C6.00313 47.3999 6.00312 47.8999 6.20312 49.1999C6.50313 50.9999 7.00313 54.0999 7.50313 56.6999C7.80313 57.9999 8.00312 59.1999 8.20312 60.0999C8.20312 60.2999 8.30312 60.4999 8.30312 60.6999C8.30312 60.8999 8.30313 60.9999 8.40313 61.0999C8.40313 61.2999 8.40313 61.4999 8.40313 61.4999C8.40313 61.4999 8.40313 61.9999 8.60313 62.6999C8.70313 63.0999 8.70313 63.5999 9.10313 64.1999C9.20313 64.3999 9.30312 64.4999 9.50312 64.6999C9.60312 64.8999 9.80312 64.9999 10.0031 64.9999C10.4031 65.0999 10.7031 65.1999 11.0031 65.1999C12.3031 65.2999 13.6031 65.0999 14.8031 65.1999C16.1031 65.1999 17.3031 65.1999 18.3031 65.1999C20.0031 65.0999 21.0031 65.0999 21.5031 64.9999C23.7031 64.7999 24.9031 64.5999 26.7031 64.3999C24.9031 64.4999 23.7031 64.2999 21.5031 64.2999C21.0031 64.2999 20.0031 64.1999 18.3031 64.1999C17.3031 64.0999 16.1031 64.0999 14.8031 63.9999C13.5031 63.8999 12.2031 63.9999 11.1031 63.8999C10.8031 63.8999 10.6031 63.7999 10.4031 63.7999C10.2031 63.6999 10.3031 63.7999 10.2031 63.5999C10.0031 63.2999 10.0031 62.8999 9.90313 62.4999C9.80313 61.7999 9.70313 61.2999 9.70313 61.2999C9.70313 61.2999 9.70313 61.1999 9.70313 60.8999C9.70313 60.7999 9.70313 60.5999 9.60313 60.3999C9.60313 60.1999 9.50312 59.9999 9.50312 59.7999C9.30312 58.8999 9.10312 57.6999 8.80312 56.3999C8.30312 53.8999 7.60313 50.7999 7.10313 48.9999C6.80313 47.7999 6.60313 47.1999 6.60313 46.8999C6.00313 44.7999 5.60313 43.6999 5.20312 41.8999Z" fill="black"/>
<path d="M30.1 38.7002C29.9 40.5002 29.4 41.7002 29.1 43.8002C29 44.2002 28.9 44.7002 28.8 46.0002C28.7 46.7002 28.5 48.0002 28.4 49.1002C28.3 50.2002 28.2 51.0002 28.2 51.0002C28.2 51.0002 27.9 54.0002 27.8 55.6002C27.7 57.2002 27.6 58.3002 27.6 58.8002C27.5 61.0002 27.7 62.2002 27.5 64.0002C27.7 62.2002 28.2 61.0002 28.5 58.9002C28.6 58.4002 28.8 57.4002 29 55.7002C29.2 54.1002 29.6 51.1002 29.6 51.1002C29.6 51.1002 29.7 50.2002 29.8 49.2002C29.9 48.1002 30 46.9002 30 46.1002C30.1 44.9002 30.1 44.3002 30.1 43.9002C30.1 41.7002 29.9 40.5002 30.1 38.7002Z" fill="black"/>
<path d="M10.4023 63.5998C11.6023 62.2998 12.6023 61.4998 14.1023 59.9998C14.4023 59.6998 14.8023 59.2998 15.6023 58.3998C16.2023 57.6998 17.2023 56.5998 18.0023 55.5998C18.8023 54.5998 19.5023 53.7998 19.5023 53.7998C19.5023 53.7998 20.0023 53.0998 20.7023 52.1998C21.4023 51.2998 22.2023 50.1998 22.8023 49.3998C23.8023 48.0998 24.3023 47.1998 24.6023 46.7998C25.8023 44.9998 26.3023 43.7998 27.3023 42.2998C26.2023 43.6998 25.2023 44.4998 23.9023 46.1998C23.6023 46.5998 22.9023 47.3998 21.8023 48.6998C20.5023 50.1998 18.4023 52.9998 18.4023 52.9998C18.4023 52.9998 15.8023 56.2998 14.7023 57.6998C14.0023 58.6998 13.6023 59.1998 13.4023 59.4998C12.1023 61.0998 11.5023 62.2998 10.4023 63.5998Z" fill="black"/>
<path d="M9.20312 55.6998C10.3031 54.2998 11.4031 53.5998 12.8031 51.8998C13.0031 51.5998 13.4031 51.1998 14.2031 50.1998C14.6031 49.6998 15.5031 48.5998 15.5031 48.5998C15.5031 48.5998 16.3031 47.5998 16.7031 47.0998C17.7031 45.7998 18.3031 44.8998 18.5031 44.4998C19.7031 42.6998 20.2031 41.4998 21.5031 40.2998C20.2031 41.4998 19.1031 42.1998 17.6031 43.7998C17.2031 44.1998 16.6031 44.9998 15.5031 46.2998C15.1031 46.7998 14.3031 47.7998 14.3031 47.7998C14.3031 47.7998 13.4031 48.9998 13.1031 49.4998C12.4031 50.4998 12.0031 50.9998 11.8031 51.2998C10.7031 52.9998 10.3031 54.2998 9.20312 55.6998Z" fill="black"/>
<path d="M8.10156 49.8002C8.40156 49.4002 8.80156 49.3002 9.20156 48.9002C9.40156 48.7002 10.1016 48.1002 10.7016 47.4002C11.3016 46.8002 11.7016 46.1002 11.7016 46.1002C11.7016 46.1002 12.2016 45.5002 12.6016 44.8002C13.1016 44.1002 13.5016 43.3002 13.6016 43.0002C13.8016 42.5002 13.9016 42.1002 14.1016 41.7002C13.8016 42.1002 13.4016 42.2002 13.0016 42.6002C12.8016 42.8002 12.1016 43.4002 11.5016 44.1002C10.9016 44.7002 10.5016 45.4002 10.5016 45.4002C10.5016 45.4002 10.0016 46.0002 9.60156 46.7002C9.10156 47.4002 8.70156 48.2002 8.60156 48.5002C8.40156 49.0002 8.40156 49.4002 8.10156 49.8002Z" fill="black"/>
<path d="M18.5 62.6002C19.7 61.3002 20.9 60.6002 22.3 59.1002C22.6 58.8002 23 58.4002 23.8 57.5002C23.9 57.4002 24 57.2002 24 57.2002L24.1 57.1002L24.2 57.0002C25.1 55.9002 25.9 55.0002 26.2 54.5002C27.5 52.8002 28 51.6002 29.1 50.2002C27.9 51.5002 26.7 52.2002 25.3 53.7002C24.9 54.1002 24.1 55.0002 23.2 56.1002L23.1 56.2002C23 56.3002 23 56.3002 23 56.3002C23 56.3002 22.8 56.5002 22.8 56.6002C22 57.6002 21.7 58.0002 21.4 58.3002C20.1 60.0002 19.7 61.2002 18.5 62.6002Z" fill="black"/>
<path d="M6.40234 43.2998C7.50234 44.6998 8.10234 45.7998 9.50234 47.4998C9.70234 47.7998 10.1023 48.1998 10.9023 49.1998C11.5023 49.7998 12.5023 50.8998 13.3023 51.7998C14.2023 52.6998 14.9023 53.3998 14.9023 53.3998C14.9023 53.3998 15.5023 53.9998 16.3023 54.6998C17.1023 55.4998 18.1023 56.2998 18.8023 56.9998C20.0023 58.0998 20.8023 58.7998 21.2023 59.0998C22.8023 60.4998 23.9023 61.0998 25.3023 62.3998C24.0023 61.0998 23.4023 60.0998 21.9023 58.4998C21.5023 58.0998 20.8023 57.3998 19.7023 56.1998C18.4023 54.7998 15.9023 52.4998 15.9023 52.4998C15.9023 52.4998 13.0023 49.6998 11.7023 48.4998C10.8023 47.6998 10.4023 47.1998 10.1023 46.9998C8.60234 45.3998 7.60234 44.6998 6.40234 43.2998Z" fill="black"/>
<path d="M12.5 41.8999C13.7 43.2999 14.2 44.4999 15.6 46.0999C15.8 46.3999 16.2 46.7999 17.1 47.6999C17.4 48.0999 18.3 48.8999 18.3 48.8999C18.3 48.8999 19 49.5999 19.4 49.8999C20.6 50.9999 21.4 51.6999 21.9 51.9999C23.6 53.2999 24.8 53.7999 26.2 54.8999C24.8 53.6999 24.1 52.5999 22.6 51.0999C22.2 50.6999 21.5 49.9999 20.3 48.8999C19.9 48.4999 19.2 47.8999 19.2 47.8999C19.2 47.8999 18.4 47.0999 18 46.7999C17.1 45.9999 16.7 45.5999 16.4 45.2999C14.8 43.7999 13.7 43.1999 12.5 41.8999Z" fill="black"/>
<path d="M21 41.2998C21.3 41.7998 21.4 42.1998 21.8 42.7998C21.9 42.9998 22.1 43.2998 22.4 43.6998C22.7 44.0998 23 44.4998 23.3 44.8998C24 45.6998 24.6 46.3998 24.6 46.3998C24.6 46.3998 25.3 47.0998 26.1 47.6998C26.5 47.9998 26.9 48.3998 27.3 48.5998C27.7 48.8998 28 49.0998 28.2 49.1998C28.8 49.4998 29.2 49.5998 29.7 49.9998C29.3 49.5998 29.1 49.1998 28.7 48.6998C28.5 48.3998 27.7 47.5998 27 46.7998C26.2 45.9998 25.6 45.2998 25.6 45.2998C25.6 45.2998 25 44.5998 24.2 43.8998C23.5 43.1998 22.6 42.4998 22.3 42.1998C21.8 41.8998 21.4 41.6998 21 41.2998Z" fill="black"/>
<path d="M9.20312 54.7998C9.60313 55.1998 9.80312 55.5998 10.3031 56.1998C10.5031 56.4998 11.3031 57.3998 12.0031 58.1998C12.7031 58.9998 13.4031 59.6998 13.4031 59.6998C13.4031 59.6998 14.1031 60.3998 14.9031 61.0998C15.7031 61.7998 16.6031 62.5998 16.9031 62.8998C17.5031 63.3998 17.9031 63.4998 18.3031 63.9998C17.9031 63.4998 17.8031 63.0998 17.4031 62.3998C17.2031 62.0998 16.5031 61.0998 15.8031 60.1998C15.1031 59.3998 14.4031 58.6998 14.4031 58.6998C14.4031 58.6998 13.7031 57.9998 12.9031 57.2998C12.5031 56.8998 12.0031 56.5998 11.6031 56.2998C11.2031 55.9998 10.9031 55.7998 10.7031 55.6998C10.1031 55.2998 9.60313 55.1998 9.20312 54.7998Z" fill="black"/>
</g>
<defs>
<clipPath id="clip0_420_491">
<rect width="33.9" height="65.3" fill="white" transform="translate(0.601562)"/>
</clipPath>
</defs>
</svg>
