<svg width="63" height="63" viewBox="0 0 63 63" fill="none" xmlns="http://www.w3.org/2000/svg">
<g clip-path="url(#clip0_420_730)">
<path d="M9.49844 28.6504C9.39844 29.3504 9.29844 29.9504 9.09844 30.5504C8.99844 31.1504 8.89844 31.8504 8.89844 32.7504C8.89844 32.9504 8.89844 33.3504 8.89844 33.7504C8.89844 33.9504 8.89844 34.2504 8.89844 34.4504C8.89844 35.1504 8.99844 35.9504 9.09844 36.8504C9.49844 40.2504 11.0984 44.1504 13.4984 47.2504C15.8984 50.3504 18.9984 52.5504 21.4984 53.6504C22.7984 54.1504 23.7984 54.6504 24.5984 54.8504C25.3984 55.0504 25.7984 55.1504 25.7984 55.1504C25.7984 55.1504 25.8984 55.1504 26.0984 55.2504C26.2984 55.2504 26.5984 55.3504 26.9984 55.4504C27.7984 55.6504 28.8984 55.7504 30.2984 55.7504C32.9984 55.8504 36.7984 55.2504 40.2984 53.5504C42.0984 52.7504 43.6984 51.5504 45.1984 50.3504C46.5984 49.0504 47.8984 47.6504 48.7984 46.2504C49.4984 45.3504 49.8984 44.4504 50.0984 44.0504C50.4984 43.2504 50.6984 42.6504 50.9984 42.0504C51.1984 41.4504 51.3984 40.8504 51.6984 40.2504C51.3984 40.9504 51.1984 41.4504 50.8984 42.0504C50.5984 42.6504 50.2984 43.1504 49.8984 43.9504C49.5984 44.3504 49.1984 45.1504 48.4984 45.9504C48.1984 46.2504 47.9984 46.5504 47.6984 46.9504C47.3984 47.2504 47.0984 47.5504 46.7984 47.9504C46.1984 48.6504 45.4984 49.1504 44.7984 49.8504C43.2984 50.9504 41.6984 52.0504 39.9984 52.7504C36.5984 54.3504 32.9984 54.8504 30.3984 54.7504C29.0984 54.6504 27.9984 54.5504 27.2984 54.4504C26.8984 54.3504 26.5984 54.3504 26.3984 54.2504C26.1984 54.2504 26.0984 54.1504 26.0984 54.1504C26.0984 54.1504 25.6984 54.0504 24.9984 53.8504C24.2984 53.6504 23.2984 53.2504 22.0984 52.7504C19.6984 51.6504 16.6984 49.6504 14.3984 46.7504C12.0984 43.8504 10.3984 40.1504 9.79844 36.9504C9.69844 36.1504 9.49844 35.2504 9.49844 34.6504C9.49844 34.3504 9.49844 34.1504 9.49844 33.9504C9.49844 33.5504 9.39844 33.1504 9.49844 32.9504C9.49844 32.1504 9.49844 31.4504 9.59844 30.7504C9.29844 29.9504 9.39844 29.3504 9.49844 28.6504Z" fill="black"/>
<path d="M47.998 16.1504C48.898 17.2504 49.298 18.1504 50.098 19.6504C50.198 19.9504 50.498 20.3504 50.798 21.1504C50.898 21.4504 51.098 21.8504 51.298 22.3504C51.498 22.8504 51.698 23.3504 51.798 23.7504C51.998 24.2504 52.098 24.6504 52.198 24.9504C52.298 25.2504 52.298 25.4504 52.298 25.4504C52.298 25.4504 52.398 25.6504 52.398 25.8504C52.498 26.1504 52.598 26.5504 52.698 26.9504C52.798 27.3504 52.898 27.8504 52.998 28.3504C53.098 28.8504 53.098 29.2504 53.198 29.6504C53.298 30.2504 53.298 30.8504 53.298 31.2504C53.298 31.6504 53.298 31.9504 53.398 32.1504C53.398 33.8504 53.498 34.8504 53.298 36.2504C53.598 34.8504 53.998 33.9504 54.198 32.1504C54.198 31.9504 54.198 31.6504 54.298 31.1504C54.298 30.7504 54.298 30.1504 54.298 29.5504C54.298 29.1504 54.198 28.6504 54.198 28.1504C54.098 27.6504 53.998 27.1504 53.998 26.7504C53.898 26.3504 53.798 25.9504 53.698 25.6504C53.598 25.3504 53.598 25.1504 53.598 25.1504C53.598 25.1504 53.498 24.9504 53.398 24.6504C53.298 24.3504 53.198 23.8504 52.998 23.3504C52.798 22.8504 52.598 22.3504 52.398 21.8504C52.198 21.3504 51.998 20.9504 51.798 20.6504C51.598 20.2504 51.398 19.8504 51.198 19.6504C50.998 19.4504 50.898 19.2504 50.898 19.1504C49.698 17.8504 48.898 17.2504 47.998 16.1504Z" fill="black"/>
<path d="M22.2985 2.65029C23.5985 2.25029 24.3985 1.95029 25.9985 1.65029C26.1985 1.65029 26.4985 1.55029 26.8985 1.45029C27.0985 1.45029 27.2985 1.45029 27.4985 1.35029C27.9985 1.25029 28.5985 1.25029 29.0985 1.15029C29.6985 1.15029 30.3985 1.15029 30.9985 1.05029C31.5985 1.05029 32.2985 1.05029 32.8985 1.15029C33.5985 1.15029 34.1985 1.25029 34.8985 1.35029C40.2985 2.05029 45.8985 4.25029 50.6985 7.95029C55.4985 11.5503 59.0985 16.9503 60.7985 22.7503C62.4985 28.5503 62.0985 34.6503 60.3985 39.8503C59.5985 42.4503 58.4985 44.8503 57.1985 46.9503C55.8985 49.0503 54.4985 50.8503 52.9985 52.3503C50.0985 55.4503 47.0985 57.3503 44.8985 58.4503C43.7985 59.0503 42.8985 59.3503 42.3985 59.6503C41.7985 59.8503 41.4985 59.9503 41.4985 59.9503C41.4985 59.9503 41.1985 60.0503 40.5985 60.2503C39.9985 60.4503 39.0985 60.6503 37.8985 60.9503C35.4985 61.4503 31.9985 61.7503 27.7985 61.1503C26.7985 60.9503 25.6985 60.7503 24.5985 60.4503C24.0985 60.2503 23.4985 60.1503 22.8985 59.9503C22.2985 59.7503 21.6985 59.6503 21.1985 59.3503C18.8985 58.4503 16.4985 57.3503 14.2985 55.7503C9.79852 52.6503 5.79852 48.0503 3.49852 42.4503C2.29852 39.6503 1.59852 36.6503 1.39852 33.6503C1.19852 30.6503 1.59852 27.5503 2.39852 24.6503C3.19852 21.7503 4.39852 19.0503 5.89852 16.5503C6.29852 15.9503 6.69852 15.3503 7.09852 14.7503C7.49852 14.1503 7.99852 13.6503 8.39852 13.0503C8.89852 12.5503 9.29852 12.0503 9.79852 11.5503C10.2985 10.9503 10.6985 10.4503 11.1985 10.0503C11.9985 9.35029 12.5985 8.85029 12.9985 8.55029C13.5985 8.05029 14.0985 7.75029 14.5985 7.35029C15.0985 7.05029 15.5985 6.75029 16.0985 6.45029C15.4985 6.75029 14.9985 7.05029 14.4985 7.35029C13.9985 7.65029 13.4985 8.05029 12.7985 8.45029C12.3985 8.65029 11.7985 9.25029 10.9985 9.85029C10.5985 10.3503 10.0985 10.7503 9.69852 11.2503C9.19852 11.7503 8.69852 12.2503 8.29852 12.7503C7.89852 13.2503 7.39852 13.8503 6.89852 14.4503C6.49852 15.0503 6.09852 15.6503 5.59852 16.2503C3.99852 18.7503 2.69852 21.4503 1.89852 24.4503C0.99852 27.3503 0.59852 30.5503 0.79852 33.6503C0.99852 36.7503 1.69852 39.8503 2.79852 42.7503C5.09852 48.5503 9.19852 53.2503 13.7985 56.5503C16.0985 58.1503 18.4985 59.3503 20.8985 60.2503C21.4985 60.5503 22.0985 60.6503 22.6985 60.8503C23.2985 61.0503 23.8985 61.2503 24.3985 61.3503C25.5985 61.6503 26.6985 61.8503 27.6985 62.0503C31.9985 62.7503 35.6985 62.3503 38.0985 61.8503C39.2985 61.5503 40.2985 61.3503 40.8985 61.1503C41.4985 60.9503 41.8985 60.8503 41.8985 60.8503C41.8985 60.8503 42.1985 60.7503 42.8985 60.5503C43.4985 60.2503 44.3985 59.9503 45.4985 59.3503C47.6985 58.2503 50.7985 56.2503 53.7985 53.0503C55.2985 51.4503 56.7985 49.5503 58.0985 47.4503C59.3985 45.2503 60.5985 42.8503 61.3985 40.1503C63.0985 34.8503 63.4985 28.5503 61.6985 22.5503C59.8985 16.6503 56.0985 11.1503 51.1985 7.55029C46.2985 3.85029 40.4985 1.75029 35.0985 1.25029C34.3985 1.15029 33.7985 1.15029 33.0985 1.15029C32.3985 1.15029 31.7985 1.05029 31.0985 1.15029C30.4985 1.15029 29.7985 1.25029 29.1985 1.25029C28.6985 1.35029 28.0985 1.45029 27.5985 1.45029C27.3985 1.45029 27.1985 1.55029 26.9985 1.55029C26.5985 1.65029 26.2985 1.75029 26.0985 1.75029C24.2985 1.95029 23.4985 2.25029 22.2985 2.65029Z" fill="black"/>
<path d="M9.49805 39.8503C9.89805 39.3503 10.198 39.0503 10.698 38.4503C10.998 38.1503 11.798 37.1503 12.498 36.3503C13.198 35.4503 13.798 34.6503 13.798 34.6503C13.798 34.6503 14.398 33.8503 15.098 32.9503C15.798 32.0503 16.498 31.0503 16.698 30.6503C17.098 30.0503 17.298 29.5503 17.698 29.0503C17.298 29.5503 16.798 29.6503 16.198 30.1503C15.898 30.4503 14.998 31.2503 14.198 32.1503C13.398 32.9503 12.798 33.8503 12.798 33.8503C12.798 33.8503 12.198 34.6503 11.498 35.6503C10.898 36.6503 10.298 37.7503 10.098 38.0503C9.89805 38.8503 9.79805 39.2503 9.49805 39.8503Z" fill="black"/>
<path d="M16.8984 43.6503C17.0984 43.1503 17.3984 42.8503 17.7984 42.3503C17.9984 42.0503 18.4984 41.1503 18.9984 40.3503C19.4984 39.5503 19.7984 38.7503 19.7984 38.7503C19.7984 38.7503 20.1984 37.9503 20.5984 37.1503C20.9984 36.2503 21.3984 35.3503 21.5984 35.0503C21.7984 34.4503 21.8984 34.0503 22.0984 33.5503C21.7984 33.9503 21.4984 34.2503 20.9984 34.7503C20.7984 35.0503 20.0984 35.8503 19.5984 36.6503C19.0984 37.4503 18.6984 38.2503 18.6984 38.2503C18.6984 38.2503 18.2984 39.0503 17.8984 39.9503C17.4984 40.8503 17.1984 41.8503 17.0984 42.1503C17.0984 42.7503 17.0984 43.1503 16.8984 43.6503Z" fill="black"/>
<path d="M16.6983 43.7504C16.0983 43.3504 15.6983 42.8504 15.3983 42.2504C15.0983 41.6504 14.8983 41.0504 14.8983 40.2504C14.8983 39.9504 14.7983 39.5504 14.9983 38.5504C14.9983 38.2504 15.0983 37.8504 15.2983 37.4504C15.3983 37.0504 15.4983 36.7504 15.4983 36.7504C15.4983 36.7504 15.5983 36.5504 15.7983 36.2504C15.9983 35.9504 16.1983 35.6504 16.3983 35.3504C17.1983 34.3504 17.8983 34.0504 18.1983 33.8504C18.8983 33.4504 19.4983 33.2504 20.1983 33.1504C20.7983 33.0504 21.4983 33.0504 22.1983 33.2504C21.4983 33.0504 20.8983 32.8504 20.1983 32.7504C19.4983 32.6504 18.7983 32.7504 17.8983 33.0504C17.4983 33.2504 16.5983 33.5504 15.5983 34.6504C15.3983 34.9504 15.0983 35.3504 14.8983 35.6504C14.6983 36.0504 14.5983 36.2504 14.5983 36.2504C14.5983 36.2504 14.3983 36.5504 14.2983 37.0504C14.1983 37.4504 14.0983 38.0504 14.0983 38.3504C13.9983 39.4504 14.1983 39.9504 14.1983 40.2504C14.3983 41.1504 14.7983 41.8504 15.2983 42.3504C15.5983 43.0504 16.0983 43.4504 16.6983 43.7504Z" fill="black"/>
<path d="M10.1992 38.9502C9.79922 38.3502 9.69922 37.7502 9.59922 37.0502C9.49922 36.4502 9.49922 35.7502 9.59922 34.9502C9.59922 34.6502 9.69922 34.2502 9.99922 33.3502C10.1992 32.7502 10.7992 31.7502 11.4992 31.0502C12.1992 30.3502 12.8992 29.9502 12.8992 29.9502C12.8992 29.9502 13.4992 29.5502 14.2992 29.3502C14.6992 29.2502 15.0992 29.1502 15.5992 29.1502C15.9992 29.1502 16.3992 29.2502 16.6992 29.3502C17.1992 29.5502 17.3992 29.9502 17.4992 30.2502C17.5992 30.5502 17.5992 30.8502 17.5992 31.0502C17.5992 31.8502 17.4992 32.5502 17.3992 33.1502C17.2992 33.7502 17.0992 34.3502 16.4992 34.8502C17.0992 34.4502 17.3992 33.8502 17.6992 33.2502C17.9992 32.6502 18.2992 32.0502 18.3992 31.0502C18.3992 30.8502 18.3992 30.4502 18.2992 29.9502C18.1992 29.4502 17.7992 28.7502 17.0992 28.3502C16.1992 27.8502 14.8992 27.8502 13.8992 28.0502C12.8992 28.3502 12.1992 28.7502 12.1992 28.7502C12.1992 28.7502 11.3992 29.2502 10.5992 30.0502C9.79922 30.8502 9.19922 32.0502 8.99922 32.8502C8.69922 33.8502 8.79922 34.4502 8.69922 34.7502C8.69922 35.6502 8.89922 36.3502 9.19922 37.0502C9.49922 37.7502 9.79922 38.3502 10.1992 38.9502Z" fill="black"/>
<path d="M11.098 36.9503C10.898 37.3503 10.598 37.5503 10.298 37.9503C10.298 38.0503 10.198 38.0503 10.098 38.1503C10.098 38.2503 9.99805 38.2503 9.99805 38.3503L9.89805 38.4503C9.89805 38.5503 9.79805 38.5503 9.79805 38.6503C9.69805 38.7503 9.59805 38.9503 9.59805 39.0503C9.59805 39.1503 9.49805 39.3503 9.49805 39.4503L9.99805 39.6503C10.098 39.6503 10.198 39.6503 10.298 39.7503H10.398H10.498C10.898 39.8503 11.298 39.8503 11.598 39.8503C11.898 39.8503 12.098 39.7503 12.098 39.7503C12.098 39.7503 12.298 39.7503 12.598 39.5503C12.898 39.4503 13.298 39.1503 13.598 38.8503C14.198 38.2503 14.598 37.4503 14.698 37.2503C14.898 36.7503 14.898 36.4503 15.098 36.0503C14.898 36.4503 14.598 36.6503 14.298 36.9503C14.098 37.1503 13.498 37.7503 12.998 38.1503C12.698 38.3503 12.498 38.4503 12.298 38.5503C12.098 38.6503 11.998 38.6503 11.998 38.6503C11.998 38.6503 11.498 38.7503 10.798 38.7503C10.698 38.7503 10.798 38.7503 10.698 38.7503V38.6503C10.698 38.5503 10.698 38.5503 10.798 38.4503C10.798 38.3503 10.898 38.2503 10.898 38.1503C10.898 37.6503 10.898 37.2503 11.098 36.9503Z" fill="black"/>
<path d="M11.6993 28.7505C11.3993 29.0505 11.0993 29.2505 10.7993 29.2505C10.4993 29.3505 10.0993 29.1505 9.99928 28.8505C9.89928 28.5505 10.0993 28.4505 10.3993 28.0505C10.5993 27.8505 10.5993 27.4505 10.3993 27.1505C10.1993 26.8505 9.89928 26.7505 9.59928 26.6505C9.39928 26.6505 9.19928 26.6505 8.89928 26.5505C8.69928 26.4505 8.39928 26.3505 8.19928 26.0505C7.99928 25.7505 7.79928 25.1505 8.09928 24.7505C8.29928 24.2505 8.99928 23.8505 9.59928 23.5505C10.2993 23.2505 10.8993 22.9505 11.2993 22.7505C11.4993 22.6505 11.3993 22.7505 11.3993 22.7505C11.3993 22.8505 11.4993 23.0505 11.5993 23.3505C11.6993 23.5505 11.7993 23.8505 12.0993 23.9505C12.3993 24.1505 12.6993 24.2505 13.0993 24.0505C13.2993 23.9505 13.5993 23.8505 13.8993 23.7505C14.1993 23.6505 14.4993 23.5505 14.7993 23.5505C15.0993 23.5505 15.2993 23.7505 15.3993 23.7505C15.3993 23.7505 15.3993 23.7505 15.3993 23.9505C15.3993 24.0505 15.3993 24.3505 15.5993 24.4505C15.6993 24.6505 15.8993 24.7505 15.9993 24.8505C16.1993 24.9505 16.3993 24.9505 16.4993 24.9505H16.5993C16.7993 24.9505 16.8993 24.9505 16.8993 24.9505C16.8993 25.0505 16.8993 25.1505 16.7993 25.3505C16.5993 25.6505 16.2993 25.8505 16.1993 26.0505C15.4993 26.6505 14.8993 26.9505 14.1993 27.1505C13.5993 27.3505 12.6993 27.5505 12.4993 28.3505C12.5993 27.9505 12.8993 27.7505 13.1993 27.5505C13.4993 27.4505 13.8993 27.4505 14.1993 27.3505C14.8993 27.2505 15.6993 27.0505 16.5993 26.5505C16.7993 26.3505 17.0993 26.2505 17.4993 25.7505C17.6993 25.5505 17.8993 25.1505 17.7993 24.6505C17.7993 24.4505 17.5993 24.1505 17.2993 23.9505C16.9993 23.8505 16.7993 23.8505 16.5993 23.7505C16.4993 23.7505 16.4993 23.7505 16.4993 23.7505C16.4993 23.6505 16.4993 23.4505 16.3993 23.2505C16.0993 22.4505 15.3993 22.2505 14.8993 22.1505C14.2993 22.1505 13.8993 22.3505 13.4993 22.4505C13.1993 22.5505 12.8993 22.6505 12.7993 22.6505C12.6993 22.4505 12.6993 22.2505 12.5993 22.0505C12.4993 21.8505 12.3993 21.6505 12.2993 21.5505C12.1993 21.4505 12.1993 21.4505 12.1993 21.4505C12.1993 21.4505 12.0993 21.3505 11.7993 21.2505C11.6993 21.2505 11.4993 21.1505 11.2993 21.2505C11.0993 21.2505 10.8993 21.3505 10.7993 21.3505C10.2993 21.9505 9.69928 22.2505 8.99928 22.5505C8.29928 22.9505 7.49928 23.4505 7.09928 24.3505C6.89928 24.7505 6.89928 25.3505 6.99928 25.7505C7.09928 26.1505 7.29928 26.5505 7.49928 26.7505C7.99928 27.2505 8.49928 27.4505 8.89928 27.4505C9.29928 27.4505 9.39928 27.4505 9.59928 27.4505C9.79928 27.4505 9.89928 27.5505 9.99928 27.5505C10.0993 27.6505 10.0993 27.6505 10.0993 27.7505C10.0993 27.8505 9.89928 28.0505 9.89928 28.2505C9.79928 28.4505 9.79928 28.7505 9.89928 28.9505C10.1993 29.3505 10.5993 29.4505 10.8993 29.2505C11.0993 29.3505 11.3993 29.0505 11.6993 28.7505Z" fill="black"/>
<path d="M12.0989 28.0503C11.7989 27.8503 11.6989 27.6503 11.5989 27.3503C11.4989 27.2503 11.2989 26.6503 11.3989 26.4503C11.3989 26.3503 11.4989 26.2503 11.5989 26.2503C11.6989 26.1503 11.6989 26.1503 11.6989 26.1503C11.6989 26.1503 11.6989 26.1503 11.7989 26.1503H11.8989C11.8989 26.2503 11.9989 26.3503 11.9989 26.4503C12.0989 26.5503 12.1989 26.7503 12.2989 26.8503C12.4989 26.9503 12.6989 26.9503 12.7989 26.9503C13.0989 26.8503 13.1989 26.7503 13.1989 26.7503C13.3989 26.6503 13.3989 26.5503 13.4989 26.5503C13.5989 26.5503 13.7989 26.5503 13.6989 26.7503C13.7989 26.4503 13.3989 26.1503 12.8989 26.2503C12.7989 26.2503 12.6989 26.2503 12.6989 26.2503V26.3503L12.7989 26.2503C12.7989 26.2503 12.7989 26.1503 12.7989 26.0503C12.7989 25.9503 12.6989 25.7503 12.6989 25.6503C12.5989 25.3503 12.2989 25.2503 12.1989 25.1503C11.9989 25.0503 11.6989 25.0503 11.5989 25.0503C11.3989 25.0503 11.3989 25.0503 11.2989 25.1503C11.1989 25.1503 11.0989 25.2503 11.0989 25.2503C11.0989 25.2503 10.8989 25.3503 10.6989 25.4503C10.4989 25.6503 10.1989 25.9503 10.0989 26.4503C9.99886 26.9503 10.1989 27.3503 10.3989 27.5503C10.5989 27.8503 10.7989 27.9503 10.8989 27.9503C11.5989 27.9503 11.8989 27.9503 12.0989 28.0503Z" fill="black"/>
<path d="M16.8977 23.0502C16.5977 22.3502 16.4977 21.6502 16.3977 20.9502C16.3977 20.2502 16.3977 19.5502 16.6977 18.6502C16.7977 18.4502 16.7977 17.9502 17.0977 17.7502C17.1977 17.6502 17.4977 17.5502 17.7977 17.4502C17.7977 17.4502 17.9977 17.3502 18.0977 17.2502C18.1977 17.1502 18.2977 17.0502 18.3977 16.9502C18.5977 16.7502 18.6977 16.4502 18.8977 16.2502C19.0977 15.7502 19.1977 15.1502 19.2977 14.6502C19.3977 14.1502 19.3977 13.5502 19.6977 13.0502C19.8977 12.5502 20.2977 12.2502 20.7977 11.9502C21.6977 11.3502 22.9977 11.1502 24.1977 10.6502C24.7977 10.4502 25.3977 9.85018 25.7977 9.55018C26.1977 9.25018 26.5977 9.25018 27.2977 9.45018C27.5977 9.55018 27.8977 9.65018 28.2977 9.65018C28.6977 9.65018 29.0977 9.65018 29.3977 9.55018C30.0977 9.35018 30.6977 8.95018 31.1977 8.65018C31.6977 8.35018 32.1977 8.05018 32.6977 7.95018C33.1977 7.85018 33.6977 7.85018 34.1977 8.05018C35.1977 8.35018 36.2977 9.05018 37.4977 9.35018C38.6977 9.55018 39.6977 9.65018 40.5977 10.0502C41.4977 10.3502 42.2977 10.8502 42.8977 11.3502C43.4977 11.8502 43.9977 12.4502 44.3977 12.9502C44.7977 13.5502 45.2977 14.1502 45.6977 14.4502C46.0977 14.7502 46.3977 15.0502 46.4977 15.1502C46.5977 15.3502 46.6977 15.4502 46.6977 15.4502C46.6977 15.4502 46.7977 15.5502 46.7977 15.7502C46.8977 15.9502 46.9977 16.2502 46.9977 16.6502C46.9977 16.8502 46.9977 17.0502 46.8977 17.2502C46.7977 17.5502 46.6977 17.8502 46.5977 18.2502C46.4977 18.6502 46.4977 19.3502 46.7977 19.7502C46.9977 20.1502 47.2977 20.5502 47.2977 20.7502C47.4977 21.1502 46.8977 21.9502 46.0977 22.1502C45.2977 22.4502 44.1977 22.2502 42.9977 22.3502C41.7977 22.4502 40.6977 22.7502 39.4977 23.0502C38.2977 23.3502 37.0977 23.6502 35.8977 24.0502C35.5977 24.1502 35.2977 24.2502 34.9977 24.4502C34.6977 24.5502 34.3977 24.7502 34.0977 25.0502C33.5977 25.4502 33.1977 25.8502 32.5977 26.1502C32.0977 26.4502 31.4977 26.7502 30.8977 27.0502C30.2977 27.3502 29.8977 27.5502 29.2977 27.5502C28.6977 27.5502 28.0977 27.4502 27.4977 27.3502C27.1977 27.3502 26.8977 27.2502 26.4977 27.3502C26.0977 27.3502 25.7977 27.6502 25.4977 27.7502C24.6977 28.4502 23.3977 28.1502 22.3977 28.0502C21.7977 27.9502 21.2977 27.7502 20.9977 27.4502C20.6977 27.1502 20.4977 26.7502 20.3977 26.5502C20.1977 26.1502 19.9977 25.7502 19.6977 25.4502C19.3977 25.1502 19.0977 24.9502 18.7977 24.7502C18.1977 24.3502 17.5977 24.0502 16.7977 24.0502C17.5977 24.0502 18.1977 24.3502 18.6977 24.8502C18.9977 25.0502 19.1977 25.3502 19.4977 25.6502C19.6977 25.9502 19.8977 26.3502 20.0977 26.7502C20.1977 26.9502 20.3977 27.3502 20.6977 27.7502C20.9977 28.1502 21.6977 28.3502 22.2977 28.5502C23.1977 28.7502 24.6977 29.0502 25.7977 28.2502C26.0977 28.0502 26.2977 27.9502 26.4977 27.9502C26.6977 27.9502 26.9977 27.9502 27.2977 28.0502C27.8977 28.1502 28.4977 28.2502 29.1977 28.2502C29.4977 28.2502 29.8977 28.2502 30.2977 28.1502C30.5977 28.0502 30.8977 27.8502 31.1977 27.7502C31.7977 27.4502 32.2977 27.2502 32.8977 26.9502C33.4977 26.6502 33.9977 26.1502 34.4977 25.8502C34.6977 25.6502 34.9977 25.5502 35.1977 25.4502C35.4977 25.3502 35.7977 25.2502 35.9977 25.1502C37.0977 24.7502 38.2977 24.4502 39.4977 24.2502C40.6977 24.0502 41.7977 23.7502 42.8977 23.6502C43.8977 23.5502 45.0977 23.7502 46.1977 23.4502C46.7977 23.2502 47.2977 22.9502 47.6977 22.4502C48.0977 21.9502 48.2977 21.2502 48.1977 20.6502C47.9977 20.0502 47.6977 19.6502 47.5977 19.3502C47.4977 19.0502 47.4977 18.9502 47.4977 18.6502C47.5977 18.3502 47.6977 18.0502 47.7977 17.7502C47.8977 17.4502 47.9977 17.0502 47.9977 16.7502C47.9977 16.1502 47.7977 15.6502 47.6977 15.3502C47.5977 15.0502 47.4977 14.9502 47.4977 14.9502C47.4977 14.9502 47.3977 14.7502 47.1977 14.5502C46.9977 14.2502 46.5977 14.0502 46.2977 13.6502C45.8977 13.3502 45.5977 12.9502 45.1977 12.3502C44.7977 11.7502 44.1977 11.0502 43.4977 10.4502C42.7977 9.85018 41.8977 9.35018 40.7977 8.95018C39.7977 8.55018 38.5977 8.45018 37.4977 8.25018C36.4977 8.05018 35.4977 7.45018 34.1977 7.05018C33.5977 6.85018 32.7977 6.75018 32.0977 7.05018C31.3977 7.25018 30.7977 7.65018 30.2977 7.95018C29.7977 8.25018 29.2977 8.65018 28.7977 8.75018C28.2977 8.95018 27.7977 8.85018 27.1977 8.65018C26.8977 8.55018 26.4977 8.55018 26.0977 8.55018C25.6977 8.55018 25.2977 8.75018 24.9977 8.95018C24.3977 9.45018 24.0977 9.75018 23.4977 9.95018C22.4977 10.4502 21.1977 10.7502 20.0977 11.4502C19.5977 11.8502 19.0977 12.3502 18.7977 12.9502C18.6977 13.3502 18.6977 14.0502 18.6977 14.5502C18.6977 15.1502 18.5977 15.6502 18.3977 16.0502C18.2977 16.2502 18.1977 16.4502 18.0977 16.6502C17.9977 16.7502 17.8977 16.8502 17.8977 16.8502C17.7977 16.9502 17.6977 16.9502 17.6977 16.9502C17.4977 17.0502 17.1977 17.1502 16.9977 17.3502C16.5977 17.7502 16.5977 18.2502 16.4977 18.4502C16.2977 19.3502 16.2977 20.1502 16.3977 20.8502C16.3977 21.6502 16.5977 22.3502 16.8977 23.0502Z" fill="black"/>
<path d="M25.498 49.5503C25.598 48.7503 25.798 48.1503 26.098 47.5503C26.398 46.9503 26.798 46.3503 27.398 45.5503C27.598 45.3503 27.898 44.9503 28.598 44.1503C29.098 43.6503 29.998 42.9503 30.798 42.4503C31.598 41.9503 32.398 41.5503 32.398 41.5503C32.398 41.5503 32.998 41.2503 33.798 40.9503C34.598 40.6503 35.598 40.2503 36.398 39.9503C37.098 39.6503 37.598 39.5503 37.898 39.5503C38.198 39.5503 38.298 39.7503 38.398 39.8503C38.598 40.1503 38.598 40.5503 38.598 40.9503C38.598 41.3503 38.598 41.6503 38.498 42.0503C38.398 42.7503 38.298 43.3503 37.898 44.0503C38.298 43.3503 38.598 42.7503 38.798 42.0503C38.898 41.7503 38.998 41.3503 39.098 40.9503C39.198 40.5503 39.298 40.0503 39.098 39.4503C38.998 39.3503 38.998 39.1503 38.798 38.9503C38.598 38.7503 38.298 38.6503 37.998 38.5503C37.698 38.4503 37.398 38.5503 36.998 38.5503C36.698 38.6503 36.398 38.7503 35.998 38.8503C35.198 39.0503 34.198 39.3503 33.298 39.7503C32.398 40.0503 31.798 40.4503 31.798 40.4503C31.798 40.4503 30.998 40.8503 30.098 41.4503C29.198 42.0503 28.298 42.9503 27.798 43.4503C27.098 44.3503 26.798 44.7503 26.598 45.0503C25.698 46.7503 25.598 47.9503 25.498 49.5503Z" fill="black"/>
<path d="M38.5988 39.2505C38.6988 40.0505 38.4988 40.7505 38.2988 41.3505C38.0988 42.0505 37.7988 42.6505 37.3988 43.4505C37.2988 43.5505 37.1988 43.7505 37.0988 43.9505C36.8988 44.1505 36.6988 44.4505 36.3988 44.8505C36.0988 45.1505 35.5988 45.6505 34.9988 45.9505C34.3988 46.3505 33.6988 46.7505 33.0988 47.1505C32.4988 47.5505 31.8988 47.9505 31.4988 48.2505C31.0988 48.5505 30.8988 48.8505 30.8988 48.8505C30.8988 48.8505 30.6988 49.0505 30.3988 49.4505C30.1988 49.8505 29.7988 50.4505 29.6988 51.2505C29.5988 52.0505 29.7988 52.9505 30.2988 53.5505C30.7988 54.2505 31.4988 54.6505 32.0988 54.8505C32.4988 54.9505 32.8988 55.0505 33.1988 55.0505C33.4988 55.0505 33.7988 55.0505 34.0988 55.0505C34.5988 55.0505 34.9988 54.8505 35.1988 54.8505C36.9988 54.1505 37.8988 53.5505 39.3988 52.9505C37.8988 53.4505 36.7988 53.6505 34.9988 54.1505C34.7988 54.1505 34.4988 54.2505 34.0988 54.2505C33.8988 54.2505 33.5988 54.2505 33.3988 54.1505C33.0988 54.0505 32.8988 54.0505 32.5988 53.9505C32.1988 53.7505 31.6988 53.4505 31.3988 52.9505C31.0988 52.4505 30.9988 51.9505 31.0988 51.4505C31.1988 50.9505 31.3988 50.5505 31.5988 50.2505C31.7988 49.9505 31.8988 49.7505 31.8988 49.7505C31.8988 49.7505 32.0988 49.5505 32.3988 49.2505C32.6988 48.9505 33.1988 48.5505 33.7988 48.1505C34.3988 47.7505 35.0988 47.3505 35.6988 46.8505C36.2988 46.3505 36.7988 45.8505 37.1988 45.4505C37.8988 44.5505 38.0988 44.0505 38.1988 43.7505C38.5988 42.8505 38.6988 42.0505 38.7988 41.3505C38.6988 40.7505 38.5988 40.0505 38.5988 39.2505Z" fill="black"/>
<path d="M24.5992 49.4505C23.9992 48.9505 23.4992 48.5505 23.1992 47.8505C22.8992 47.2505 22.5992 46.5505 22.4992 45.6505C22.4992 45.4505 22.4992 45.0505 22.4992 44.5505C22.4992 44.3505 22.4992 44.0505 22.5992 43.7505C22.6992 43.1505 22.8992 42.4505 23.0992 41.7505C23.5992 40.3505 24.2992 38.8505 25.0992 37.4505C25.8992 36.0505 26.8992 34.6505 28.0992 33.3505C30.2992 30.8505 32.8992 28.8505 34.8992 27.5505C35.8992 26.9505 36.7992 26.4505 37.3992 26.2505C37.9992 25.9505 38.3992 25.8505 38.3992 25.8505C38.3992 25.8505 38.6992 25.7505 39.3992 25.5505C39.9992 25.3505 40.9992 25.1505 42.0992 25.0505C42.6992 24.9505 43.2992 24.9505 43.9992 24.8505C44.6992 24.8505 45.3992 24.7505 46.0992 24.8505C46.7992 24.8505 47.4992 25.0505 48.0992 25.4505C48.6992 25.8505 49.1992 26.4505 49.5992 27.1505C51.0992 30.0505 51.2992 33.7505 50.6992 36.6505C50.4992 37.8505 50.1992 38.8505 49.9992 39.3505C49.2992 41.0505 48.8992 42.0505 47.8992 43.3505C48.8992 42.0505 49.4992 41.2505 50.2992 39.4505C50.4992 38.9505 50.8992 38.0505 51.1992 36.7505C51.8992 33.8505 51.9992 29.9505 50.3992 26.6505C49.9992 25.8505 49.3992 25.0505 48.5992 24.5505C47.7992 23.9505 46.8992 23.7505 46.0992 23.7505C45.2992 23.6505 44.4992 23.7505 43.7992 23.7505C43.0992 23.7505 42.3992 23.8505 41.7992 23.8505C40.5992 23.9505 39.5992 24.2505 38.8992 24.4505C38.1992 24.6505 37.7992 24.8505 37.7992 24.8505C37.7992 24.8505 36.2992 25.3505 34.1992 26.7505C32.0992 28.0505 29.5992 30.2505 27.2992 32.8505C26.1992 34.1505 25.0992 35.6505 24.3992 37.2505C23.5992 38.7505 22.9992 40.3505 22.5992 41.8505C22.3992 42.5505 22.1992 43.3505 22.1992 43.9505C22.1992 44.2505 22.1992 44.5505 22.1992 44.7505C22.1992 45.2505 22.1992 45.6505 22.2992 45.8505C22.3992 46.8505 22.7992 47.5505 23.1992 48.0505C23.3992 48.5505 23.9992 48.9505 24.5992 49.4505Z" fill="black"/>
<path d="M30.2977 51.5504C30.1977 51.9504 30.0977 52.2504 30.0977 52.6504C30.0977 53.0504 30.1977 53.3504 30.5977 53.6504C31.1977 54.0504 31.9977 54.2504 32.8977 54.4504C33.1977 54.5504 33.6977 54.6504 34.8977 54.6504C35.9977 54.6504 37.5977 54.6504 39.0977 53.8504C39.7977 53.4504 40.5977 53.1504 41.2977 52.6504C41.6977 52.4504 41.9977 52.1504 42.2977 51.9504C42.5977 51.6504 42.8977 51.4504 43.2977 51.1504C44.5977 50.1504 45.5977 49.0504 46.1977 48.2504C46.5977 47.8504 46.7977 47.4504 46.9977 47.2504C47.1977 47.0504 47.2977 46.8504 47.2977 46.8504C47.2977 46.8504 47.3977 46.7504 47.4977 46.5504C47.5977 46.3504 47.8977 46.0504 48.0977 45.6504C48.2977 45.2504 48.5977 44.7504 48.8977 44.2504C49.0977 43.6504 49.3977 43.0504 49.6977 42.4504C50.1977 41.1504 50.6977 39.6504 50.8977 38.1504C50.9977 37.4504 51.1977 36.6504 51.1977 35.9504C51.2977 35.2504 51.2977 34.5504 51.2977 33.9504C51.2977 33.5504 51.2977 33.2504 51.2977 32.9504C51.2977 32.6504 51.2977 32.3504 51.2977 32.1504C51.2977 31.6504 51.1977 31.3504 51.1977 31.1504C51.0977 30.1504 50.8977 29.4504 50.7977 28.7504C50.5977 28.0504 50.4977 27.4504 50.3977 26.6504C50.4977 27.4504 50.5977 28.0504 50.5977 28.7504C50.5977 29.4504 50.5977 30.1504 50.5977 31.1504C50.5977 31.3504 50.5977 31.7504 50.5977 32.1504C50.5977 32.3504 50.5977 32.6504 50.5977 32.9504C50.5977 33.2504 50.4977 33.5504 50.4977 33.9504C50.4977 34.5504 50.3977 35.1504 50.2977 35.8504C50.1977 36.5504 50.0977 37.2504 49.8977 37.9504C49.5977 39.3504 49.0977 40.7504 48.5977 42.0504C48.2977 42.6504 47.9977 43.2504 47.7977 43.7504C47.4977 44.2504 47.2977 44.6504 46.9977 45.0504C46.7977 45.4504 46.5977 45.7504 46.4977 45.9504C46.3977 46.1504 46.2977 46.2504 46.2977 46.2504C46.2977 46.2504 46.1977 46.3504 45.9977 46.6504C45.7977 46.8504 45.5977 47.2504 45.2977 47.5504C44.6977 48.3504 43.6977 49.3504 42.5977 50.3504C42.2977 50.5504 41.9977 50.8504 41.6977 51.1504C41.3977 51.3504 41.0977 51.6504 40.6977 51.8504C40.0977 52.3504 39.2977 52.7504 38.6977 53.1504C37.3977 53.9504 35.9977 54.0504 34.8977 54.1504C33.7977 54.1504 33.2977 54.1504 32.9977 54.0504C32.0977 53.9504 31.2977 53.8504 30.6977 53.5504C30.3977 53.4504 30.1977 53.1504 30.1977 52.7504C30.1977 52.2504 30.1977 51.9504 30.2977 51.5504Z" fill="black"/>
<path d="M28.6988 43.0503C28.0988 43.6503 27.7988 44.1503 27.3988 44.7503C26.9988 45.3503 26.6988 46.0503 26.1988 46.8503C26.0988 47.0503 25.8988 47.4503 25.6988 47.8503C25.5988 48.0503 25.3988 48.2503 25.2988 48.4503C24.9988 48.8503 24.5988 49.3503 24.1988 49.5503C23.7988 49.7503 23.2988 49.5503 22.8988 49.1503C22.4988 48.7503 22.0988 48.1503 21.7988 47.6503C21.1988 46.5503 21.0988 45.1503 21.0988 43.8503C21.2988 41.2503 22.3988 38.7503 23.1988 37.1503C23.5988 36.3503 24.0988 35.6503 24.3988 35.1503C24.6988 34.6503 24.8988 34.4503 24.8988 34.4503C24.8988 34.4503 24.9988 34.3503 25.1988 34.0503C25.3988 33.7503 25.6988 33.3503 26.0988 32.9503C26.8988 32.0503 27.9988 30.8503 29.4988 29.6503C30.9988 28.4503 32.6988 27.3503 34.5988 26.5503C36.3988 25.6503 38.2988 24.9503 39.8988 24.5503C40.5988 24.3503 41.1988 24.2503 41.5988 24.0503C41.9988 23.9503 42.3988 23.8503 42.5988 23.8503C44.3988 23.4503 45.4988 23.1503 47.0988 23.0503C45.4988 23.1503 44.3988 23.1503 42.5988 23.4503C42.3988 23.4503 41.9988 23.5503 41.5988 23.6503C41.0988 23.7503 40.5988 23.8503 39.7988 24.0503C38.1988 24.4503 36.1988 25.0503 34.2988 25.8503C32.3988 26.6503 30.4988 27.7503 28.8988 28.9503C27.2988 30.1503 26.0988 31.3503 25.2988 32.3503C24.8988 32.8503 24.5988 33.2503 24.3988 33.5503C24.1988 33.8503 24.0988 33.9503 24.0988 33.9503C24.0988 33.9503 23.8988 34.2503 23.5988 34.6503C23.2988 35.1503 22.7988 35.8503 22.3988 36.7503C21.4988 38.5503 20.3988 41.0503 20.2988 44.0503C20.2988 45.4503 20.4988 47.0503 21.1988 48.3503C21.5988 49.0503 21.9988 49.5503 22.4988 50.0503C22.7988 50.2503 23.0988 50.5503 23.4988 50.6503C23.8988 50.7503 24.3988 50.6503 24.6988 50.4503C25.2988 50.0503 25.6988 49.4503 25.9988 49.0503C26.0988 48.8503 26.2988 48.5503 26.3988 48.3503C26.5988 47.9503 26.7988 47.5503 26.8988 47.3503C27.1988 46.5503 27.4988 45.8503 27.7988 45.1503C27.7988 44.2503 28.0988 43.6503 28.6988 43.0503Z" fill="black"/>
<path d="M33.998 30.0503C35.098 31.1503 35.598 32.1503 36.998 33.5503C37.198 33.7503 37.598 34.1503 38.398 34.8503C38.898 35.2503 40.098 36.2503 40.098 36.2503C40.098 36.2503 40.398 36.4503 40.698 36.7503C40.998 36.9503 41.398 37.3503 41.798 37.5503C43.098 38.3503 43.798 38.7503 44.298 38.9503C45.098 39.3503 45.798 39.7503 46.398 40.0503C46.998 40.3503 47.598 40.6503 48.098 41.2503C47.598 40.6503 47.098 40.1503 46.598 39.6503C46.098 39.1503 45.498 38.6503 44.698 38.1503C44.298 37.8503 43.598 37.3503 42.398 36.5503C42.098 36.3503 41.798 36.0503 41.398 35.8503C41.098 35.6503 40.798 35.4503 40.798 35.4503C40.798 35.4503 39.598 34.5503 39.098 34.1503C38.298 33.4503 37.798 33.1503 37.598 32.9503C36.198 31.6503 35.198 31.1503 33.998 30.0503Z" fill="black"/>
<path d="M30.2988 32.1504C30.5988 32.4504 30.6988 32.7504 30.9988 33.2504C31.1988 33.4504 31.6988 34.1504 32.1988 34.6504C32.6988 35.1504 33.2988 35.6504 33.2988 35.6504C33.2988 35.6504 33.7988 36.1504 34.4988 36.5504C35.0988 36.9504 35.8988 37.3504 36.1988 37.4504C36.6988 37.6504 36.9988 37.6504 37.3988 37.8504C37.0988 37.6504 36.8988 37.3504 36.5988 36.9504C36.3988 36.7504 35.7988 36.1504 35.1988 35.7504C34.5988 35.2504 34.0988 34.8504 34.0988 34.8504C34.0988 34.8504 33.5988 34.4504 32.9988 33.9504C32.3988 33.4504 31.6988 33.0504 31.4988 32.9504C30.9988 32.4504 30.6988 32.3504 30.2988 32.1504Z" fill="black"/>
<path d="M27.5977 34.8501C27.8977 35.0501 27.8977 35.2501 28.1977 35.6501C28.2977 35.8501 28.6977 36.3501 29.0977 36.7501C29.4977 37.1501 29.8977 37.5501 29.8977 37.5501C29.8977 37.5501 30.2977 37.9501 30.7977 38.2501C31.2977 38.5501 31.8977 38.8501 32.0977 38.9501C32.4977 39.0501 32.7977 39.0501 33.0977 39.1501C32.7977 38.9501 32.6977 38.7501 32.4977 38.4501C32.3977 38.2501 31.9977 37.8501 31.5977 37.4501C31.1977 37.0501 30.7977 36.7501 30.7977 36.7501C30.7977 36.7501 30.3977 36.4501 29.9977 36.0501C29.4977 35.6501 28.9977 35.3501 28.7977 35.3501C28.0977 34.9501 27.7977 34.9501 27.5977 34.8501Z" fill="black"/>
<path d="M25.7988 38.1501C25.7988 38.0501 25.8988 38.1501 25.8988 38.1501L25.9988 38.2501C26.0988 38.3501 26.0988 38.4501 26.1988 38.6501C26.2988 38.7501 26.5988 39.2501 26.7988 39.5501C27.0988 39.9501 27.3988 40.2501 27.3988 40.2501C27.3988 40.2501 27.6988 40.5501 28.0988 40.8501C28.4988 41.1501 28.9988 41.3501 29.1988 41.3501C29.4988 41.4501 29.7988 41.3501 29.9988 41.4501C29.7988 41.3501 29.6988 41.0501 29.4988 40.8501C29.3988 40.7501 29.0988 40.3501 28.7988 40.0501C28.4988 39.7501 28.1988 39.4501 28.1988 39.4501C28.1988 39.4501 27.8988 39.1501 27.4988 38.8501C27.0988 38.5501 26.5988 38.3501 26.4988 38.2501C26.2988 38.1501 26.1988 38.1501 26.0988 38.1501C26.0988 38.0501 25.8988 37.9501 25.7988 38.1501Z" fill="black"/>
<path d="M24.1992 41.0503C24.2992 41.1503 24.2992 41.3503 24.3992 41.5503C24.3992 41.6503 24.5992 41.9503 24.7992 42.1503C24.9992 42.3503 25.1992 42.4503 25.1992 42.4503C25.1992 42.4503 25.3992 42.5503 25.5992 42.6503C25.7992 42.7503 26.1992 42.7503 26.2992 42.8503C26.4992 42.8503 26.6992 42.7503 26.7992 42.8503C26.6992 42.7503 26.6992 42.5503 26.5992 42.3503C26.5992 42.2503 26.3992 41.9503 26.1992 41.7503C25.9992 41.5503 25.7992 41.4503 25.7992 41.4503C25.7992 41.4503 25.5992 41.3503 25.3992 41.2503C25.1992 41.1503 24.8992 41.1503 24.6992 41.1503C24.4992 41.0503 24.2992 41.1503 24.1992 41.0503Z" fill="black"/>
<path d="M23.6992 44.1502C23.7992 44.2502 23.6992 44.4502 23.6992 44.5502C23.6992 44.6502 23.7992 44.8502 23.8992 45.0502C23.9992 45.2502 24.0992 45.2502 24.0992 45.2502C24.0992 45.2502 24.1992 45.3502 24.3992 45.4502C24.5992 45.5502 24.7992 45.5502 24.8992 45.5502C25.0992 45.5502 25.1992 45.4502 25.2992 45.4502C25.1992 45.3502 25.2992 45.1502 25.2992 45.0502C25.2992 44.9502 25.1992 44.7502 25.0992 44.5502C24.9992 44.3502 24.8992 44.2502 24.8992 44.2502C24.8992 44.2502 24.7992 44.1502 24.5992 44.0502C24.3992 43.9502 24.1992 43.9502 24.0992 43.9502C23.9992 44.1502 23.7992 44.2502 23.6992 44.1502Z" fill="black"/>
<path d="M32.1992 50.3501C32.2992 50.5501 32.1992 50.7501 32.2992 50.9501C32.2992 51.0501 32.4992 51.4501 32.6992 51.7501C32.8992 52.0501 33.0992 52.2501 33.0992 52.2501C33.0992 52.2501 33.2992 52.4501 33.5992 52.6501C33.8992 52.8501 34.1992 52.9501 34.3992 53.0501C34.5992 53.1501 34.8992 53.0501 34.9992 53.1501C34.8992 53.0501 34.8992 52.8501 34.7992 52.5501C34.6992 52.4501 34.5992 52.1501 34.3992 51.8501C34.1992 51.5501 33.9992 51.4501 33.9992 51.4501C33.9992 51.4501 33.6992 51.1501 33.4992 50.9501C33.1992 50.7501 32.8992 50.5501 32.7992 50.5501C32.5992 50.4501 32.2992 50.4501 32.1992 50.3501Z" fill="black"/>
<path d="M34.8984 48.3501C34.9984 48.5501 34.9984 48.7501 35.0984 48.9501C35.1984 49.0501 35.3984 49.4501 35.6984 49.7501C35.9984 50.0501 36.2984 50.1501 36.2984 50.1501C36.2984 50.1501 36.5984 50.3501 36.9984 50.4501C37.3984 50.5501 37.7984 50.6501 37.9984 50.6501C38.2984 50.6501 38.4984 50.5501 38.6984 50.5501C38.4984 50.4501 38.3984 50.2501 38.2984 50.0501C38.1984 49.9501 37.8984 49.6501 37.5984 49.4501C37.2984 49.2501 37.0984 49.0501 37.0984 49.0501C37.0984 49.0501 36.7984 48.8501 36.4984 48.7501C36.1984 48.5501 35.7984 48.4501 35.6984 48.4501C35.2984 48.4501 35.0984 48.4501 34.8984 48.3501Z" fill="black"/>
<path d="M37.7988 45.7505C37.9988 45.9505 38.0988 46.2505 38.2988 46.5505C38.3988 46.7505 38.7988 47.1505 39.0988 47.5505C39.4988 47.9505 39.7988 48.2505 39.7988 48.2505C39.7988 48.2505 40.1988 48.5505 40.5988 48.8505C40.9988 49.1505 41.5988 49.3505 41.6988 49.4505C41.9988 49.5505 42.2988 49.5505 42.5988 49.7505C42.3988 49.5505 42.2988 49.2505 42.0988 48.9505C41.9988 48.7505 41.5988 48.3505 41.2988 47.9505C40.8988 47.5505 40.5988 47.3505 40.5988 47.3505C40.5988 47.3505 40.1988 47.0505 39.7988 46.7505C39.3988 46.4505 38.7988 46.2505 38.6988 46.1505C38.2988 45.9505 37.9988 45.9505 37.7988 45.7505Z" fill="black"/>
<path d="M39.498 42.9502C39.698 43.0502 39.798 43.3502 39.898 43.5502C39.998 43.6502 40.198 44.0502 40.498 44.4502C40.798 44.8502 41.198 45.0502 41.198 45.0502C41.198 45.0502 41.498 45.3502 41.998 45.5502C42.398 45.7502 42.998 45.8502 43.198 45.8502C43.498 45.8502 43.798 45.7502 43.998 45.7502C43.798 45.6502 43.598 45.4502 43.398 45.2502C43.298 45.1502 42.898 44.8502 42.598 44.5502C42.298 44.3502 41.998 44.0502 41.998 44.0502C41.998 44.0502 41.698 43.8502 41.398 43.5502C41.098 43.2502 40.598 43.0502 40.398 42.9502C39.898 42.9502 39.698 42.9502 39.498 42.9502Z" fill="black"/>
<path d="M40.2988 39.2505C40.4988 39.5505 40.4988 39.7505 40.7988 40.1505C40.8988 40.2505 40.9988 40.4505 41.1988 40.6505C41.3988 40.8505 41.5988 41.1505 41.7988 41.3505C42.2988 41.7505 42.6988 42.0505 42.6988 42.0505C42.6988 42.0505 43.1988 42.3505 43.6988 42.6505C44.1988 42.9505 44.8988 43.1505 45.0988 43.1505C45.4988 43.2505 45.7988 43.1505 46.0988 43.3505C45.7988 43.1505 45.6988 42.9505 45.3988 42.6505C45.1988 42.4505 44.6988 42.0505 44.2988 41.7505C43.7988 41.4505 43.3988 41.1505 43.3988 41.1505C43.3988 41.1505 42.9988 40.8505 42.4988 40.5505C41.9988 40.2505 41.3988 39.9505 41.2988 39.8505C40.7988 39.5505 40.4988 39.4505 40.2988 39.2505Z" fill="black"/>
<path d="M35.998 27.1504C37.098 28.2504 37.698 29.2504 39.198 30.4504C39.398 30.6504 39.798 31.0504 40.698 31.6504C41.098 31.9504 41.998 32.6504 41.998 32.6504C41.998 32.6504 42.798 33.2504 43.198 33.4504C44.398 34.2504 45.198 34.6504 45.598 34.9504C47.298 35.8504 48.398 36.0504 49.798 36.7504C48.398 36.0504 47.698 35.1504 46.098 34.0504C45.698 33.7504 44.998 33.2504 43.798 32.4504C43.398 32.1504 42.598 31.6504 42.598 31.6504C42.598 31.6504 41.698 31.0504 41.298 30.7504C40.398 30.1504 39.998 29.8504 39.698 29.6504C38.198 28.6504 37.198 28.2504 35.998 27.1504Z" fill="black"/>
<path d="M39.498 26.0503C39.898 26.5503 39.998 26.9503 40.498 27.5503C40.698 27.8503 41.498 28.7503 42.298 29.5503C43.098 30.3503 43.898 30.9503 43.898 30.9503C43.898 30.9503 44.698 31.5503 45.598 32.1503C46.498 32.7503 47.598 33.2503 47.998 33.4503C48.698 33.7503 49.098 33.7503 49.698 34.0503C49.198 33.7503 48.898 33.3503 48.298 32.9503C47.998 32.7503 47.098 31.9503 46.198 31.2503C45.398 30.4503 44.698 29.9503 44.698 29.9503C44.698 29.9503 43.898 29.3503 43.098 28.7503C42.198 28.1503 41.298 27.3503 40.998 27.1503C40.398 26.6503 39.898 26.4503 39.498 26.0503Z" fill="black"/>
<path d="M43.5977 25.5503C43.7977 25.8503 43.8977 26.1503 44.0977 26.4503C44.1977 26.6503 44.5977 27.2503 45.0977 27.6503C45.4977 28.1503 45.9977 28.4503 45.9977 28.4503C45.9977 28.4503 46.4977 28.8503 46.9977 29.1503C47.2977 29.3503 47.5977 29.4503 47.8977 29.5503C48.1977 29.6503 48.3977 29.7503 48.4977 29.7503C48.8977 29.8503 49.1977 29.7503 49.5977 29.8503C49.2977 29.7503 49.0977 29.4503 48.7977 29.1503C48.5977 29.0503 48.0977 28.5503 47.5977 28.1503C47.0977 27.7503 46.6977 27.4503 46.6977 27.4503C46.6977 27.4503 46.2977 27.1503 45.7977 26.7503C45.2977 26.3503 44.6977 26.0503 44.4977 25.8503C44.1977 25.8503 43.8977 25.7503 43.5977 25.5503Z" fill="black"/>
<path d="M13.0977 20.7502C13.2977 20.3502 13.4977 20.2502 13.8977 19.8502C14.0977 19.6502 14.5977 19.0502 14.9977 18.5502C15.3977 18.0502 15.7977 17.5502 15.7977 17.5502C15.7977 17.5502 17.4977 15.7502 17.7977 15.3502C18.0977 14.9502 18.2977 14.7502 18.5977 14.4502C18.1977 14.6502 17.8977 14.6502 17.4977 14.7502C17.3977 14.8502 17.0977 14.9502 16.7977 15.0502C16.4977 15.2502 16.1977 15.4502 15.8977 15.6502C15.2977 16.1502 14.8977 16.6502 14.8977 16.6502C14.8977 16.6502 14.3977 17.1502 14.0977 17.7502C13.8977 18.0502 13.6977 18.4502 13.5977 18.7502C13.4977 19.0502 13.3977 19.3502 13.3977 19.4502C13.1977 20.0502 13.1977 20.3502 13.0977 20.7502Z" fill="black"/>
<path d="M16.4985 41.1502C16.3985 40.8502 16.4985 40.5502 16.4985 40.1502C16.4985 40.0502 16.4985 39.8502 16.3985 39.5502C16.3985 39.3502 16.2985 39.4502 16.2985 39.4502H16.3985C16.4985 39.4502 16.4985 39.4502 16.5985 39.4502C16.7985 39.3502 16.7985 39.3502 16.7985 39.3502C16.7985 39.3502 17.0985 39.1502 17.1985 38.6502C17.1985 38.2502 17.1985 38.0502 17.0985 37.7502C17.0985 37.4502 16.9985 37.1502 16.9985 36.9502C16.9985 36.8502 16.9985 36.6502 16.9985 36.6502C16.7985 36.5502 16.7985 36.5502 16.8985 36.5502V36.6502C17.2985 36.4502 17.4985 36.1502 17.6985 35.9502C17.3985 36.1502 17.1985 36.1502 16.6985 36.0502C16.6985 36.0502 16.5985 36.0502 16.4985 36.1502C16.3985 36.1502 16.2985 36.3502 16.2985 36.4502C16.1985 36.6502 16.1985 36.7502 16.0985 36.8502C15.9985 37.1502 15.8985 37.4502 15.8985 37.8502C15.8985 38.1502 15.8985 38.5502 15.8985 38.5502C15.8985 38.5502 16.1985 38.6502 15.9985 38.5502C15.9985 38.5502 15.9985 38.5502 15.9985 38.6502C15.9985 38.7502 15.8985 38.0502 15.9985 38.3502L15.8985 38.2502C15.8985 38.0502 15.7985 37.9502 15.6985 37.9502C15.4985 37.9502 15.3985 37.9502 15.2985 37.9502C15.2985 37.9502 14.9985 37.9502 15.0985 38.0502C15.0985 38.1502 15.0985 38.2502 15.0985 38.3502V38.6502V38.7502L15.1985 39.0502C15.2985 39.3502 15.4985 39.8502 15.5985 39.8502C15.6985 40.0502 15.8985 40.2502 15.8985 40.3502C16.0985 40.6502 16.2985 40.8502 16.4985 41.1502Z" fill="black"/>
<path d="M20.2988 19.9502C20.7988 18.4502 21.2988 17.4502 22.3988 15.9502C22.5988 15.7502 22.8988 15.2502 23.5988 14.6502C23.5988 14.6502 23.6988 14.5502 23.7988 14.5502C23.7988 14.6502 23.7988 14.7502 23.7988 14.8502C23.7988 15.0502 23.6988 15.3502 23.6988 15.5502C23.5988 16.5502 23.3988 17.5502 23.2988 18.5502C23.1988 19.5502 22.9988 20.3502 22.9988 21.1502C22.9988 21.8502 23.0988 22.3502 23.0988 22.3502C23.0988 22.3502 23.0988 22.7502 23.3988 23.3502C23.4988 23.5502 23.5988 23.6502 23.7988 23.8502C23.9988 24.0502 24.3988 24.2502 24.6988 24.1502C25.4988 24.0502 25.7988 23.5502 26.0988 23.1502C26.5988 22.3502 26.9988 21.4502 27.3988 20.6502C27.5988 20.2502 27.7988 19.8502 27.9988 19.4502C28.0988 19.2502 28.1988 19.1502 28.2988 18.9502C28.3988 18.8502 28.2988 18.9502 28.2988 18.8502C28.3988 18.9502 28.3988 19.0502 28.4988 19.1502C28.5988 19.4502 28.7988 19.6502 28.9988 19.9502C29.1988 20.1502 29.4988 20.3502 29.7988 20.3502C30.0988 20.3502 30.1988 20.2502 30.2988 20.2502C32.0988 19.5502 32.9988 19.0502 34.5988 18.6502C33.0988 19.0502 31.9988 19.2502 30.1988 19.6502C29.9988 19.6502 29.7988 19.7502 29.5988 19.5502C29.4988 19.4502 29.3988 19.2502 29.2988 18.9502C29.2988 18.8502 29.1988 18.8502 29.1988 18.7502C29.1988 18.6502 29.0988 18.5502 29.0988 18.4502C28.9988 18.1502 28.6988 17.9502 28.3988 17.9502C28.1988 17.9502 28.0988 18.0502 27.8988 18.1502C27.7988 18.2502 27.5988 18.4502 27.4988 18.5502C27.3988 18.7502 27.1988 18.9502 27.0988 19.0502C26.7988 19.4502 26.5988 19.8502 26.3988 20.2502C25.9988 21.0502 25.4988 21.9502 25.0988 22.5502C24.8988 22.7502 24.6988 22.9502 24.6988 22.9502C24.6988 22.9502 24.5988 22.9502 24.4988 22.7502C24.2988 22.3502 24.2988 22.0502 24.2988 22.0502C24.2988 22.0502 24.1988 21.7502 24.1988 21.1502C24.1988 20.5502 24.2988 19.6502 24.3988 18.6502C24.4988 17.6502 24.5988 16.6502 24.6988 15.6502C24.6988 15.4502 24.6988 15.1502 24.7988 14.9502C24.7988 14.8502 24.7988 14.7502 24.7988 14.5502C24.7988 14.3502 24.7988 14.1502 24.6988 13.9502C24.4988 13.5502 24.0988 13.4502 23.7988 13.5502C23.5988 13.5502 23.4988 13.6502 23.2988 13.8502C23.1988 13.9502 23.0988 14.0502 23.0988 14.0502C22.6988 14.4502 22.3988 14.8502 22.2988 15.0502C22.0988 15.3502 21.9988 15.5502 21.8988 15.6502C20.8988 17.3502 20.7988 18.4502 20.2988 19.9502Z" fill="black"/>
</g>
<defs>
<clipPath id="clip0_420_730">
<rect width="62.1" height="61.4" fill="white" transform="translate(0.699219 0.950195)"/>
</clipPath>
</defs>
</svg>
