<svg width="62" height="63" viewBox="0 0 62 63" fill="none" xmlns="http://www.w3.org/2000/svg">
<g clip-path="url(#clip0_419_102)">
<path d="M53.4994 51.7503C52.5994 52.7503 51.9994 53.4503 50.7994 54.4503C50.5994 54.5503 50.3994 54.8503 50.0994 55.0503C49.8994 55.1503 49.7994 55.2503 49.5994 55.4503C49.1994 55.7503 48.6994 56.0503 48.2994 56.4503C47.7994 56.7503 47.1994 57.1503 46.6994 57.4503C46.1994 57.8503 45.5994 58.0503 44.9994 58.3503C44.3994 58.6503 43.7994 58.9503 43.1994 59.1503C38.2994 61.2503 32.2994 62.3503 26.2994 61.5503C20.2994 60.8503 14.4994 58.0503 10.0994 53.9503C5.69942 49.7503 2.99942 44.2503 1.79942 38.9503C1.19942 36.3503 0.899419 33.6503 0.999419 31.2503C1.09942 28.7503 1.29942 26.4503 1.89942 24.4503C2.89942 20.3503 4.49942 17.1503 5.79942 15.1503C6.39942 14.1503 7.09942 13.3503 7.39942 12.8503C7.79942 12.3503 7.99942 12.1503 7.99942 12.1503C7.99942 12.1503 8.19942 11.8503 8.59942 11.4503C8.99942 10.9503 9.69942 10.3503 10.5994 9.45029C12.3994 7.85029 15.2994 5.75029 19.1994 4.25029C20.1994 3.85029 21.2994 3.55029 22.2994 3.15029C22.9994 2.95029 23.5994 2.85029 24.0994 2.75029C24.6994 2.65029 25.2994 2.45029 25.8994 2.45029C28.2994 1.95029 30.9994 1.75029 33.6994 1.95029C39.0994 2.35029 44.8994 4.35029 49.6994 7.95029C52.0994 9.75029 54.2994 11.9503 55.9994 14.5503C57.6994 17.0503 58.8994 19.9503 59.6994 22.8503C60.4994 25.7503 60.7994 28.7503 60.6994 31.6503C60.6994 32.3503 60.5994 33.0503 60.5994 33.8503C60.4994 34.5503 60.3994 35.2503 60.2994 35.9503C60.1994 36.6503 59.9994 37.3503 59.8994 37.9503C59.6994 38.5503 59.5994 39.1503 59.3994 39.7503C58.9994 40.7503 58.7994 41.5503 58.5994 41.9503C58.2994 42.6503 58.0994 43.2503 57.7994 43.7503C57.4994 44.2503 57.2994 44.7503 56.9994 45.3503C57.2994 44.7503 57.5994 44.2503 57.8994 43.7503C58.1994 43.2503 58.3994 42.6503 58.7994 41.9503C58.9994 41.5503 59.2994 40.7503 59.6994 39.7503C59.8994 39.1503 60.0994 38.5503 60.2994 37.9503C60.4994 37.2503 60.5994 36.5503 60.7994 35.9503C60.8994 35.2503 60.9994 34.5503 61.0994 33.8503C61.1994 33.1503 61.1994 32.4503 61.2994 31.6503C61.3994 28.7503 61.1994 25.6503 60.3994 22.7503C59.6994 19.7503 58.3994 16.8503 56.6994 14.2503C54.9994 11.6503 52.7994 9.35029 50.3994 7.45029C45.4994 3.65029 39.5994 1.55029 33.9994 1.15029C31.1994 0.950293 28.4994 1.05029 25.9994 1.45029C25.3994 1.55029 24.7994 1.65029 24.1994 1.75029C23.5994 1.85029 22.9994 2.05029 22.3994 2.15029C21.2994 2.55029 20.1994 2.85029 19.1994 3.25029C15.0994 4.85029 12.1994 7.05029 10.2994 8.65029C9.39942 9.55029 8.69942 10.1503 8.19942 10.6503C7.79942 11.1503 7.49942 11.4503 7.49942 11.4503C7.49942 11.4503 6.99942 11.7503 6.59942 12.2503C6.19942 12.7503 5.59942 13.5503 4.89942 14.6503C3.49942 16.7503 1.89942 19.9503 0.899419 24.2503C0.399419 26.3503 0.0994188 28.7503 -0.00058121 31.2503C-0.100581 33.7503 0.199419 36.4503 0.799419 39.2503C1.99942 44.6503 4.89942 50.3503 9.49942 54.5503C13.9994 58.7503 20.0994 61.5503 26.1994 62.1503C32.2994 62.8503 38.3994 61.7503 43.2994 59.4503C43.8994 59.1503 44.4994 58.8503 45.0994 58.5503C45.6994 58.2503 46.2994 57.9503 46.7994 57.5503C47.2994 57.1503 47.8994 56.8503 48.3994 56.4503C48.7994 56.1503 49.2994 55.7503 49.6994 55.4503C49.8994 55.3503 50.0994 55.1503 50.1994 55.0503C50.4994 54.7503 50.6994 54.5503 50.8994 54.4503C51.9994 53.4503 52.5994 52.6503 53.4994 51.7503Z" fill="black"/>
<path d="M44.3004 41.2502C43.9004 40.9502 43.6004 40.6502 42.9004 40.4502C42.7004 40.4502 42.3004 40.3502 41.9004 40.4502C41.5004 40.5502 40.9004 40.7502 40.5004 41.0502C40.1004 41.3502 39.7004 41.7502 39.5004 41.9502C39.3004 42.2502 39.2004 42.4502 39.2004 42.4502C39.2004 42.4502 38.7004 43.2502 38.4004 44.1502C38.1004 45.0502 38.0004 46.0502 37.9004 46.3502C37.9004 46.6502 37.8004 46.9502 37.8004 47.1502C37.8004 47.2502 37.7004 47.3502 37.7004 47.4502C37.6004 47.5502 37.5004 47.6502 37.4004 47.4502C37.5004 47.5502 37.6004 47.5502 37.7004 47.4502C37.8004 47.3502 37.9004 47.3502 38.0004 47.2502C38.2004 47.0502 38.3004 46.8502 38.5004 46.6502C38.7004 46.3502 39.1004 45.4502 39.5004 44.6502C39.9004 43.8502 40.2004 43.2502 40.2004 43.2502C40.2004 43.2502 40.6004 42.6502 41.1004 42.1502C41.6004 41.6502 42.5004 41.3502 42.8004 41.3502C43.5004 41.0502 43.9004 41.0502 44.3004 41.2502Z" fill="black"/>
<path d="M37.9004 47.1504C38.1004 46.6504 38.6004 46.5504 39.1004 46.4504C39.3004 46.4504 39.6004 46.3504 40.0004 46.3504C40.4004 46.3504 40.9004 46.3504 41.4004 46.3504C41.9004 46.3504 42.4004 46.2504 42.7004 46.1504C43.1004 46.0504 43.3004 45.9504 43.3004 45.9504C43.3004 45.9504 43.5004 45.8504 43.9004 45.7504C44.3004 45.5504 44.7004 45.2504 45.1004 44.8504C45.5004 44.4504 45.8004 43.8504 45.8004 43.2504C45.8004 42.7504 45.7004 42.3504 45.6004 42.1504C45.2004 41.4504 44.7004 41.3504 44.3004 41.1504C44.8004 41.3504 44.9004 41.8504 45.0004 42.3504C45.0004 42.4504 45.0004 42.8504 44.9004 43.1504C44.8004 43.4504 44.6004 43.7504 44.3004 44.0504C43.7004 44.5504 43.0004 44.7504 43.0004 44.7504C43.0004 44.7504 42.8004 44.8504 42.5004 44.8504C42.2004 44.9504 41.8004 45.0504 41.3004 45.0504C40.8004 45.1504 40.3004 45.2504 39.9004 45.3504C39.5004 45.4504 39.1004 45.6504 38.9004 45.7504C38.3004 46.1504 38.1004 46.6504 37.9004 47.1504Z" fill="black"/>
<path d="M44.7988 41.1505C44.3988 41.0505 44.3988 40.6505 44.4988 40.2505C44.4988 40.0505 44.7988 39.6505 45.2988 39.5505C45.4988 39.4505 45.7988 39.3505 45.9988 39.3505C46.1988 39.2505 46.3988 39.2505 46.3988 39.2505C46.3988 39.2505 46.5988 39.2505 46.7988 39.1505C47.0988 39.0505 47.3988 38.9505 47.6988 38.7505C48.3988 38.3505 48.8988 37.6505 48.9988 37.3505C49.1988 36.8505 49.1988 36.5505 49.3988 36.2505C49.1988 36.5505 48.8988 36.7505 48.4988 36.9505C48.2988 37.0505 47.6988 37.4505 47.1988 37.6505C46.8988 37.7505 46.6988 37.8505 46.4988 37.9505C46.2988 38.0505 46.0988 38.0505 46.0988 38.0505C46.0988 38.0505 45.8988 38.0505 45.6988 38.1505C45.4988 38.2505 45.0988 38.3505 44.6988 38.5505C44.2988 38.7505 43.9988 39.1505 43.7988 39.5505C43.5988 39.9505 43.6988 40.3505 43.6988 40.4505C44.0988 40.9505 44.4988 41.1505 44.7988 41.1505Z" fill="black"/>
<path d="M44.6992 41.3504C44.9992 41.5504 45.0992 41.8504 45.3992 42.1504C45.4992 42.2504 45.6992 42.4504 45.9992 42.5504C46.3992 42.6504 46.8992 42.6504 47.2992 42.4504C47.6992 42.2504 47.8992 41.8504 48.0992 41.6504C48.1992 41.4504 48.2992 41.2504 48.2992 41.2504C48.2992 41.2504 48.3992 41.0504 48.3992 40.8504C48.4992 40.6504 48.4992 40.2504 48.4992 39.9504C48.4992 39.3504 48.5992 38.7504 48.5992 38.5504C48.6992 38.1504 48.6992 37.8504 48.9992 37.6504C48.6992 37.7504 48.3992 37.8504 47.9992 38.1504C47.8992 38.2504 47.7992 38.4504 47.5992 38.7504C47.4992 39.0504 47.3992 39.3504 47.2992 39.6504C47.1992 39.9504 47.1992 40.1504 47.0992 40.3504C46.9992 40.5504 46.9992 40.6504 46.9992 40.6504C46.9992 40.6504 46.9992 40.7504 46.8992 40.9504C46.7992 41.0504 46.6992 41.2504 46.5992 41.3504C46.4992 41.4504 46.2992 41.5504 46.1992 41.5504C45.9992 41.5504 45.7992 41.5504 45.6992 41.4504C45.2992 41.4504 44.9992 41.4504 44.6992 41.3504Z" fill="black"/>
<path d="M40.9001 34.2504C39.5001 34.5504 38.4001 34.3504 36.8001 33.6504C36.7001 33.5504 36.5001 33.5504 36.3001 33.3504C36.1001 33.2504 35.8001 33.0504 35.4001 32.7504C34.7001 32.2504 33.9001 31.3504 33.4001 30.1504C32.9001 29.0504 32.6001 27.6504 32.8001 26.4504C32.9001 25.2504 33.4001 24.2504 33.9001 23.5504C34.3001 22.8504 34.7001 22.4504 34.7001 22.4504C34.7001 22.4504 35.0001 22.1504 35.5001 21.6504C36.0001 21.1504 36.8001 20.5504 37.8001 20.0504C38.8001 19.5504 39.9001 19.0504 41.1001 18.7504C42.3001 18.4504 43.4001 18.4504 44.4001 18.6504C44.7001 18.7504 45.0001 18.7504 45.2001 18.8504C45.4001 18.9504 45.7001 19.0504 45.8001 19.1504C46.2001 19.3504 46.4001 19.4504 46.6001 19.6504C47.3001 20.1504 47.7001 20.6504 48.1001 21.1504C48.5001 21.6504 48.8001 22.1504 49.2001 22.8504C48.9001 22.1504 48.6001 21.6504 48.3001 21.0504C48.0001 20.4504 47.6001 19.8504 46.9001 19.2504C46.7001 19.0504 46.4001 18.9504 46.1001 18.6504C45.9001 18.5504 45.7001 18.4504 45.4001 18.3504C45.1001 18.2504 44.8001 18.1504 44.5001 18.0504C43.5001 17.7504 42.2001 17.7504 40.9001 17.9504C39.6001 18.1504 38.3001 18.6504 37.3001 19.1504C36.2001 19.7504 35.3001 20.3504 34.8001 20.9504C34.2001 21.4504 33.9001 21.8504 33.9001 21.8504C33.9001 21.8504 33.5001 22.2504 33.0001 23.0504C32.5001 23.8504 32.0001 25.0504 31.8001 26.4504C31.6001 27.8504 32.0001 29.4504 32.6001 30.6504C33.3001 31.8504 34.2001 32.8504 35.0001 33.3504C35.4001 33.6504 35.8001 33.8504 36.1001 33.9504C36.4001 34.0504 36.6001 34.1504 36.7001 34.1504C37.6001 34.4504 38.3001 34.5504 39.0001 34.5504C39.6001 34.4504 40.2001 34.3504 40.9001 34.2504Z" fill="black"/>
<path d="M37.3993 32.2502C36.5993 32.2502 36.0993 31.7502 35.7993 31.2502C35.4993 30.7502 35.2993 30.0502 35.1993 29.2502C35.1993 28.9502 35.0993 28.4502 35.0993 27.5502C35.0993 26.8502 35.2993 26.0502 35.5993 25.1502C35.9993 24.3502 36.5993 23.5502 37.2993 22.9502C37.9993 22.3502 38.7993 22.0502 39.3993 21.8502C39.9993 21.6502 40.2993 21.5502 40.2993 21.5502C40.2993 21.5502 40.3993 21.5502 40.4993 21.5502C40.5993 21.5502 40.7993 21.4502 41.0993 21.4502C41.5993 21.4502 42.3993 21.3502 43.1993 21.4502C43.9993 21.5502 44.8993 21.7502 45.7993 22.0502C46.5993 22.3502 47.3993 22.7502 47.9993 23.1502C48.4993 23.5502 48.9993 23.8502 49.2993 24.0502C49.5993 24.3502 49.7993 24.5502 49.9993 24.7502C51.0993 26.0502 51.5993 26.9502 51.8993 28.4502C51.6993 27.0502 51.4993 25.9502 50.4993 24.4502C50.3993 24.2502 50.1993 24.0502 49.8993 23.6502C49.6993 23.4502 49.5993 23.3502 49.3993 23.1502C49.1993 22.9502 48.8993 22.7502 48.6993 22.5502C48.0993 22.0502 47.1993 21.6502 46.2993 21.2502C45.3993 20.8502 44.3993 20.6502 43.4993 20.5502C42.5993 20.4502 41.7993 20.4502 41.1993 20.4502C40.8993 20.4502 40.6993 20.5502 40.4993 20.5502C40.2993 20.5502 40.1993 20.5502 40.1993 20.5502C40.1993 20.5502 39.7993 20.6502 39.0993 20.8502C38.3993 21.0502 37.5993 21.5502 36.6993 22.2502C35.8993 22.9502 35.0993 23.8502 34.7993 24.8502C34.3993 25.8502 34.2993 26.8502 34.3993 27.5502C34.4993 28.6502 34.5993 29.0502 34.6993 29.3502C34.9993 31.0502 35.9993 32.1502 37.3993 32.2502Z" fill="black"/>
<path d="M41.0987 32.1501C40.3987 32.3501 39.6987 31.9501 39.2987 31.5501C38.7987 31.1501 38.4987 30.5501 38.2987 29.7501C38.1987 29.4501 38.0987 29.0501 37.9987 28.0501C37.9987 27.6501 37.9987 27.1501 38.0987 26.7501C38.1987 26.2501 38.3987 25.8501 38.6987 25.4501C38.9987 25.0501 39.2987 24.7501 39.5987 24.6501C39.8987 24.4501 40.0987 24.3501 40.0987 24.3501C40.0987 24.3501 40.6987 24.0501 41.5987 23.9501C42.4987 23.8501 43.5987 23.9501 44.3987 24.1501C45.5987 24.4501 46.3987 24.8501 46.6987 25.0501C48.0987 25.8501 48.9987 26.5501 49.5987 27.8501C49.0987 26.5501 48.5987 25.4501 47.0987 24.3501C46.6987 24.0501 45.9987 23.5501 44.6987 23.1501C43.8987 22.8501 42.5987 22.6501 41.4987 22.7501C40.9987 22.8501 40.4987 22.9501 40.1987 23.0501C39.8987 23.1501 39.6987 23.2501 39.6987 23.2501C39.6987 23.2501 39.4987 23.3501 39.0987 23.5501C38.7987 23.7501 38.2987 24.1501 37.8987 24.6501C37.4987 25.1501 37.1987 25.8501 37.1987 26.4501C37.0987 27.0501 37.1987 27.6501 37.1987 28.0501C37.3987 29.1501 37.5987 29.5501 37.6987 29.8501C38.0987 30.7501 38.5987 31.2501 39.2987 31.6501C39.6987 32.1501 40.3987 32.3501 41.0987 32.1501Z" fill="black"/>
<path d="M39.7988 16.0505C40.3988 15.9505 40.7988 16.0505 41.4988 16.1505C41.6988 16.1505 42.0988 16.2505 42.4988 16.2505C42.9988 16.3505 43.4988 16.3505 43.9988 16.4505C44.9988 16.6505 45.8988 16.8505 45.8988 16.8505C45.8988 16.8505 46.0988 16.9505 46.4988 17.0505C46.7988 17.1505 47.2988 17.3505 47.6988 17.5505C47.8988 17.6505 48.0988 17.7505 48.2988 17.9505C48.4988 18.0505 48.6988 18.2505 48.7988 18.3505C49.0988 18.6505 49.2988 18.9505 49.3988 19.0505C49.5988 19.3505 49.6988 19.5505 49.7988 19.7505C49.8988 19.9505 49.8988 20.2505 49.9988 20.5505C49.9988 20.2505 49.9988 19.9505 49.9988 19.7505C49.9988 19.4505 49.9988 19.1505 49.8988 18.7505C49.7988 18.5505 49.6988 18.1505 49.3988 17.7505C49.0988 17.3505 48.5988 16.9505 48.0988 16.6505C47.5988 16.3505 47.0988 16.1505 46.6988 16.0505C46.2988 15.9505 46.0988 15.8505 46.0988 15.8505C46.0988 15.8505 45.0988 15.5505 43.9988 15.5505C42.8988 15.4505 41.6988 15.6505 41.2988 15.6505C40.7988 15.6505 40.3988 15.9505 39.7988 16.0505Z" fill="black"/>
<path d="M48.3004 14.1503C47.2004 13.2503 46.2004 12.6503 44.3004 12.5503C44.0004 12.5503 43.5004 12.4503 42.5004 12.5503C41.9004 12.5503 40.8004 12.7503 39.9004 12.9503C39.0004 13.1503 38.3004 13.4503 38.3004 13.4503C38.3004 13.4503 37.7004 13.6503 37.0004 14.0503C36.3004 14.4503 35.4004 14.9503 34.9004 15.4503C33.8004 16.3503 33.4004 17.1503 33.1004 17.5503C32.2004 19.1503 32.1004 20.2503 31.9004 21.6503C32.1004 20.1503 32.7004 19.3503 33.8004 17.9503C34.1004 17.6503 34.6004 17.0503 35.6004 16.2503C36.1004 15.8503 36.9004 15.3503 37.5004 15.0503C38.2004 14.7503 38.7004 14.5503 38.7004 14.5503C38.7004 14.5503 39.4004 14.2503 40.2004 14.0503C41.0004 13.8503 42.0004 13.6503 42.6004 13.5503C43.6004 13.3503 44.0004 13.3503 44.3004 13.3503C45.2004 13.2503 45.8004 13.3503 46.5004 13.4503C47.1004 13.4503 47.7004 13.6503 48.3004 14.1503Z" fill="black"/>
<path d="M39.5992 29.4502C39.6992 29.0502 39.8992 28.8502 40.1992 28.4502C40.2992 28.2502 40.7992 27.7502 41.2992 27.3502C41.7992 27.0502 42.2992 26.8502 42.2992 26.8502C42.2992 26.8502 42.7992 26.6502 43.3992 26.7502C43.9992 26.7502 44.6992 26.9502 44.8992 27.0502C45.2992 27.1502 45.5992 27.2502 45.8992 27.5502C45.6992 27.2502 45.5992 26.9502 45.1992 26.5502C45.0992 26.4502 44.8992 26.2502 44.5992 26.1502C44.2992 25.9502 43.8992 25.8502 43.4992 25.7502C42.6992 25.6502 41.9992 25.8502 41.9992 25.8502C41.9992 25.8502 41.1992 26.0502 40.6992 26.6502C40.3992 26.9502 40.0992 27.2502 39.9992 27.5502C39.7992 27.8502 39.7992 28.1502 39.6992 28.2502C39.4992 28.7502 39.5992 29.0502 39.5992 29.4502Z" fill="black"/>
<path d="M52.1004 29.3501C51.5004 28.9501 51.0004 28.5501 50.3004 28.3501C49.7004 28.1501 48.9004 28.0501 48.0004 28.2501C47.8004 28.2501 47.6004 28.2501 47.4004 28.3501C47.1004 28.4501 46.7004 28.5501 46.2004 28.7501C45.7004 28.9501 45.1004 29.2501 44.5004 29.5501C43.9004 29.9501 43.2004 30.3501 42.6004 30.7501C41.4004 31.5501 40.5004 32.3501 40.5004 32.3501C40.5004 32.3501 39.7004 33.0501 38.9004 33.9501C38.0004 34.8501 37.1004 36.1501 36.6004 37.1501C35.9004 38.3501 35.6004 39.1501 35.4004 39.5501C34.7004 41.2501 34.7004 42.2501 34.4004 43.7501C34.8004 42.3501 35.3004 41.4501 36.1004 39.8501C36.3004 39.4501 36.7004 38.7501 37.5004 37.6501C38.1004 36.7501 39.0004 35.6501 39.9004 34.7501C40.7004 33.8501 41.5004 33.2501 41.5004 33.2501C41.5004 33.2501 42.3004 32.4501 43.5004 31.6501C44.6004 30.7501 46.0004 29.9501 46.8004 29.5501C47.2004 29.3501 47.6004 29.2501 47.8004 29.1501C48.1004 29.0501 48.2004 29.0501 48.4004 28.9501C49.2004 28.7501 49.9004 28.6501 50.5004 28.6501C51.0004 28.6501 51.5004 28.9501 52.1004 29.3501Z" fill="black"/>
<path d="M18.8988 43.9502C18.1988 43.9502 17.4988 43.9502 16.8988 44.0502C16.1988 44.1502 15.4988 44.1502 14.6988 44.6502C14.5988 44.7502 14.3988 44.8502 14.0988 45.0502C13.8988 45.2502 13.5988 45.5502 13.2988 46.0502C12.9988 46.5502 12.7988 47.1502 12.7988 47.8502C12.7988 48.5502 12.9988 49.3502 13.3988 50.0502C13.7988 50.7502 14.4988 51.3502 15.2988 51.6502C16.0988 51.9502 16.8988 52.0502 17.6988 51.9502C19.1988 51.7502 20.4988 51.2502 21.2988 50.7502C22.1988 50.2502 22.6988 49.9502 22.6988 49.9502C22.6988 49.9502 22.7988 49.8502 22.9988 49.7502C23.1988 49.6502 23.4988 49.4502 23.7988 49.1502C24.3988 48.6502 25.2988 47.8502 26.0988 46.8502C26.8988 45.8502 27.6988 44.6502 28.1988 43.3502C28.6988 42.0502 28.7988 40.5502 28.4988 39.4502C28.1988 38.0502 27.5988 37.3502 27.3988 36.9502C26.7988 36.2502 26.0988 35.8502 25.3988 35.7502C24.6988 35.6502 24.0988 35.6502 23.3988 35.9502C24.0988 35.6502 24.6988 35.7502 25.2988 35.9502C25.8988 36.1502 26.3988 36.5502 26.8988 37.2502C27.0988 37.5502 27.5988 38.2502 27.6988 39.5502C27.7988 40.5502 27.6988 41.8502 27.1988 42.9502C26.7988 43.9502 25.9988 45.0502 25.1988 45.9502C24.3988 46.8502 23.5988 47.5502 22.9988 48.0502C22.6988 48.2502 22.3988 48.4502 22.2988 48.5502C22.0988 48.6502 21.9988 48.7502 21.9988 48.7502C21.9988 48.7502 21.4988 49.0502 20.6988 49.5502C19.8988 49.9502 18.7988 50.4502 17.4988 50.6502C16.8988 50.7502 16.1988 50.7502 15.5988 50.5502C14.9988 50.3502 14.4988 49.9502 14.0988 49.4502C13.2988 48.4502 13.4988 47.0502 13.8988 46.3502C14.0988 45.9502 14.2988 45.6502 14.4988 45.4502C14.6988 45.2502 14.7988 45.1502 14.9988 45.0502C15.6988 44.5502 16.3988 44.3502 16.9988 44.2502C17.5988 44.0502 18.1988 43.9502 18.8988 43.9502Z" fill="black"/>
<path d="M25.0996 51.1503C26.3996 50.5503 27.3996 50.1503 28.7996 49.0503C28.9996 48.8503 29.3996 48.5503 30.1996 47.8503C30.6996 47.4503 31.4996 46.5503 32.0996 45.7503C32.6996 44.9503 32.9996 44.1503 32.9996 44.1503C32.9996 44.1503 33.0996 43.9503 33.1996 43.7503C33.2996 43.4503 33.3996 43.1503 33.4996 42.6503C33.5996 42.2503 33.6996 41.7503 33.6996 41.2503C33.6996 40.7503 33.6996 40.3503 33.6996 39.9503C33.5996 39.5503 33.5996 39.2503 33.4996 38.9503C33.3996 38.6503 33.3996 38.4503 33.2996 38.2503C33.1996 37.8503 32.9996 37.5503 32.8996 37.3503C32.4996 36.5503 32.0996 35.9503 31.5996 35.4503C31.1996 34.9503 30.6996 34.5503 30.0996 34.0503C30.5996 34.5503 30.9996 35.0503 31.2996 35.6503C31.5996 36.2503 31.8996 36.8503 32.0996 37.6503C32.1996 37.8503 32.1996 38.1503 32.2996 38.5503C32.3996 38.9503 32.4996 39.4503 32.4996 40.1503C32.4996 40.4503 32.4996 40.8503 32.4996 41.3503C32.4996 41.7503 32.3996 42.1503 32.2996 42.5503C32.1996 42.9503 32.0996 43.2503 31.9996 43.4503C31.8996 43.6503 31.8996 43.8503 31.8996 43.8503C31.8996 43.8503 31.5996 44.5503 31.1996 45.2503C30.6996 45.9503 29.9996 46.8503 29.5996 47.2503C28.8996 47.9503 28.5996 48.3503 28.3996 48.5503C27.0996 49.6503 26.4996 50.4503 25.0996 51.1503Z" fill="black"/>
<path d="M29 35.7505C29.1 36.0505 29.2 36.2505 29.3 36.4505C29.4 36.8505 29.4 37.1505 29.5 37.3505C29.5 37.5505 29.6 37.8505 29.7 38.3505C29.8 38.7505 29.8 39.3505 29.8 39.8505C29.8 40.3505 29.8 40.8505 29.7 41.1505C29.7 41.4505 29.6 41.7505 29.6 41.7505C29.6 41.7505 29.6 41.9505 29.5 42.3505C29.4 42.6505 29.3 43.1505 29.2 43.6505C29.1 44.1505 28.9 44.6505 28.7 45.0505C28.5 45.4505 28.4 45.8505 28.3 45.9505C28 46.5505 27.9 46.9505 27.5 47.4505C27.9 47.0505 28.3 46.8505 28.8 46.2505C28.9 46.0505 29.2 45.7505 29.4 45.3505C29.7 44.9505 29.9 44.4505 30.2 43.9505C30.4 43.4505 30.6 42.9505 30.6 42.5505C30.7 42.1505 30.7 41.9505 30.7 41.9505C30.7 41.9505 30.7 41.6505 30.8 41.3505C30.8 40.9505 30.8 40.4505 30.8 39.8505C30.7 39.2505 30.6 38.7505 30.4 38.2505C30.3 37.7505 30 37.4505 30 37.2505C29.8 36.9505 29.6 36.7505 29.5 36.4505C29.3 36.1505 29.2 35.9505 29 35.7505Z" fill="black"/>
<path d="M38.5 39.6504C39.2 38.3504 40 37.6504 41.2 36.4504C41.4 36.2504 41.7 35.9504 42.5 35.2504C42.8 34.9504 43.3 34.5504 43.8 34.2504C44.3 33.8504 44.9 33.4504 45.5 33.1504C46.1 32.8504 46.6 32.5504 47 32.4504C47.4 32.2504 47.6 32.1504 47.6 32.1504C47.6 32.1504 47.8 32.0504 48.1 31.9504C48.4 31.8504 48.9 31.6504 49.5 31.5504C49.8 31.4504 50.1 31.4504 50.3 31.4504C50.6 31.4504 50.9 31.3504 51.2 31.3504C51.8 31.3504 52.3 31.3504 52.8 31.4504C53.9 31.7504 54 32.5504 54 32.9504C53.9 33.6504 53.6 34.2504 53.1 34.6504C52.6 35.0504 52.1 35.3504 51.4 35.6504C52.1 35.3504 52.7 35.2504 53.3 34.8504C53.9 34.5504 54.5 33.9504 54.7 32.9504C54.7 32.7504 54.8 32.3504 54.6 31.7504C54.4 31.2504 53.9 30.7504 53.1 30.4504C52.6 30.2504 51.9 30.1504 51.2 30.1504C50.9 30.1504 50.5 30.1504 50.2 30.1504C49.9 30.1504 49.5 30.2504 49.3 30.2504C48.7 30.3504 48.2 30.5504 47.8 30.6504C47.4 30.7504 47.2 30.8504 47.2 30.8504C47.2 30.8504 46.9 30.9504 46.5 31.1504C46.1 31.3504 45.5 31.6504 44.9 31.9504C44.3 32.3504 43.7 32.7504 43.2 33.1504C42.7 33.5504 42.2 34.0504 41.9 34.3504C41.2 35.0504 40.9 35.4504 40.7 35.7504C39.5 37.3504 39.1 38.3504 38.5 39.6504Z" fill="black"/>
<path d="M41.1992 39.1502C41.5992 38.4502 41.9992 38.0502 42.5992 37.7502C43.0992 37.3502 43.6992 37.0502 44.4992 36.7502C44.7992 36.6502 45.1992 36.4502 46.0992 36.1502C46.1992 36.1502 46.3992 36.0502 46.3992 36.0502C46.3992 36.0502 46.4992 36.0502 46.5992 35.9502C46.6992 35.9502 46.6992 35.9502 46.7992 35.9502C47.8992 35.6502 48.8992 35.1502 49.2992 34.7502C49.9992 34.1502 50.3992 33.6502 50.8992 33.2502C51.3992 32.8502 51.9992 32.5502 52.6992 32.4502C51.9992 32.5502 51.2992 32.6502 50.6992 32.8502C49.9992 33.0502 49.3992 33.4502 48.6992 33.9502C48.2992 34.1502 47.5992 34.5502 46.3992 34.8502C46.3992 34.8502 46.2992 34.8502 46.1992 34.8502C46.0992 34.8502 45.9992 34.9502 45.9992 34.9502C45.9992 34.9502 45.7992 35.0502 45.6992 35.0502C44.6992 35.3502 44.1992 35.6502 43.9992 35.8502C42.2992 36.8502 41.7992 37.8502 41.1992 39.1502Z" fill="black"/>
<path d="M25.3995 34.6504C25.7995 34.6504 26.0995 34.9504 26.3995 35.0504C26.6995 35.1504 26.9995 35.2504 27.3995 35.2504C28.0995 35.2504 28.7995 35.1504 29.5995 34.6504C29.8995 34.4504 30.2995 34.2504 31.0995 33.4504C31.4995 33.0504 31.8994 32.4504 32.2994 31.8504C32.6994 31.1504 32.9995 30.3504 32.9995 29.4504C32.9995 27.7504 32.3995 25.8504 31.0995 24.5504C30.4995 23.9504 29.6995 23.4504 28.8995 23.3504C28.0995 23.2504 27.3994 23.2504 26.7994 23.4504C26.1994 23.6504 25.7995 23.8504 25.4995 23.9504C25.1995 24.1504 25.0995 24.2504 25.0995 24.2504C25.0995 24.2504 24.9995 24.3504 24.7995 24.4504C24.5995 24.6504 24.2995 24.8504 23.9995 25.2504C23.8995 25.3504 23.6995 25.5504 23.5995 25.5504C23.4995 25.5504 23.3995 25.5504 23.0995 25.4504C22.4995 25.2504 21.6995 25.1504 20.8995 25.2504C20.4995 25.2504 20.0995 25.4504 19.6995 25.6504C19.2995 25.8504 18.9995 26.1504 18.6995 26.4504C18.0995 27.1504 17.7995 27.9504 17.7995 28.8504C17.6995 29.6504 17.8995 30.5504 18.1995 31.2504C18.4995 31.9504 18.8995 32.5504 19.2995 33.0504C20.1995 34.1504 20.9995 34.5504 21.3995 34.7504C22.1995 35.1504 22.9995 35.2504 23.6995 35.1504C24.3995 35.0504 24.8995 34.5504 25.5995 34.5504C24.8995 34.6504 24.2995 35.0504 23.6995 34.9504C23.0995 34.9504 22.3995 34.7504 21.6995 34.3504C21.3995 34.1504 20.6995 33.6504 19.8995 32.6504C19.1995 31.6504 18.5995 30.3504 18.6995 29.0504C18.7995 27.7504 19.8995 26.5504 21.0995 26.4504C21.6995 26.3504 22.2995 26.4504 22.7995 26.6504C23.0995 26.7504 23.4995 26.8504 23.8995 26.7504C24.2995 26.6504 24.5995 26.3504 24.6995 26.1504C24.9995 25.8504 25.1995 25.6504 25.3995 25.4504C25.5995 25.3504 25.6995 25.2504 25.6995 25.2504C25.6995 25.2504 25.7995 25.1504 26.0995 25.0504C26.2995 24.9504 26.6995 24.7504 27.0995 24.6504C27.9995 24.3504 29.2995 24.4504 30.3995 25.4504C31.3995 26.4504 32.0994 28.0504 32.0994 29.5504C32.0994 31.0504 31.2995 32.3504 30.6995 33.1504C30.0995 33.9504 29.6995 34.1504 29.4995 34.3504C28.7995 34.8504 28.1995 35.0504 27.4995 35.1504C27.1995 35.1504 26.8995 35.1504 26.5995 35.0504C26.0995 34.8504 25.7995 34.6504 25.3995 34.6504Z" fill="black"/>
<path d="M26.7988 29.5505C26.9988 29.4505 27.1988 29.5505 27.4988 29.5505C27.6988 29.5505 28.0988 29.5505 28.4988 29.3505C28.8988 29.2505 29.1988 29.1505 29.1988 29.1505C29.1988 29.1505 29.4988 29.0505 29.8988 28.8505C30.2988 28.6505 30.5988 28.3505 30.6988 28.2505C30.8988 28.0505 30.9988 27.8505 31.1988 27.7505C30.9988 27.8505 30.7988 27.7505 30.4988 27.7505C30.2988 27.7505 29.8988 27.7505 29.4988 27.9505C29.0988 28.0505 28.7988 28.1505 28.7988 28.1505C28.7988 28.1505 28.4988 28.2505 28.0988 28.4505C27.6988 28.6505 27.3988 28.9505 27.2988 29.0505C27.0988 29.2505 26.9988 29.4505 26.7988 29.5505Z" fill="black"/>
<path d="M27.5996 31.1503C27.6996 31.2503 27.6996 31.3503 27.7996 31.5503C27.8996 31.6503 27.9996 31.8503 28.1996 31.9503C28.3996 32.0503 28.5996 32.1503 28.5996 32.1503C28.5996 32.1503 28.7996 32.2503 28.9996 32.2503C29.1996 32.2503 29.4996 32.2503 29.5996 32.2503C29.7996 32.2503 29.8996 32.0503 29.9996 32.1503C29.8996 32.0503 29.8996 31.9503 29.7996 31.7503C29.6996 31.6503 29.5996 31.4503 29.3996 31.3503C29.1996 31.2503 28.9996 31.1503 28.9996 31.1503C28.9996 31.1503 28.7996 31.0503 28.5996 31.0503C28.3996 31.0503 28.0996 31.0503 27.9996 31.0503C27.8996 31.0503 27.7996 31.1503 27.5996 31.1503Z" fill="black"/>
<path d="M27.2992 32.9502C27.2992 33.0502 27.1992 33.1502 27.1992 33.2502C27.1992 33.3502 27.1992 33.4502 27.1992 33.6502C27.1992 33.7502 27.2992 33.8502 27.2992 33.8502C27.2992 33.8502 27.3992 33.9502 27.4992 33.9502C27.5992 33.9502 27.7992 33.9502 27.8992 33.9502C27.9992 33.8502 28.0992 33.7502 28.1992 33.7502C28.1992 33.7502 28.1992 33.5502 28.1992 33.4502C28.1992 33.3502 28.1992 33.2502 28.1992 33.1502C28.1992 33.0502 28.0992 33.0502 28.0992 33.0502C28.0992 33.0502 28.0992 32.9502 27.9992 32.9502C27.8992 32.9502 27.7992 32.9502 27.6992 32.9502C27.4992 32.9502 27.2992 33.0502 27.2992 32.9502Z" fill="black"/>
<path d="M26 27.5502C26.1 27.4502 26.3 27.5502 26.5 27.5502C26.6 27.5502 26.9 27.5502 27.1 27.4502C27.3 27.3502 27.5 27.2502 27.5 27.2502C27.5 27.2502 27.7 27.1502 27.9 26.9502C28.1 26.7502 28.2 26.5502 28.3 26.4502C28.4 26.2502 28.4 26.0502 28.5 25.9502C28.4 26.0502 28.2 25.9502 28 25.9502C27.9 25.9502 27.6 25.9502 27.4 26.0502C27.2 26.1502 27 26.2502 27 26.2502C27 26.2502 26.8 26.3502 26.6 26.5502C26.4 26.7502 26.3 26.9502 26.2 27.0502C26.1 27.2502 26.1 27.4502 26 27.5502Z" fill="black"/>
<path d="M23.3 28.4502C23.1 28.3502 23.1 28.1502 22.9 28.0502C22.8 27.9502 22.6 27.7502 22.3 27.5502C22.1 27.3502 21.8 27.2502 21.8 27.2502C21.8 27.2502 21.6 27.1502 21.3 27.0502C21 26.9502 20.7 26.9502 20.6 26.9502C20.4 26.9502 20.2 27.0502 20 26.9502C20.1 27.0502 20.1 27.2502 20.3 27.4502C20.4 27.5502 20.6 27.8502 20.8 28.0502C21 28.2502 21.3 28.3502 21.3 28.3502C21.3 28.3502 21.6 28.4502 21.9 28.5502C22.2 28.6502 22.6 28.6502 22.7 28.5502C23 28.5502 23.2 28.4502 23.3 28.4502Z" fill="black"/>
<path d="M23.2 30.6503C23 30.5503 23 30.3503 22.8 30.2503C22.7 30.1503 22.4 29.9503 22.1 29.8503C21.8 29.7503 21.5 29.6503 21.5 29.6503C21.5 29.6503 21.2 29.5503 20.9 29.5503C20.6 29.5503 20.2 29.5503 20.1 29.5503C19.9 29.6503 19.7 29.7503 19.5 29.7503C19.7 29.8503 19.7 30.0503 19.9 30.1503C20 30.2503 20.3 30.4503 20.6 30.5503C20.9 30.6503 21.2 30.7503 21.2 30.7503C21.2 30.7503 21.5 30.8503 21.8 30.8503C22.1 30.8503 22.5 30.8503 22.6 30.8503C22.8 30.7503 23 30.5503 23.2 30.6503Z" fill="black"/>
<path d="M23.2988 31.9506C23.1988 31.9506 23.0988 31.8506 22.8988 31.8506C22.7988 31.8506 22.5988 31.8506 22.3988 31.8506C22.1988 31.8506 22.0988 31.9506 22.0988 31.9506C22.0988 31.9506 21.9988 32.0506 21.7988 32.1506C21.6988 32.2506 21.4988 32.4506 21.4988 32.5506C21.3988 32.6506 21.3988 32.8506 21.2988 32.9506C21.3988 32.9506 21.4988 33.0506 21.6988 33.1506C21.7988 33.1506 21.9988 33.2506 22.1988 33.1506C22.3988 33.1506 22.5988 33.0506 22.5988 33.0506C22.5988 33.0506 22.7988 32.9506 22.8988 32.8506C23.0988 32.7506 23.1988 32.4506 23.1988 32.4506C23.2988 32.2506 23.1988 32.0506 23.2988 31.9506Z" fill="black"/>
<path d="M24.7 33.1502C24.7 33.1502 24.5 33.0502 24.4 33.0502C24.3 33.0502 24.2 32.9502 24.1 32.9502C24 32.9502 24 32.9502 24 32.9502C24 32.9502 24 32.9502 24 33.0502C24 33.1502 24 33.2502 24.1 33.3502C24.2 33.4502 24.3 33.5502 24.2 33.6502C24.2 33.6502 24.4 33.7502 24.5 33.7502C24.6 33.7502 24.7 33.8502 24.8 33.8502C24.9 33.8502 24.9 33.8502 24.9 33.8502C24.9 33.8502 24.9 33.8502 24.9 33.7502C24.9 33.6502 24.9 33.5502 24.8 33.4502C24.8 33.3502 24.7 33.2502 24.7 33.1502Z" fill="black"/>
<path d="M25.6992 32.9504C25.6992 32.6504 25.7992 32.5504 25.8992 32.1504C25.8992 31.9504 25.9992 31.4504 25.8992 30.9504C25.8992 30.4504 25.6992 30.0504 25.6992 30.0504C25.6992 30.0504 25.5992 29.6504 25.3992 29.2504C25.1992 28.8504 24.8992 28.3504 24.7992 28.2504C24.5992 28.0504 24.3992 27.9504 24.1992 27.6504C24.2992 27.8504 24.1992 28.1504 24.1992 28.4504C24.1992 28.6504 24.2992 29.1504 24.2992 29.5504C24.3992 29.9504 24.4992 30.3504 24.4992 30.3504C24.4992 30.3504 24.5992 30.7504 24.6992 31.1504C24.7992 31.5504 24.9992 32.0504 25.0992 32.1504C25.3992 32.5504 25.5992 32.7504 25.6992 32.9504Z" fill="black"/>
<path d="M26.8992 55.8505C26.2992 55.3505 26.2992 54.6505 26.3992 54.0505C26.5992 53.4505 26.8992 52.8505 27.3992 52.2505C27.4992 52.1505 27.5992 52.0505 27.7992 51.8505C27.8992 51.7505 27.9992 51.6505 28.0992 51.5505C28.1992 51.4505 28.3992 51.2505 28.5992 51.1505C28.8992 50.8505 29.5992 50.3505 30.1992 49.9505C30.7992 49.5505 31.2992 49.2505 31.2992 49.2505C31.2992 49.2505 31.6992 48.9505 32.1992 48.5505C32.3992 48.3505 32.6992 48.0505 32.9992 47.8505C33.2992 47.5505 33.4992 47.3505 33.5992 47.0505C33.7992 46.7505 33.9992 46.4505 34.0992 46.1505C34.1992 45.8505 34.2992 45.6505 34.2992 45.3505C34.2992 45.1505 34.3992 44.9505 34.3992 44.7505C34.3992 44.5505 34.3992 44.4505 34.3992 44.3505C34.3992 43.3505 34.0992 42.6505 33.7992 42.0505C33.4992 41.4505 33.0992 40.9505 32.7992 40.2505C33.0992 40.9505 33.2992 41.5505 33.3992 42.1505C33.4992 42.7505 33.5992 43.4505 33.4992 44.2505C33.4992 44.3505 33.4992 44.4505 33.4992 44.6505C33.4992 44.7505 33.3992 44.9505 33.3992 45.1505C33.3992 45.3505 33.1992 45.5505 33.1992 45.7505C33.0992 45.9505 32.9992 46.2505 32.7992 46.4505C32.6992 46.6505 32.4992 46.8505 32.1992 47.0505C31.9992 47.2505 31.6992 47.4505 31.4992 47.6505C30.9992 48.0505 30.6992 48.2505 30.6992 48.2505C30.6992 48.2505 30.1992 48.5505 29.6992 48.9505C29.0992 49.3505 28.4992 49.8505 28.0992 50.2505C27.8992 50.4505 27.6992 50.5505 27.5992 50.7505C27.4992 50.9505 27.2992 51.0505 27.2992 51.1505C27.0992 51.3505 26.9992 51.5505 26.8992 51.7505C25.7992 53.3505 25.7992 54.8505 26.8992 55.8505Z" fill="black"/>
<path d="M36.8992 34.7505C36.6992 34.8505 36.4992 34.8505 36.1992 34.9505C36.0992 35.0505 35.5992 35.2505 35.2992 35.5505C34.9992 35.8505 34.7992 36.1505 34.7992 36.1505C34.7992 36.1505 34.5992 36.4505 34.3992 36.8505C34.1992 37.2505 34.1992 37.7505 34.1992 37.8505C34.1992 38.1505 34.2992 38.3505 34.2992 38.5505C34.3992 38.3505 34.5992 38.2505 34.7992 38.0505C34.8992 37.9505 35.1992 37.6505 35.3992 37.3505C35.5992 37.0505 35.7992 36.7505 35.7992 36.7505C35.7992 36.7505 35.9992 36.4505 36.1992 36.1505C36.3992 35.8505 36.5992 35.4505 36.5992 35.3505C36.6992 35.0505 36.6992 34.8505 36.8992 34.7505Z" fill="black"/>
<path d="M34.4996 33.4502C34.3996 33.5502 34.1996 33.4502 33.9996 33.4502C33.8996 33.4502 33.5996 33.5502 33.3996 33.7502C33.0996 33.9502 32.9996 34.1502 32.9996 34.1502C32.9996 34.1502 32.8996 34.3502 32.7996 34.6502C32.6996 34.9502 32.6996 35.2502 32.7996 35.3502C32.8996 35.5502 32.9996 35.6502 32.9996 35.8502C32.9996 35.7502 33.1996 35.6502 33.3996 35.5502C33.4996 35.4502 33.6996 35.3502 33.7996 35.1502C33.8996 34.9502 33.9996 34.8502 33.9996 34.8502C33.9996 34.8502 34.0996 34.7502 34.1996 34.5502C34.2996 34.3502 34.3996 34.1502 34.3996 34.0502C34.3996 33.7502 34.3996 33.5502 34.4996 33.4502Z" fill="black"/>
<path d="M32.5988 32.3505C32.4988 32.3505 32.3988 32.2505 32.1988 32.2505C32.0988 32.2505 31.8988 32.2505 31.6988 32.3505C31.4988 32.4505 31.3988 32.6505 31.3988 32.6505C31.3988 32.6505 31.2988 32.7505 31.2988 32.9505C31.2988 33.1505 31.2988 33.3505 31.2988 33.4505C31.3988 33.5505 31.4988 33.6505 31.4988 33.7505C31.4988 33.6505 31.6988 33.6505 31.7988 33.6505C31.8988 33.6505 31.9988 33.5505 32.0988 33.4505C32.1988 33.3505 32.1988 33.2505 32.1988 33.2505C32.1988 33.2505 32.2988 33.1505 32.2988 33.0505C32.2988 32.9505 32.3988 32.7505 32.3988 32.6505C32.5988 32.6505 32.4988 32.4505 32.5988 32.3505Z" fill="black"/>
<path d="M21.5 52.0501C21.6 52.0501 21.7 52.2501 21.8 52.3501C21.9 52.3501 22.1 52.5501 22.3 52.5501C22.5 52.5501 22.7 52.5501 22.7 52.5501C22.7 52.5501 22.9 52.5501 23.1 52.4501C23.3 52.3501 23.4 52.1501 23.5 52.0501C23.6 51.8501 23.6 51.7501 23.7 51.6501C23.6 51.6501 23.5 51.5501 23.3 51.4501C23.2 51.4501 23 51.3501 22.8 51.3501C22.6 51.3501 22.5 51.3501 22.5 51.3501C22.5 51.3501 22.4 51.3501 22.2 51.4501C22.1 51.5501 21.9 51.6501 21.8 51.7501C21.7 51.8501 21.6 52.0501 21.5 52.0501Z" fill="black"/>
<path d="M22.1001 36.7505C22.3001 37.4505 22.1001 38.1505 21.8001 38.6505C21.5001 39.1505 21.1001 39.7505 20.4001 40.1505C20.3001 40.2505 20.1001 40.3505 19.9001 40.4505C19.7001 40.5505 19.4001 40.6505 18.9001 40.8505C18.8001 40.8505 18.6001 40.9505 18.5001 40.9505C18.3001 40.9505 18.2001 40.9505 18.2001 40.9505C18.2001 40.9505 17.7001 40.9505 17.5001 40.9505C16.2001 41.0505 15.4001 40.9505 14.9001 40.9505C14.0001 40.9505 13.3001 40.9505 12.6001 41.1505C12.3001 41.2505 12.0001 41.3505 11.7001 41.5505C11.5001 41.6505 11.4001 41.6505 11.3001 41.8505C11.2001 42.0505 11.2001 42.2505 11.4001 42.3505C11.2001 42.3505 11.2001 42.0505 11.3001 41.9505C11.4001 41.8505 11.6001 41.7505 11.7001 41.7505C12.0001 41.6505 12.3001 41.6505 12.7001 41.6505C13.3001 41.6505 14.0001 41.8505 14.9001 41.9505C15.3001 41.9505 16.2001 42.1505 17.6001 42.0505C17.7001 42.0505 17.9001 42.0505 18.1001 42.0505C18.3001 42.0505 18.4001 42.0505 18.4001 42.0505C18.4001 42.0505 18.6001 42.0505 18.7001 41.9505C18.9001 41.9505 19.1001 41.8505 19.2001 41.8505C19.7001 41.6505 20.1001 41.4505 20.4001 41.3505C20.7001 41.1505 20.8001 41.0505 21.0001 40.9505C21.8001 40.2505 22.1001 39.5505 22.2001 38.8505C22.3001 38.0505 22.2001 37.4505 22.1001 36.7505Z" fill="black"/>
<path d="M41.2991 13.5502C41.9991 13.4502 42.6991 13.4502 43.2991 13.1502C43.5991 12.9502 43.8991 12.7502 44.0991 12.4502C44.2991 12.0502 44.3991 11.5502 44.1991 11.0502C44.0991 10.7502 43.7991 10.1502 42.8991 9.55023C42.2991 9.25023 41.4991 8.95023 40.5991 8.85023C39.6991 8.75023 38.6991 8.95023 37.7991 9.25023C36.9991 9.55023 36.2991 10.0502 35.7991 10.4502C35.2991 10.8502 35.0991 11.0502 35.0991 11.0502C35.0991 11.0502 34.1991 11.8502 33.1991 12.9502C32.1991 14.0502 31.1991 15.6502 30.6991 16.8502C30.0991 18.1502 29.9991 18.9502 29.8991 19.4502C29.5991 21.2502 29.7991 22.2502 29.9991 23.7502C29.7991 22.2502 30.0991 21.2502 30.5991 19.6502C30.6991 19.2502 30.9991 18.4502 31.5991 17.3502C32.1991 16.2502 33.1991 14.8502 34.1991 13.7502C35.1991 12.6502 35.9991 11.9502 35.9991 11.9502C35.9991 11.9502 36.1991 11.7502 36.6991 11.4502C37.0991 11.1502 37.6991 10.7502 38.3991 10.3502C38.9991 9.95023 39.7991 9.75023 40.5991 9.85023C41.3991 9.85023 42.0991 10.0502 42.4991 10.2502C43.2991 10.6502 43.4991 11.0502 43.5991 11.2502C43.8991 11.8502 43.5991 12.5502 43.0991 12.9502C42.5991 13.3502 41.9991 13.4502 41.2991 13.5502Z" fill="black"/>
<path d="M20.9988 35.6504C20.7988 36.3504 20.3988 36.8504 19.8988 37.2504C19.3988 37.6504 18.7988 37.8504 17.9988 38.0504C17.6988 38.1504 17.2988 38.2504 16.2988 38.2504C15.6988 38.2504 14.5988 38.2504 13.6988 38.2504C12.7988 38.2504 11.9988 38.3504 11.9988 38.3504C11.9988 38.3504 11.7988 38.3504 11.5988 38.4504C11.2988 38.5504 10.8988 38.6504 10.4988 38.8504C9.69883 39.2504 8.79883 40.0504 8.49883 40.8504C8.29883 41.2504 8.29883 41.5504 8.29883 41.9504C8.29883 42.2504 8.39883 42.5504 8.49883 42.8504C8.59883 43.1504 8.69883 43.2504 8.79883 43.4504C8.89883 43.5504 8.99883 43.6504 9.09883 43.7504C9.49883 44.0504 9.89883 44.2504 10.2988 44.3504C10.6988 44.4504 10.9988 44.5504 11.3988 44.5504C12.0988 44.5504 12.6988 44.3504 13.3988 44.3504C11.9988 44.5504 10.7988 44.3504 9.69883 43.2504C9.59883 43.1504 9.59883 43.0504 9.49883 42.9504C9.49883 42.8504 9.29883 42.7504 9.29883 42.5504C9.19883 42.3504 9.19883 42.2504 9.29883 42.0504C9.29883 41.8504 9.39883 41.6504 9.49883 41.3504C9.69883 40.8504 10.3988 40.1504 10.9988 39.9504C11.2988 39.7504 11.5988 39.7504 11.7988 39.6504C11.9988 39.6504 12.1988 39.5504 12.1988 39.5504C12.1988 39.5504 12.8988 39.4504 13.7988 39.4504C14.6988 39.4504 15.7988 39.4504 16.4988 39.3504C17.5988 39.2504 17.9988 39.0504 18.2988 38.9504C19.8988 38.0504 20.5988 36.9504 20.9988 35.6504Z" fill="black"/>
<path d="M27.8004 21.9505C27.9004 20.4505 28.4004 19.5505 28.8004 17.8505C28.9004 17.5505 29.0004 17.1505 29.3004 16.1505C29.4004 15.9505 29.5004 15.4505 29.7004 15.1505C29.8004 14.8505 30.0004 14.5505 30.0004 14.5505C30.0004 14.5505 30.4004 13.6505 30.7004 13.1505C31.3004 12.0505 31.8004 11.3505 32.1004 11.0505C32.6004 10.3505 33.1004 9.85049 33.5004 9.45049C34.0004 8.95049 34.5004 8.55049 35.1004 8.25049C33.8004 8.85049 32.7004 9.15049 31.4004 10.4505C31.1004 10.7505 30.5004 11.3505 29.7004 12.5505C29.5004 12.8505 29.3004 13.1505 29.2004 13.5505C29.0004 13.8505 28.9004 14.1505 28.9004 14.1505C28.9004 14.1505 28.8004 14.4505 28.6004 14.8505C28.5004 15.2505 28.3004 15.6505 28.2004 15.9505C27.9004 16.9505 27.9004 17.4505 27.8004 17.7505C27.7004 19.4505 27.9004 20.4505 27.8004 21.9505Z" fill="black"/>
<path d="M20.6992 23.8502C19.2992 23.2502 18.4992 22.6502 16.8992 21.9502C16.5992 21.8502 16.1992 21.6502 15.0992 21.4502C14.3992 21.2502 13.0992 21.1502 11.9992 21.2502C10.8992 21.3502 10.0992 21.7502 10.0992 21.7502C10.0992 21.7502 9.39922 22.0502 8.59922 22.5502C8.19922 22.8502 7.79922 23.2502 7.39922 23.6502C6.99922 24.0502 6.69922 24.5502 6.59922 24.9502C6.29922 25.6502 6.19922 26.2502 6.19922 26.7502C6.19922 27.2502 6.29922 27.6502 6.49922 27.8502C6.99922 28.8502 7.79922 29.0502 8.49922 29.2502C9.19922 29.3502 9.79922 29.3502 10.4992 29.3502C9.79922 29.3502 9.09922 29.1502 8.59922 28.9502C7.99922 28.6502 7.49922 28.2502 7.19922 27.5502C7.09922 27.3502 7.09922 27.1502 7.09922 26.7502C7.09922 26.3502 7.19922 25.9502 7.49922 25.3502C7.69922 25.0502 7.89922 24.6502 8.19922 24.3502C8.49922 24.0502 8.79922 23.7502 9.19922 23.5502C9.89922 23.0502 10.4992 22.8502 10.4992 22.8502C10.4992 22.8502 11.1992 22.5502 12.1992 22.4502C13.0992 22.2502 14.2992 22.3502 14.9992 22.4502C15.9992 22.5502 16.3992 22.7502 16.6992 22.7502C18.2992 23.1502 19.2992 23.3502 20.6992 23.8502Z" fill="black"/>
<path d="M10.8999 27.4501C10.9999 27.0501 11.1999 26.8501 11.4999 26.5501C11.6999 26.3501 12.1999 25.9501 12.7999 25.7501C13.3999 25.5501 13.8999 25.3501 13.8999 25.3501C13.8999 25.3501 14.3999 25.2501 15.0999 25.1501C15.6999 25.1501 16.4999 25.1501 16.6999 25.2501C17.1999 25.2501 17.4999 25.2501 17.7999 25.4501C17.4999 25.2501 17.2999 24.9501 16.8999 24.7501C16.6999 24.6501 15.8999 24.2501 15.0999 24.1501C14.2999 24.0501 13.5999 24.2501 13.5999 24.2501C13.5999 24.2501 12.8999 24.3501 12.1999 24.8501C11.8999 25.0501 11.4999 25.3501 11.2999 25.6501C11.0999 25.9501 10.9999 26.1501 10.8999 26.3501C10.7999 26.7501 10.8999 27.1501 10.8999 27.4501Z" fill="black"/>
<path d="M24.0995 22.5503C24.3995 21.1503 24.8995 20.1503 24.9995 18.3503C24.9995 18.1503 24.9995 17.9503 24.9995 17.6503C24.9995 17.3503 24.9995 16.9503 24.8995 16.4503C24.7995 16.0503 24.6995 15.5503 24.4995 15.0503C24.2995 14.5503 23.9995 13.9503 23.6995 13.4503C23.3995 12.9503 22.9995 12.6503 22.6995 12.3503C22.3995 12.0503 22.1995 11.9503 22.1995 11.9503C22.1995 11.9503 21.4995 11.4503 20.5995 11.2503C20.0995 11.1503 19.4995 11.0503 18.8995 11.0503C18.2995 11.1503 17.7995 11.3503 17.3995 11.6503C16.7995 12.0503 16.3995 12.5503 16.0995 13.0503C15.8995 13.4503 15.7995 13.8503 15.6995 14.0503C15.4995 14.9503 15.5995 15.7503 15.6995 16.3503C15.8995 17.0503 16.0995 17.5503 16.3995 18.2503C16.0995 17.5503 15.9995 16.9503 15.9995 16.2503C15.9995 15.6503 16.0995 14.9503 16.3995 14.1503C16.4995 13.9503 16.5995 13.7503 16.7995 13.3503C16.9995 13.0503 17.3995 12.6503 17.8995 12.3503C18.1995 12.1503 18.5995 12.0503 18.9995 12.0503C19.3995 12.0503 19.7995 12.0503 20.1995 12.2503C20.9995 12.4503 21.4995 12.8503 21.4995 12.8503C21.4995 12.8503 21.6995 12.9503 21.8995 13.1503C22.0995 13.3503 22.3995 13.6503 22.6995 14.0503C22.9995 14.4503 23.1995 14.8503 23.3995 15.3503C23.5995 15.7503 23.6995 16.2503 23.7995 16.5503C23.9995 16.9503 23.9995 17.1503 23.9995 17.3503C23.9995 17.5503 24.0995 17.6503 24.0995 17.8503C24.0995 18.1503 24.1995 18.3503 24.1995 18.4503C24.2995 20.1503 24.3995 21.1503 24.0995 22.5503Z" fill="black"/>
<path d="M18.5 15.9503C18.9 15.6503 19.3 15.6503 19.7 15.8503C19.8 15.8503 20 16.0503 20.3 16.2503C20.5 16.4503 20.7 16.8503 20.9 17.1503C21.3 17.8503 21.5 18.5503 21.5 18.5503C21.5 18.5503 21.8 19.2503 21.9 20.0503C22.1 20.8503 22.1 21.7503 22.1 22.0503C22.1 22.6503 22.2 22.9503 22.1 23.4503C22.3 23.0503 22.5 22.7503 22.7 22.1503C22.7 21.9503 22.8 21.6503 22.9 21.2503C22.9 20.8503 23 20.3503 22.9 19.9503C22.8 19.0503 22.5 18.2503 22.5 18.2503C22.5 18.2503 22.2 17.4503 21.7 16.7503C21.4 16.3503 21.1 16.0503 20.7 15.7503C20.3 15.4503 19.9 15.4503 19.7 15.4503C19.1 15.2503 18.8 15.6503 18.5 15.9503Z" fill="black"/>
<path d="M20.1987 34.9501C19.4987 35.2501 18.8987 35.4501 18.2987 35.5501C17.6987 35.6501 16.9987 35.7501 16.1987 35.7501C15.8987 35.7501 15.4987 35.6501 14.4987 35.4501C13.8987 35.3501 12.9987 35.0501 12.0987 34.9501C11.1987 34.8501 10.4987 34.8501 10.4987 34.8501C10.4987 34.8501 10.2987 34.8501 10.0987 34.8501C9.79874 34.8501 9.49874 34.9501 9.09874 35.0501C8.69874 35.1501 8.29874 35.3501 7.89874 35.5501C7.49874 35.7501 7.19874 36.0501 6.89874 36.2501C5.79874 37.2501 5.59874 38.3501 5.59874 38.8501C5.49874 39.8501 5.99874 40.6501 6.59874 41.0501C7.19874 41.4501 7.89874 41.4501 8.59874 41.4501C7.99874 41.6501 7.29874 41.3501 6.89874 40.9501C6.49874 40.4501 6.29874 39.8501 6.49874 39.1501C6.59874 38.8501 6.79874 38.0501 7.69874 37.2501C8.09874 36.8501 8.79874 36.5501 9.49874 36.3501C10.0987 36.1501 10.6987 36.1501 10.6987 36.1501C10.6987 36.1501 11.2987 36.1501 12.0987 36.1501C12.8987 36.2501 13.7987 36.3501 14.3987 36.4501C15.3987 36.6501 15.9987 36.6501 16.2987 36.5501C17.2987 36.4501 17.8987 36.1501 18.4987 35.8501C18.9987 35.6501 19.4987 35.3501 20.1987 34.9501Z" fill="black"/>
<path d="M9.49992 21.9504C9.39992 21.2504 9.79992 20.6504 10.1999 20.1504C10.5999 19.6504 11.1999 19.3504 11.8999 19.0504C12.1999 18.9504 12.5999 18.8504 13.4999 18.7504C13.6999 18.7504 13.9999 18.7504 14.2999 18.7504C14.5999 18.7504 14.7999 18.7504 14.7999 18.7504C14.7999 18.7504 15.4999 18.7504 15.8999 18.8504C17.0999 19.0504 17.7999 19.4504 18.1999 19.5504C18.8999 19.9504 19.4999 20.2504 19.9999 20.6504C20.4999 21.0504 20.8999 21.5504 21.1999 22.2504C20.5999 20.9504 20.1999 19.8504 18.6999 18.7504C18.2999 18.5504 17.4999 17.9504 16.0999 17.7504C15.8999 17.7504 15.5999 17.6504 15.2999 17.6504C14.9999 17.6504 14.7999 17.6504 14.7999 17.6504C14.7999 17.6504 14.5999 17.6504 14.2999 17.6504C13.9999 17.6504 13.5999 17.6504 13.3999 17.7504C12.2999 17.9504 11.7999 18.1504 11.4999 18.3504C10.5999 18.7504 10.0999 19.4504 9.79992 20.0504C9.59992 20.5504 9.49992 21.1504 9.49992 21.9504Z" fill="black"/>
<path d="M16.899 27.2505C16.599 27.9505 16.099 28.3505 15.599 28.7505C15.099 29.1505 14.499 29.5505 13.799 29.9505C13.499 30.0505 13.099 30.3505 12.299 30.8505C11.999 31.0505 11.199 31.4505 11.199 31.4505C11.199 31.4505 10.499 31.7505 10.199 31.8505C8.99896 32.1505 8.29896 31.9505 7.89896 31.8505C7.19896 31.6505 6.69896 31.2505 6.39896 30.6505C6.09896 30.1505 5.99896 29.4505 6.39896 28.7505C5.99896 29.3505 5.89896 30.0505 5.99896 30.7505C6.09896 31.4505 6.59896 32.2505 7.49896 32.6505C7.69896 32.7505 8.09896 32.8505 8.59896 32.9505C9.09896 33.0505 9.69896 33.0505 10.399 32.8505C10.899 32.7505 11.599 32.4505 11.599 32.4505C11.599 32.4505 11.799 32.3505 12.099 32.2505C12.399 32.1505 12.599 31.9505 12.799 31.8505C13.699 31.3505 14.099 31.0505 14.299 30.8505C15.899 29.6505 16.299 28.5505 16.899 27.2505Z" fill="black"/>
<path d="M17.7985 29.9502C17.4985 30.6502 17.0985 31.0502 16.4985 31.4502C15.9985 31.7502 15.3985 32.0502 14.5985 32.3502C14.2985 32.4502 13.8985 32.6502 12.9985 32.8502C12.8985 32.8502 12.4985 32.9502 12.4985 32.9502C12.4985 32.9502 12.1985 33.0502 11.9985 33.0502C10.6985 33.3502 9.89847 33.4502 9.49847 33.5502C8.89847 33.6502 8.39847 33.7502 7.29847 33.9502C6.99847 34.0502 6.69847 34.0502 6.29847 34.0502C6.09847 34.0502 5.99847 34.0502 5.79847 34.0502C5.59847 34.0502 5.69847 33.6502 5.89847 33.7502C5.69847 33.6502 5.59847 34.0502 5.79847 34.1502C5.99847 34.2502 6.09847 34.2502 6.29847 34.2502C6.69847 34.3502 6.99847 34.3502 7.29847 34.4502C7.99847 34.5502 8.69847 34.6502 9.59847 34.5502C9.99847 34.5502 10.8985 34.4502 12.2985 34.2502C12.4985 34.2502 12.7985 34.1502 12.7985 34.1502C12.7985 34.1502 13.1985 34.0502 13.2985 34.0502C13.7985 33.9502 14.1985 33.7502 14.3985 33.6502C14.6985 33.5502 14.8985 33.4502 14.9985 33.3502C16.5985 32.3502 17.2985 31.2502 17.7985 29.9502Z" fill="black"/>
<path d="M18.8992 32.8501C18.7992 32.9501 18.5992 32.9501 18.4992 32.9501C18.3992 32.9501 18.1992 33.0501 17.9992 33.1501C17.7992 33.2501 17.6992 33.3501 17.6992 33.3501C17.6992 33.3501 17.5992 33.4501 17.3992 33.5501C17.2992 33.6501 17.0992 33.8501 16.9992 33.9501C16.8992 34.0501 16.7992 34.2501 16.6992 34.2501C16.7992 34.2501 16.8992 34.4501 17.0992 34.4501C17.1992 34.4501 17.4992 34.5501 17.7992 34.4501C18.0992 34.3501 18.2992 34.2501 18.2992 34.2501C18.2992 34.2501 18.4992 34.1501 18.6992 33.9501C18.8992 33.7501 18.9992 33.4501 18.9992 33.3501C18.9992 33.1501 18.8992 33.0501 18.8992 32.8501Z" fill="black"/>
<path d="M19.9004 11.4504C20.4004 10.8504 20.9004 10.5504 21.6004 10.4504C22.2004 10.3504 22.8004 10.2504 23.6004 10.5504C23.7004 10.5504 23.9004 10.6504 24.1004 10.7504C24.2004 10.7504 24.4004 10.8504 24.5004 10.9504C24.6004 11.0504 24.8004 11.0504 24.9004 11.2504C25.0004 11.3504 25.1004 11.4504 25.2004 11.5504C25.3004 11.6504 25.3004 11.7504 25.3004 11.7504C25.3004 11.7504 25.4004 11.8504 25.4004 11.9504C25.5004 12.0504 25.5004 12.1504 25.6004 12.2504C25.7004 12.5504 25.8004 12.7504 25.9004 13.0504C25.9004 13.2504 26.0004 13.5504 26.0004 13.7504C26.1004 14.1504 26.1004 14.4504 26.1004 14.6504C26.2004 16.3504 26.3004 17.3504 26.1004 18.8504C26.4004 17.4504 26.9004 16.4504 27.1004 14.6504C27.1004 14.4504 27.1004 14.0504 27.1004 13.6504C27.1004 13.4504 27.0004 13.1504 27.0004 12.8504C26.9004 12.5504 26.8004 12.2504 26.7004 11.8504C26.6004 11.7504 26.5004 11.5504 26.5004 11.4504C26.4004 11.3504 26.3004 11.2504 26.3004 11.2504C26.3004 11.2504 26.1004 10.7504 26.0004 10.6504C25.9004 10.5504 25.7004 10.3504 25.6004 10.2504C25.4004 10.0504 25.1004 9.95038 24.9004 9.85038C24.7004 9.75038 24.5004 9.75039 24.4004 9.65039C24.1004 9.55039 23.9004 9.55039 23.7004 9.55039C22.7004 9.45039 21.9004 9.65039 21.4004 10.0504C20.7004 10.3504 20.3004 10.8504 19.9004 11.4504Z" fill="black"/>
<path d="M41.3992 30.9502C41.3992 30.8502 41.5992 30.7502 41.7992 30.6502C41.8992 30.5502 42.0992 30.4502 42.1992 30.3502C42.2992 30.2502 42.3992 30.1502 42.3992 30.1502C42.3992 30.1502 42.4992 30.0502 42.5992 29.9502C42.6992 29.8502 42.7992 29.6502 42.8992 29.5502C42.9992 29.4502 42.9992 29.2502 43.1992 29.1502C43.0992 29.1502 42.9992 28.9502 42.7992 28.9502C42.6992 28.9502 42.3992 28.9502 42.0992 29.0502C41.7992 29.1502 41.5992 29.3502 41.5992 29.3502C41.5992 29.3502 41.3992 29.5502 41.2992 29.8502C41.1992 30.1502 41.1992 30.4502 41.1992 30.5502C41.1992 30.7502 41.3992 30.8502 41.3992 30.9502Z" fill="black"/>
<path d="M37.6004 16.8505C37.5004 16.8505 37.4004 16.7505 37.2004 16.7505C37.1004 16.7505 36.9004 16.7505 36.7004 16.7505C36.5004 16.8505 36.4004 16.9505 36.4004 16.9505C36.4004 16.9505 36.3004 17.0505 36.1004 17.1505C36.0004 17.2505 35.9004 17.5505 35.9004 17.6505C35.9004 17.8505 35.9004 17.9505 35.9004 18.0505C36.0004 17.9505 36.1004 18.0505 36.3004 18.0505C36.4004 18.0505 36.6004 18.0505 36.8004 17.9505C37.0004 17.8505 37.1004 17.8505 37.1004 17.8505C37.1004 17.8505 37.2004 17.7505 37.3004 17.6505C37.4004 17.5505 37.5004 17.3505 37.5004 17.2505C37.5004 17.0505 37.5004 16.8505 37.6004 16.8505Z" fill="black"/>
<path d="M14.3985 26.9505C14.2985 26.9505 14.1985 26.7505 13.9985 26.7505C13.8985 26.7505 13.5985 26.6505 13.2985 26.7505C12.9985 26.8505 12.7985 27.0505 12.7985 27.0505C12.7985 27.0505 12.5985 27.2505 12.4985 27.5505C12.3985 27.8505 12.4985 28.2505 12.5985 28.3505C12.6985 28.5505 12.8985 28.5505 12.9985 28.6505C12.9985 28.5505 13.0985 28.3505 13.1985 28.2505C13.1985 28.1505 13.3985 28.0505 13.4985 27.9505C13.5985 27.8505 13.6985 27.8505 13.6985 27.8505C13.6985 27.8505 13.7985 27.7505 13.8985 27.6505C13.9985 27.5505 14.1985 27.3505 14.1985 27.2505C14.2985 27.1505 14.2985 26.9505 14.3985 26.9505Z" fill="black"/>
<path d="M31.3999 56.5501C30.5999 56.5501 30.1999 55.9501 29.9999 55.4501C29.7999 54.8501 29.7999 54.2501 29.9999 53.4501C30.0999 53.2501 30.1999 52.7501 30.7999 52.0501C31.0999 51.6501 31.7999 51.2501 32.4999 51.0501C33.1999 50.8501 33.7999 50.7501 33.7999 50.7501C33.7999 50.7501 34.2999 50.6501 34.9999 50.6501C35.6999 50.5501 36.5999 50.4501 37.1999 50.3501C38.5999 50.1501 39.3999 49.8501 39.7999 49.6501C41.4999 49.0501 42.2999 48.2501 43.4999 47.3501C42.2999 48.2501 41.2999 48.4501 39.5999 48.8501C39.1999 48.9501 38.3999 49.0501 37.0999 49.2501C36.4999 49.3501 35.5999 49.3501 34.8999 49.4501C34.1999 49.5501 33.5999 49.5501 33.5999 49.5501C33.5999 49.5501 32.8999 49.6501 32.0999 49.8501C31.6999 49.9501 31.1999 50.1501 30.7999 50.4501C30.3999 50.7501 30.0999 51.0501 29.8999 51.2501C29.4999 51.7501 29.3999 52.0501 29.2999 52.3501C29.1999 52.6501 29.0999 52.8501 29.0999 53.0501C28.8999 54.0501 29.0999 54.8501 29.4999 55.3501C30.0999 56.1501 30.6999 56.5501 31.3999 56.5501Z" fill="black"/>
<path d="M31.8998 55.2504C31.9998 54.7504 32.1998 54.4504 32.5998 54.1504C32.7998 53.9504 33.4998 53.3504 34.1998 53.1504C34.8998 52.9504 35.6998 52.8504 35.6998 52.8504C35.6998 52.8504 36.3998 52.7504 37.2998 52.7504C38.1998 52.6504 39.0998 52.5504 39.3998 52.3504C39.9998 52.1504 40.2998 51.9504 40.6998 51.7504C40.1998 51.8504 39.8998 51.8504 39.2998 51.7504C38.9998 51.7504 38.0998 51.6504 37.1998 51.6504C36.2998 51.6504 35.4998 51.7504 35.4998 51.7504C35.4998 51.7504 35.2998 51.7504 34.9998 51.8504C34.6998 51.9504 34.1998 52.0504 33.7998 52.2504C33.3998 52.4504 32.9998 52.7504 32.6998 53.0504C32.3998 53.3504 32.1998 53.6504 32.1998 53.8504C31.7998 54.3504 31.8998 54.7504 31.8998 55.2504Z" fill="black"/>
<path d="M27.9 11.4502C27.8 11.1502 28 10.8502 28.1 10.5502C28.2 10.3502 28.4 9.8502 28.7 9.4502C29 9.0502 29.4 8.8502 29.4 8.8502C29.4 8.8502 29.8 8.6502 30.2 8.4502C30.7 8.3502 31.3 8.3502 31.5 8.3502C31.9 8.3502 32.2 8.3502 32.4 8.5502C32.1 8.3502 32 8.0502 31.6 7.8502C31.5 7.7502 31.3 7.6502 31 7.5502C30.7 7.4502 30.3 7.4502 30 7.4502C29.3 7.5502 28.7 7.8502 28.7 7.8502C28.7 7.8502 28.1 8.2502 27.8 8.8502C27.6 9.1502 27.5 9.55019 27.5 9.85019C27.5 10.1502 27.5 10.4502 27.5 10.5502C27.6 10.9502 27.8 11.1502 27.9 11.4502Z" fill="black"/>
<path d="M51.4996 36.5503C51.2996 36.9503 50.9996 37.1503 50.5996 37.6503C50.3996 37.9503 49.9996 38.7503 49.6996 39.5503C49.5996 39.9503 49.4996 40.3503 49.4996 40.6503C49.4996 40.9503 49.3996 41.1503 49.3996 41.1503C49.3996 41.1503 49.3996 41.3503 49.3996 41.5503C49.3996 41.7503 49.2996 42.0503 49.0996 42.2503C48.8996 42.4503 48.5996 42.6503 48.2996 42.8503C47.9996 43.0503 47.6996 43.1503 47.5996 43.2503C47.0996 43.5503 46.8996 43.9503 46.5996 44.2503C46.8996 43.9503 47.2996 43.8503 47.7996 43.7503C47.8996 43.7503 48.1996 43.6503 48.5996 43.5503C48.9996 43.4503 49.3996 43.2503 49.7996 42.8503C50.1996 42.4503 50.3996 41.9503 50.3996 41.6503C50.4996 41.3503 50.4996 41.1503 50.4996 41.1503C50.4996 41.1503 50.4996 40.9503 50.4996 40.6503C50.4996 40.3503 50.5996 40.0503 50.5996 39.6503C50.6996 38.8503 50.8996 38.0503 50.9996 37.7503C51.2996 37.3503 51.2996 36.9503 51.4996 36.5503Z" fill="black"/>
<path d="M42.5 50.2504C42.7 50.2504 42.9 50.3504 43.3 50.3504C43.4 50.3504 43.6 50.3504 43.8 50.2504C44 50.1504 44.2 50.1504 44.4 49.9504C44.8 49.7504 45.1 49.3504 45.1 49.3504C45.1 49.3504 45.4 49.0504 45.6 48.6504C45.7 48.4504 45.8 48.1504 45.8 47.9504C45.9 47.7504 45.8 47.5504 45.9 47.4504C45.9 47.1504 45.7 46.9504 45.8 46.6504C45.7 46.8504 45.5 47.0504 45.4 47.2504C45.3 47.3504 45 47.7504 44.8 47.9504C44.6 48.2504 44.3 48.4504 44.3 48.4504C44.3 48.4504 44.1 48.6504 43.8 48.9504C43.5 49.2504 43.2 49.5504 43.1 49.6504C42.8 49.9504 42.7 50.1504 42.5 50.2504Z" fill="black"/>
<path d="M51.6992 22.2505C51.9992 22.4505 52.0992 22.7505 52.2992 23.1505C52.3992 23.2505 52.4992 23.4505 52.5992 23.7505C52.6992 24.0505 52.8992 24.3505 52.9992 24.6505C53.1992 25.2505 53.3992 25.8505 53.3992 25.8505C53.3992 25.8505 53.4992 26.4505 53.5992 27.0505C53.5992 27.3505 53.5992 27.7505 53.5992 27.9505C53.5992 28.2505 53.5992 28.4505 53.5992 28.6505C53.5992 29.1505 53.5992 29.4505 53.3992 29.7505C53.5992 29.4505 53.8992 29.2505 54.0992 28.8505C54.0992 28.7505 54.2992 28.4505 54.3992 28.1505C54.4992 27.8505 54.5992 27.4505 54.5992 27.0505C54.6992 26.2505 54.4992 25.5505 54.4992 25.5505C54.4992 25.5505 54.3992 24.8505 53.9992 24.1505C53.7992 23.8505 53.5992 23.4505 53.2992 23.2505C53.0992 22.9505 52.7992 22.8505 52.6992 22.7505C52.3992 22.4505 51.9992 22.4505 51.6992 22.2505Z" fill="black"/>
<path d="M30.1992 50.1504C31.5992 49.5504 32.5992 49.4504 34.2992 48.7504C34.3992 48.6504 34.5992 48.5504 34.8992 48.4504C35.1992 48.2504 35.4992 47.9504 35.8992 47.5504C35.9992 47.4504 36.0992 47.2504 36.0992 47.2504C36.0992 47.2504 36.0992 47.1504 36.1992 47.1504L36.2992 47.0504C36.8992 45.8504 37.0992 44.9504 37.1992 44.5504C37.4992 43.7504 37.6992 43.0504 37.8992 42.4504C38.0992 41.8504 38.3992 41.2504 38.7992 40.6504C37.8992 41.8504 36.9992 42.4504 36.1992 44.1504C35.9992 44.5504 35.6992 45.5504 35.1992 46.4504C35.1992 46.4504 35.1992 46.5504 35.0992 46.5504C35.0992 46.6504 34.9992 46.6504 34.9992 46.6504C34.9992 46.6504 34.8992 46.7504 34.8992 46.8504C34.3992 47.5504 33.9992 47.7504 33.7992 47.8504C33.0992 48.2504 32.4992 48.6504 31.8992 49.0504C31.3992 49.4504 30.8992 49.7504 30.1992 50.1504Z" fill="black"/>
<path d="M52.5991 38.8504C52.6991 38.7504 52.8991 38.6504 52.9991 38.5504C53.0991 38.4504 53.2991 38.2504 53.4991 38.0504C53.6991 37.8504 53.7991 37.6504 53.7991 37.6504C53.7991 37.6504 53.8991 37.4504 53.9991 37.2504C54.0991 37.0504 54.1991 36.7504 54.1991 36.6504C54.1991 36.4504 54.1991 36.2504 54.2991 36.1504C54.1991 36.2504 53.9991 36.2504 53.7991 36.2504C53.6991 36.2504 53.3991 36.4504 53.1991 36.6504C52.9991 36.8504 52.8991 37.0504 52.8991 37.0504C52.8991 37.0504 52.7991 37.2504 52.6991 37.5504C52.5991 37.8504 52.5991 38.1504 52.5991 38.2504C52.4991 38.5504 52.5991 38.7504 52.5991 38.8504Z" fill="black"/>
<path d="M15 47.9505C15.4 47.3505 15.9 46.9505 16.5 46.6505C17.1 46.3505 17.7 46.0505 18.5 45.6505C18.8 45.4505 19.2 45.2505 20 44.6505C20.2 44.5505 20.7 44.1505 20.7 44.1505C20.7 44.1505 21.1 43.8505 21.3 43.6505C22.4 42.7505 22.8 41.9505 23.1 41.5505C24 39.8505 23.9 38.7505 23.8 37.2505C23.9 37.9505 23.7 38.6505 23.4 39.1505C23.1 39.7505 22.8 40.2505 22.3 40.9505C22.1 41.2505 21.6 41.8505 20.6 42.7505C20.3 42.9505 20 43.2505 20 43.2505C20 43.2505 19.5 43.6505 19.3 43.7505C18.5 44.3505 18.1 44.6505 17.9 44.8505C16.5 45.8505 15.7 46.7505 15 47.9505Z" fill="black"/>
<path d="M17.1992 48.3501C18.4992 47.6501 19.5992 47.4501 21.0992 46.6501C21.3992 46.4501 21.7992 46.2501 22.5992 45.6501C22.8992 45.4501 23.4992 45.0501 23.4992 45.0501C23.4992 45.0501 23.9992 44.6501 24.2992 44.4501C25.3992 43.4501 25.7992 42.5501 25.8992 42.1501C26.1992 41.2501 26.1992 40.4501 26.0992 39.7501C25.9992 39.0501 25.6992 38.4501 25.3992 37.8501C25.6992 38.5501 25.6992 39.1501 25.5992 39.8501C25.4992 40.4501 25.2992 41.1501 24.9992 41.8501C24.7992 42.1501 24.3992 42.8501 23.4992 43.6501C23.1992 43.8501 22.7992 44.2501 22.7992 44.2501C22.7992 44.2501 22.1992 44.6501 21.9992 44.8501C21.1992 45.4501 20.7992 45.7501 20.5992 45.9501C19.1992 46.7501 18.4992 47.5501 17.1992 48.3501Z" fill="black"/>
</g>
<defs>
<clipPath id="clip0_419_102">
<rect width="61.1" height="61.4" fill="white" transform="translate(0 0.950195)"/>
</clipPath>
</defs>
</svg>
